<svg xmlns="http://www.w3.org/2000/svg">
<defs>
<font id="SVN-HelveticaNeueBold" horiz-adv-x="1176" >
  <font-face 
    font-family="SVN-Helvetica Neue"
    font-weight="700"
    font-stretch="normal"
    units-per-em="2048"
    panose-1="2 4 6 3 5 5 6 2 2 4"
    ascent="1638"
    descent="-410"
    x-height="1059"
    cap-height="1462"
    bbox="-117 -446 4553 2358"
    underline-thickness="109"
    underline-position="-251"
    unicode-range="U+0020-2122"
  />
<missing-glyph horiz-adv-x="4653" 
d="M788 1681v510h343v-61h-274v-157h236v-61h-236v-231h-69zM1253 1865q0 -72 30 -106.5t76 -34.5t77 34.5t31 106.5q0 69 -31 104.5t-77 35.5t-76 -35.5t-30 -104.5zM1189 1865q0 104 56 151q45 42 114 42q37 0 68.5 -13t54.5 -37t36 -59t13 -79q0 -52 -12.5 -89t-35.5 -61
t-54.5 -35t-69.5 -11q-78 0 -124 48.5t-46 142.5zM1608 1681v369h58v-53q41 61 115 61q56 0 85 -27t37 -63q2 -10 3.5 -24.5t1.5 -36.5v-226h-64v223q0 54 -19.5 77.5t-57.5 23.5q-20 0 -37.5 -6t-30 -20t-20 -37.5t-7.5 -58.5v-202h-64zM2149 1679q-14 -2 -25.5 -3.5
t-21.5 -1.5q-27 5 -44 8t-27 13t-13.5 31t-3.5 62v214h-45v48h45v90l64 38v-128h63v-48h-63v-217q0 -18 1.5 -28t5.5 -15t10.5 -6t16.5 -1h29zM2444 1851q4 -56 40 -86t106 -30q62 0 94.5 23t32.5 61q0 24 -12 41t-44 31q-10 4 -33 10t-57 14t-59 16t-39 16q-40 18 -57 45.5
t-17 65.5q0 29 12.5 54.5t36 45t56.5 30.5t75 11q45 0 80.5 -11.5t60.5 -31.5t39 -47.5t16 -60.5l-69 -3q-11 93 -124 93q-62 0 -88 -22.5t-26 -54.5q0 -27 18 -45q11 -11 35 -19t66 -18q82 -16 112 -32q46 -18 66.5 -50t20.5 -72q0 -34 -14 -61.5t-39 -47.5t-60 -31
t-78 -11q-100 0 -157.5 45t-57.5 130zM3022 1681l-193 510h74l130 -372q8 -22 14 -42l12 -40q6 22 14 42l16 40l140 372h69l-202 -510h-74zM3356 1681v510h72l257 -398v398h69v-510h-74l-255 396v-396h-69zM128 1098q0 -70 29 -104t71 -34t71.5 33t29.5 99q0 78 -30.5 113.5
t-72.5 35.5t-70 -34.5t-28 -108.5zM327 917v45q-37 -53 -104 -53q-35 0 -64 14t-50 39t-33 60t-12 78q0 42 10.5 77.5t30.5 61.5t48.5 40.5t64.5 14.5q34 0 59.5 -14.5t43.5 -38.5v186h64v-510h-58zM725 917v53q-23 -29 -52 -45t-65 -16q-56 0 -85 25.5t-37 65.5

<glyph glyph-name=".notdef" horiz-adv-x="4653" 
d="M788 1681v510h343v-61h-274v-157h236v-61h-236v-231h-69zM1253 1865q0 -72 30 -106.5t76 -34.5t77 34.5t31 106.5q0 69 -31 104.5t-77 35.5t-76 -35.5t-30 -104.5zM1189 1865q0 104 56 151q45 42 114 42q37 0 68.5 -13t54.5 -37t36 -59t13 -79q0 -52 -12.5 -89t-35.5 -61
t-54.5 -35t-69.5 -11q-78 0 -124 48.5t-46 142.5zM1608 1681v369h58v-53q41 61 115 61q56 0 85 -27t37 -63q2 -10 3.5 -24.5t1.5 -36.5v-226h-64v223q0 54 -19.5 77.5t-57.5 23.5q-20 0 -37.5 -6t-30 -20t-20 -37.5t-7.5 -58.5v-202h-64zM2149 1679q-14 -2 -25.5 -3.5
t-21.5 -1.5q-27 5 -44 8t-27 13t-13.5 31t-3.5 62v214h-45v48h45v90l64 38v-128h63v-48h-63v-217q0 -18 1.5 -28t5.5 -15t10.5 -6t16.5 -1h29zM2444 1851q4 -56 40 -86t106 -30q62 0 94.5 23t32.5 61q0 24 -12 41t-44 31q-10 4 -33 10t-57 14t-59 16t-39 16q-40 18 -57 45.5
t-17 65.5q0 29 12.5 54.5t36 45t56.5 30.5t75 11q45 0 80.5 -11.5t60.5 -31.5t39 -47.5t16 -60.5l-69 -3q-11 93 -124 93q-62 0 -88 -22.5t-26 -54.5q0 -27 18 -45q11 -11 35 -19t66 -18q82 -16 112 -32q46 -18 66.5 -50t20.5 -72q0 -34 -14 -61.5t-39 -47.5t-60 -31
t-78 -11q-100 0 -157.5 45t-57.5 130zM3022 1681l-193 510h74l130 -372q8 -22 14 -42l12 -40q6 22 14 42l16 40l140 372h69l-202 -510h-74zM3356 1681v510h72l257 -398v398h69v-510h-74l-255 396v-396h-69zM128 1098q0 -70 29 -104t71 -34t71.5 33t29.5 99q0 78 -30.5 113.5
t-72.5 35.5t-70 -34.5t-28 -108.5zM327 917v45q-37 -53 -104 -53q-35 0 -64 14t-50 39t-33 60t-12 78q0 42 10.5 77.5t30.5 61.5t48.5 40.5t64.5 14.5q34 0 59.5 -14.5t43.5 -38.5v186h64v-510h-58zM725 917v53q-23 -29 -52 -45t-65 -16q-56 0 -85 25.5t-37 65.5
q-2 8 -2.5 21.5t-0.5 33.5v231h64v-207q0 -24 0.5 -40t2.5 -26q5 -24 23 -37.5t48 -13.5q46 0 72 28.5t26 96.5v199h64v-369h-58zM669 1360h-48l-79 99h82zM878 917v369h59v-53q40 61 114 61q56 0 85 -27t37 -63q2 -10 3.5 -24.5t1.5 -36.5v-226h-63v223q0 54 -19.5 77.5
t-57.5 23.5q-20 0 -37.5 -6t-30.5 -20t-20.5 -37.5t-7.5 -58.5v-202h-64zM1311 1106q0 -72 28 -104t70 -32t71.5 32t29.5 104q0 66 -29.5 100.5t-71.5 34.5t-70 -34.5t-28 -100.5zM1324 883q2 -16 6.5 -27.5t14.5 -17.5q20 -16 61 -16q42 0 65 15.5t31 45.5q5 22 5 79
q-22 -22 -46.5 -33.5t-54.5 -11.5q-39 0 -68.5 14.5t-49.5 40t-30.5 59t-10.5 72.5q0 40 11 74.5t31 60.5t49.5 41t67.5 15q62 0 107 -53v45h58v-318q1 -63 -9 -100t-31 -57.5t-52.5 -28.5t-74.5 -13q-64 0 -104.5 29t-38.5 93zM1921 1103q0 -69 16 -95q28 -48 80 -48
q21 0 39.5 8.5t32.5 26t22.5 43.5t8.5 62q0 72 -29 108t-69 36q-42 0 -71.5 -35.5t-29.5 -105.5zM1924 917h-61v510h63v-183q18 26 43.5 38t57.5 12q34 0 62.5 -14t49.5 -39t33 -59.5t12 -75.5q0 -48 -13 -85t-34.5 -61.5t-50.5 -37.5t-61 -13q-34 0 -58.5 13.5t-42.5 39.5
v-45zM2500 1103q-18 -8 -44 -13.5t-60 -10.5q-27 -5 -44 -10t-27 -12.5t-13.5 -17t-3.5 -23.5q0 -26 18.5 -42.5t56.5 -16.5q34 0 63 14.5t43 44.5q8 21 8 63zM2502 962q-34 -29 -65.5 -41t-69.5 -12q-62 0 -93.5 29t-31.5 75q0 44 26 69t62 37q10 2 24 4t31 4q76 12 112 24
q2 6 2.5 10t0.5 6q0 37 -19 53q-26 21 -72 21t-66.5 -15.5t-28.5 -53.5l-64 8q12 56 50.5 85t114.5 29q37 0 62 -6.5t41 -17.5t24.5 -26t12.5 -32q2 -10 4 -24t2 -34v-85q0 -43 0.5 -68.5t2 -41t5 -24.5t10.5 -18h-64q-6 11 -8.5 21t-4.5 24zM2407 1406q21 0 24 2
q17 4 21 13q0 10 -11 14q-16 8 -48 8q-6 0 -13.5 -0.5t-17.5 -2.5l-3 35q6 2 18 2h30q22 -2 39.5 -6t31.5 -10q27 -11 32 -37q0 -36 -64 -40v-18h-39v40zM2656 917v369h58v-53q41 61 115 61q56 0 85 -27t37 -63q2 -10 3.5 -24.5t1.5 -36.5v-226h-64v223q0 54 -19.5 77.5
t-57.5 23.5q-20 0 -37.5 -6t-30 -20t-20 -37.5t-7.5 -58.5v-202h-64zM3089 1106q0 -72 28 -104t70 -32t71 32t29 104q0 66 -29 100.5t-71 34.5t-70 -34.5t-28 -100.5zM3102 883q3 -34 21 -45q19 -16 61 -16t65 15.5t31 45.5q2 10 3.5 30t1.5 49q-22 -22 -46.5 -33.5
t-54.5 -11.5q-39 0 -68.5 14.5t-49.5 40t-30.5 59t-10.5 72.5q0 40 10.5 74.5t31 60.5t50 41t67.5 15q62 0 106 -53v45h59v-318q1 -63 -9.5 -100t-31.5 -57.5t-52.5 -28.5t-74.5 -13q-64 0 -104.5 29t-38.5 93zM3640 917v369h59v-53q18 26 45.5 43.5t65.5 17.5
q42 0 67.5 -17t36.5 -47q43 64 116 64q114 0 114 -125v-252h-63v231q0 51 -15.5 72t-51.5 21q-38 0 -64 -26.5t-26 -84.5v-213h-63v239q0 42 -15 63.5t-49 21.5q-44 0 -68.5 -30.5t-24.5 -102.5v-191h-64zM4473 1103q-17 -8 -43 -13.5t-60 -10.5q-27 -5 -44 -10t-27 -12.5
t-13.5 -17t-3.5 -23.5q0 -26 18.5 -42.5t56.5 -16.5q34 0 63 14.5t43 44.5q8 21 8 63zM4476 962q-34 -29 -65.5 -41t-69.5 -12q-62 0 -93.5 29t-31.5 75q0 44 26 69t62 37q10 2 23.5 4t31.5 4q76 12 112 24q2 6 2 10v6q0 38 -18 53q-26 21 -72 21t-66.5 -15.5t-28.5 -53.5
l-64 8q12 56 50.5 85t114.5 29q37 0 62 -6.5t41 -17.5t24.5 -26t12.5 -32q2 -10 3.5 -24t1.5 -34v-85q0 -43 0.5 -68.5t2 -41t5.5 -24.5t11 -18h-64q-6 11 -8.5 21t-4.5 24zM4288 1350q-2 32 17.5 53t51.5 21q10 0 25 -5.5t33 -15.5q21 -8 32 -8q10 0 17 7.5t9 21.5h46
q-4 -74 -69 -74q-11 0 -26 4t-33 12q-12 6 -20 9.5t-14 3.5q-29 0 -24 -29h-45zM1364 535h69v-294q0 -54 -10 -95.5t-33.5 -70t-61.5 -43t-94 -14.5q-55 0 -93 12.5t-61.5 39.5t-34 69t-10.5 102v294h69v-291q0 -47 6.5 -78t21.5 -50t39 -26.5t58 -7.5q36 0 61.5 7.5
t42 25.5t24 49.5t7.5 79.5v291zM1539 26v369h58v-53q20 29 48.5 45t66.5 16q55 0 84.5 -27.5t37.5 -63.5q2 -10 3.5 -24t1.5 -37v-225h-64v223q0 54 -19.5 77.5t-57.5 23.5q-20 0 -37.5 -6t-30 -20.5t-20 -38t-7.5 -57.5v-202h-64zM1934 26v369h64v-369h-64zM1934 464v71h64
v-71h-64zM2396 153q-10 -64 -53 -99.5t-101 -35.5q-78 0 -122.5 49t-44.5 139q0 94 44.5 145.5t120.5 51.5q62 0 98 -30.5t50 -86.5l-64 -8q-10 34 -31 54t-51 20q-48 0 -75.5 -34.5t-27.5 -108.5t27 -107.5t74 -33.5q77 0 92 93zM2489 209q0 -72 30 -106.5t76 -34.5
t77.5 34.5t31.5 106.5q0 70 -31.5 105.5t-77.5 35.5t-76 -35.5t-30 -105.5zM2425 209q0 103 56 151q47 43 114 43q37 0 68.5 -13t54.5 -37.5t36 -59.5t13 -79q0 -52 -12.5 -89t-35.5 -61t-54.5 -35t-69.5 -11q-78 0 -124 48.5t-46 142.5zM2884 206q0 -69 29.5 -103.5
t71.5 -34.5t71.5 33.5t29.5 99.5q0 78 -31 113.5t-73 35.5q-41 0 -69.5 -35t-28.5 -109zM3083 26v45q-37 -53 -103 -53q-35 0 -64 14t-50 39t-33 60t-12 78q0 42 10.5 77.5t30.5 61.5t48 40.5t64 14.5q35 0 60.5 -15t43.5 -38v185h64v-509h-59zM3497 244q-2 23 -9 41t-17 30
q-34 37 -80 37t-76.5 -30t-32.5 -78h215zM3558 137q-16 -58 -58 -88.5t-106 -30.5q-82 0 -130 49t-48 139q0 94 47 145.5t125 51.5q39 0 71 -13.5t54.5 -39t35 -61t12.5 -80.5q0 -2 -0.5 -6t-2.5 -10h-278q2 -62 34 -93.5t80 -31.5q38 0 62 17.5t38 59.5z" />
    <glyph glyph-name="nonmarkingreturn" horiz-adv-x="571" 
 />
    <glyph glyph-name="dieresis.001" horiz-adv-x="1024" 
 />
    <glyph glyph-name="ugrave" horiz-adv-x="582" 
 />
    <glyph glyph-name="uacute" horiz-adv-x="580" 
 />
    <glyph glyph-name="yacute" horiz-adv-x="629" 
 />
    <glyph glyph-name="Ccaron" unicode="&#x10c;" horiz-adv-x="1274" 
 />
    <glyph glyph-name="ccaron" unicode="&#x10d;" horiz-adv-x="922" 
 />
    <glyph glyph-name="space" unicode=" " horiz-adv-x="569" 
 />
    <glyph glyph-name="exclam" unicode="!" horiz-adv-x="569" 
d="M436 1069l-80 -631h-145l-78 631v393h303v-393zM125 315h321v-315h-321v315z" />
    <glyph glyph-name="quotedbl" unicode="&#x22;" horiz-adv-x="948" 
d="M555 1462h219v-657h-219v657zM174 1462h219v-657h-219v657z" />
    <glyph glyph-name="numbersign" unicode="#" horiz-adv-x="1139" 
d="M238 406h-170v184h194l37 254h-170v184h195l57 406h199l-58 -406h199l55 406h199l-55 -406h151v-184h-178l-35 -254h152v-184h-179l-55 -406h-198l55 406h-197l-57 -406h-199zM498 844l-37 -254h198l35 254h-196z" />
    <glyph glyph-name="dollar" unicode="$" horiz-adv-x="1139" 
d="M508 1257q-35 0 -68 -10.5t-58.5 -32t-41.5 -53.5t-16 -74q0 -34 10.5 -59.5t32.5 -44.5t57 -33.5t84 -25.5v333zM629 205q37 4 76.5 17t71.5 37.5t52.5 60.5t20.5 86q0 40 -12 69t-38 50.5t-68 38.5t-103 34v-393zM289 475q-1 -57 15.5 -102.5t46 -80t70 -56.5t87.5 -31
v428q-11 5 -28.5 9t-37.5 9q-77 21 -150 49t-131 73.5t-93 114.5t-35 171q0 105 39.5 184.5t105.5 134t152 84.5t178 35v158h121v-158q91 -10 172 -40t143 -82.5t101 -130t45 -183.5h-291q-1 40 -14.5 76t-36.5 62.5t-54 42t-65 15.5v-362q25 -6 50.5 -12.5t53.5 -14.5
q100 -27 169 -63.5t114.5 -78t70.5 -86t37 -88t14.5 -84.5t2.5 -75q0 -29 -9.5 -70.5t-32.5 -86.5t-61 -90.5t-95 -83.5t-134.5 -64t-179.5 -33v-174h-121v174q-227 17 -357 143t-153 367h291z" />
    <glyph glyph-name="percent" unicode="%" horiz-adv-x="2048" 
d="M154 1057q0 84 20.5 157.5t63.5 128.5t108.5 87t155.5 32q95 0 159.5 -33t103.5 -89t56 -131.5t17 -159.5t-20.5 -154.5t-63 -122t-107.5 -80t-155 -28.5q-95 0 -159.5 29.5t-104 82t-57 124.5t-17.5 157zM362 1053q0 -33 2 -74t14.5 -77t39 -60.5t76.5 -24.5
q48 0 75 24.5t40.5 60.5t16.5 76.5t3 72.5q0 20 -1 46.5t-5 55.5t-12 57t-22 50t-35.5 35.5t-51.5 13.5q-49 0 -77 -27t-42 -66t-17.5 -83.5t-3.5 -79.5zM1210 375q0 84 21 156t63.5 125t108.5 83.5t156 30.5q95 0 159 -31.5t103 -86t56 -128t17 -157.5t-20.5 -156.5
t-62.5 -125.5t-107.5 -83.5t-155.5 -30.5q-95 0 -159.5 31.5t-104 86t-57 128.5t-17.5 158zM1419 373q0 -33 2 -76t14.5 -81t39 -64.5t75.5 -26.5q48 0 75 26.5t40.5 64.5t17 80.5t3.5 74.5q0 30 -3 72t-15.5 80.5t-38 65.5t-70.5 27q-50 0 -78 -25t-41.5 -61.5t-17 -79
t-3.5 -77.5zM1368 1479h174l-844 -1524h-178z" />
    <glyph glyph-name="ampersand" unicode="&#x26;" horiz-adv-x="1403" 
d="M782 1145q0 28 -10.5 53.5t-29 44.5t-42.5 30t-51 11q-26 0 -49.5 -9.5t-41.5 -26.5t-29 -41t-11 -52q0 -35 10 -63.5t26.5 -55t37 -51t41.5 -49.5q31 20 58 40t47 44t32 54.5t12 70.5zM547 645q-39 -17 -75.5 -40t-65.5 -53t-46.5 -67t-17.5 -82q0 -40 17 -75t46 -61
t66.5 -41t79.5 -15q78 0 136.5 36t109.5 93zM950 145q-88 -86 -187 -130t-224 -44q-99 0 -185.5 29.5t-150.5 86t-100.5 138t-36.5 185.5q0 76 27 141t72 117.5t104 94t124 71.5q-29 36 -54.5 71t-44.5 72.5t-29.5 78.5t-10.5 89q0 76 32 138t85.5 105.5t122 67t141.5 23.5
q83 0 156 -22t127.5 -66.5t86 -110t31.5 -152.5q0 -64 -20 -118t-54.5 -99t-82.5 -81.5t-103 -65.5l189 -232q21 41 34 85.5t19 89.5h252q-11 -100 -45.5 -191.5t-96.5 -169.5l297 -346h-356z" />
    <glyph glyph-name="quotesingle" unicode="'" horiz-adv-x="569" 
d="M176 1462h219v-657h-219v657z" />
    <glyph glyph-name="parenleft" unicode="(" horiz-adv-x="606" 
d="M621 1497q-115 -218 -169.5 -453t-54.5 -475q0 -244 53.5 -481.5t167.5 -460.5h-241q-63 105 -113 217t-85.5 228.5t-54 236.5t-18.5 240q0 114 17 240t51 251t84.5 242t118.5 215h244z" />
    <glyph glyph-name="parenright" unicode=")" horiz-adv-x="606" 
d="M-14 -373q114 217 168.5 452t54.5 474q0 244 -53.5 482t-167.5 462h241q63 -105 113 -217.5t85.5 -229.5t54 -237t18.5 -240q0 -114 -17 -240t-50.5 -250.5t-84.5 -241.5t-119 -214h-243z" />
    <glyph glyph-name="asterisk" unicode="*" horiz-adv-x="834" 
d="M496 1206l237 90l55 -157l-241 -80l151 -201l-135 -100l-151 211l-144 -211l-137 100l152 201l-238 80l55 157l232 -90v256h164v-256z" />
    <glyph glyph-name="plus" unicode="+" horiz-adv-x="1229" 
d="M725 627h408v-219h-408v-408h-219v408h-408v219h408v407h219v-407z" />
    <glyph glyph-name="comma" unicode="," horiz-adv-x="569" 
d="M125 315h321v-315q0 -71 -25 -129t-68.5 -101.5t-101.5 -71.5t-124 -38v147q32 6 59.5 24t47 44.5t29.5 58.5t9 66h-147v315z" />
    <glyph glyph-name="hyphen" unicode="-" horiz-adv-x="834" 
d="M109 684h616v-250h-616v250z" />
    <glyph glyph-name="period" unicode="." horiz-adv-x="569" 
d="M123 315h321v-315h-321v315z" />
    <glyph glyph-name="slash" unicode="/" horiz-adv-x="760" 
d="M549 1497h233l-571 -1532h-234z" />
    <glyph glyph-name="zero" unicode="0" horiz-adv-x="1139" 
d="M43 723q0 210 42 351.5t114 227.5t167 123t201 37q108 0 204 -37t168 -123t114.5 -227.5t42.5 -351.5q0 -143 -19.5 -254t-54 -194.5t-83.5 -141.5t-107.5 -94t-125.5 -52t-139 -16q-70 0 -136.5 16t-124.5 52t-106.5 94t-83.5 141.5t-54 194.5t-19 254zM334 723
q0 -40 1 -94t7.5 -111t20.5 -112t40 -98.5t66 -70t98 -26.5q59 0 100 26.5t67.5 70t41 98.5t21 112t7.5 110.5t1 94.5q0 37 -1 88.5t-7.5 107t-21 110t-41 98t-67.5 70t-100 26.5q-58 0 -98 -26.5t-66 -70t-40 -98t-20.5 -110t-7.5 -107t-1 -88.5z" />
    <glyph glyph-name="one" unicode="1" horiz-adv-x="1139" 
d="M803 0h-291v930h-360v219q76 -2 146.5 11.5t127.5 47t95.5 88.5t49.5 138h232v-1434z" />
    <glyph glyph-name="two" unicode="2" horiz-adv-x="1139" 
d="M76 883q-4 123 28.5 228.5t98.5 183.5t165 122.5t228 44.5q98 0 187 -30.5t156.5 -88.5t107.5 -141t40 -188q0 -81 -20 -144.5t-54.5 -115.5t-81.5 -94.5t-100 -79.5q-53 -38 -109.5 -73.5t-111 -74t-104 -83t-88.5 -99.5h678v-250h-1053q1 124 37 216.5t97.5 165.5
t143.5 134.5t175 124.5q48 32 100.5 66t97 75t73.5 92t30 117q0 51 -16 91.5t-44.5 69.5t-68 44.5t-86.5 15.5q-65 0 -108.5 -30t-70 -77.5t-38 -106t-11.5 -115.5h-278z" />
    <glyph glyph-name="three" unicode="3" horiz-adv-x="1139" 
d="M467 854q47 -4 100.5 0.5t99 23.5t75.5 55.5t30 98.5q0 45 -16.5 80.5t-44.5 60t-65 37.5t-77 13q-54 0 -96 -19.5t-70 -53.5t-42 -81t-13 -102h-276q4 110 40 201t100.5 156.5t154 101.5t200.5 36q86 0 172 -26t155 -76.5t112 -124.5t43 -170q0 -51 -12.5 -97.5
t-38 -85.5t-63 -67.5t-87.5 -42.5v-4q59 -13 106 -43t80 -73t50.5 -96.5t17.5 -113.5q0 -113 -44 -200.5t-117.5 -147.5t-170 -91.5t-201.5 -31.5q-120 0 -219 35.5t-169.5 102.5t-108 164t-35.5 221h276q2 -59 18 -110.5t47 -89.5t77.5 -60.5t109.5 -22.5q49 0 92 16
t74.5 45.5t49.5 71t18 92.5q0 54 -15 91t-40 60.5t-58 36t-70 18.5t-75.5 6.5t-73.5 0.5v205z" />
    <glyph glyph-name="four" unicode="4" horiz-adv-x="1139" 
d="M639 332h-606v266l622 836h260v-863h191v-239h-191v-332h-276v332zM639 1069h-6l-371 -498h377v498z" />
    <glyph glyph-name="five" unicode="5" horiz-adv-x="1139" 
d="M1024 1194h-592l-57 -326l4 -4q59 60 127 85.5t153 25.5q106 0 188.5 -38.5t139 -104.5t86 -155t29.5 -190q0 -110 -42.5 -205.5t-115.5 -165t-170 -108.5t-205 -37q-104 0 -199.5 29t-169 86t-118 142t-45.5 198h291q5 -48 24.5 -87.5t50.5 -68t71.5 -44t88.5 -15.5
q57 0 103 23t78 61.5t49.5 88t17.5 103.5q0 56 -17 105t-48.5 85.5t-78 57.5t-104.5 21q-39 0 -70 -7t-57 -21.5t-48.5 -36t-43.5 -50.5h-262l141 793h801v-240z" />
    <glyph glyph-name="six" unicode="6" horiz-adv-x="1139" 
d="M795 1065q-7 36 -24 68.5t-42 56.5t-57.5 38.5t-69.5 14.5q-53 0 -93 -21t-70 -56.5t-50 -80.5t-33 -93.5t-19.5 -96.5t-8.5 -88l4 -4q60 85 139 122.5t184 37.5q93 0 180.5 -40t149.5 -108q57 -66 84 -150.5t27 -168.5q0 -110 -36.5 -205.5t-102.5 -166.5t-158.5 -112
t-204.5 -41q-108 0 -191.5 30t-144.5 82t-102.5 123t-66.5 153.5t-35.5 172.5t-10.5 181q0 87 13.5 177t42 173t73.5 156t107.5 127t143.5 85t183 31q93 0 172.5 -26.5t140.5 -77.5t100.5 -125t51.5 -168h-276zM586 743q-59 0 -102.5 -21.5t-72 -58.5t-43 -85t-14.5 -101
q0 -50 15.5 -97.5t45.5 -85t73 -60.5t98 -23q52 0 93 23t69 60t42.5 84t14.5 95q0 51 -13.5 99.5t-40.5 86.5t-68 61t-97 23z" />
    <glyph glyph-name="seven" unicode="7" horiz-adv-x="1139" 
d="M1059 1184q-75 -65 -139 -152t-115.5 -186.5t-91 -208t-67 -218.5t-41.5 -216.5t-15 -202.5h-311q12 159 50.5 314.5t100 303.5t145 285t185.5 260h-680v271h979v-250z" />
    <glyph glyph-name="eight" unicode="8" horiz-adv-x="1139" 
d="M319 434q0 -55 20 -100t54.5 -77t81 -49.5t98.5 -17.5t97 17.5t78 49.5t52 76.5t19 98.5q0 51 -19.5 93.5t-52.5 73t-78 47t-96 16.5q-53 0 -99 -15t-80.5 -43.5t-54.5 -71.5t-20 -98zM88 1071q0 97 42.5 170t111.5 122t155.5 74t173.5 25q89 0 159.5 -19t123.5 -50
t90.5 -71t61 -83t34.5 -85t11 -77q0 -106 -53.5 -186.5t-155.5 -114.5v-4q64 -15 113.5 -46t84 -76t52.5 -103t18 -125q0 -113 -46.5 -197.5t-122 -141t-172 -84.5t-196.5 -28q-104 0 -201.5 26.5t-174 82t-122.5 140t-46 200.5q0 68 18.5 126t53.5 103t85 76.5t113 46.5v4
q-52 15 -91.5 43t-66 66.5t-40 85.5t-13.5 100zM352 1044q0 -47 18 -82t48 -58.5t69.5 -35.5t83.5 -12q45 0 84 12t68 36t46 59t17 81q0 28 -8 62.5t-31.5 65t-65.5 51t-110 20.5q-44 0 -83.5 -13t-69.5 -38.5t-48 -62.5t-18 -85z" />
    <glyph glyph-name="nine" unicode="9" horiz-adv-x="1139" 
d="M344 369q7 -36 23.5 -68.5t41.5 -57t57.5 -39t70.5 -14.5q53 0 93 21.5t70 56.5t50 80.5t33 94t19.5 96.5t8.5 88l-4 4q-60 -85 -139 -122.5t-185 -37.5q-93 0 -180 39.5t-149 107.5q-57 67 -84 151t-27 169q0 110 36.5 205.5t102.5 166.5t158.5 111.5t204.5 40.5
q108 0 191.5 -29.5t144.5 -82t102.5 -123.5t66.5 -153t35.5 -172.5t10.5 -180.5q0 -87 -13.5 -177t-42 -173t-73.5 -156t-107.5 -127.5t-144 -85.5t-183.5 -31q-93 0 -172.5 26.5t-140 77.5t-100 125t-51.5 169h276zM553 690q58 0 101.5 21.5t72.5 58.5t43 85t14 101
q0 50 -15.5 98t-45.5 85.5t-73 60.5t-97 23q-52 0 -93 -23t-69 -60t-42.5 -84t-14.5 -95q0 -51 13 -99.5t40 -87t68.5 -61.5t97.5 -23z" />
    <glyph glyph-name="colon" unicode=":" horiz-adv-x="569" 
d="M125 315h321v-315h-321v315zM446 725h-321v315h321v-315z" />
    <glyph glyph-name="semicolon" unicode=";" horiz-adv-x="569" 
d="M125 315h321v-315q-1 -71 -26 -129t-68 -101.5t-101 -71.5t-124 -38v147q32 6 59.5 24t47 44.5t29.5 58.5t9 66h-147v315zM446 725h-321v315h321v-315z" />
    <glyph glyph-name="less" unicode="&#x3c;" horiz-adv-x="1229" 
d="M1135 817l-752 -299l752 -299v-235l-1041 413v242l1041 414v-236z" />
    <glyph glyph-name="equal" unicode="=" horiz-adv-x="1229" 
d="M1133 627h-1035v219h1035v-219zM1133 188h-1035v220h1035v-220z" />
    <glyph glyph-name="greater" unicode="&#x3e;" horiz-adv-x="1229" 
d="M94 219l752 299l-752 299v236l1041 -414v-242l-1041 -413v235z" />
    <glyph glyph-name="question" unicode="?" horiz-adv-x="1139" 
d="M66 991q2 110 38 202.5t100.5 160t155.5 105.5t203 38q97 0 172.5 -18.5t132 -49t95.5 -70.5t63.5 -84t35.5 -89t11 -84q0 -75 -14.5 -129t-38.5 -93.5t-55 -69t-64 -54.5t-66 -48.5t-60.5 -51t-47.5 -61.5t-27 -79v-78h-276v92q4 67 21 117t41.5 87.5t54.5 65.5t61 52
q30 24 57 46t48 47t33 56t12 72q0 94 -46.5 139t-127.5 45q-56 0 -95.5 -21t-65 -57t-37.5 -84.5t-13 -103.5h-301zM395 315h322v-315h-322v315z" />
    <glyph glyph-name="at" unicode="@" horiz-adv-x="1638" 
d="M596 653q0 -41 12 -74.5t33 -57.5t50.5 -37t64.5 -13q55 0 101.5 28.5t80 73t52 99.5t18.5 108q0 38 -12.5 70t-33.5 55t-50 36t-62 13q-56 0 -102.5 -28t-80 -72t-52.5 -97t-19 -104zM1145 588q-6 -21 -11.5 -44.5t-5 -44t8 -33.5t26.5 -13q44 0 87 28t77.5 78t56 119
t21.5 151q0 122 -43 216t-118 158t-176 97t-218 33q-132 0 -239 -46t-183 -127t-117 -192t-41 -241q0 -134 45 -244.5t125 -189t191 -121.5t243 -43q131 0 245.5 43.5t195.5 124.5h172q-52 -79 -120 -141t-148.5 -104.5t-170.5 -64.5t-186 -22q-109 0 -210 26.5t-188.5 75
t-159 117.5t-123 154t-79.5 184t-28 209q0 108 28 206.5t79 184t122.5 154.5t157.5 118.5t185 76t206 26.5q93 0 182 -20t168.5 -58t146 -93t114.5 -124.5t75 -152.5t27 -177q0 -105 -26.5 -190t-69 -151t-96 -113.5t-107 -78.5t-102 -45.5t-81.5 -14.5q-65 0 -105.5 32.5
t-43.5 83.5h-4q-37 -62 -96.5 -90.5t-124.5 -28.5q-66 0 -125 28t-102.5 76t-69 111.5t-25.5 135.5q0 64 14.5 128t41.5 122t66 107.5t88.5 86.5t109 57.5t127.5 20.5q33 0 68 -7.5t67 -24.5t59 -44t45 -67l33 110h168z" />
    <glyph glyph-name="A" unicode="A" horiz-adv-x="1403" 
d="M541 1462h329l547 -1462h-334l-110 326h-547l-115 -326h-325zM510 565h379l-184 537h-5z" />
    <glyph glyph-name="B" unicode="B" horiz-adv-x="1442" 
d="M463 250h344q48 0 91 9t75.5 30.5t51.5 58.5t19 94q0 56 -17 96t-47.5 65t-73 36.5t-93.5 11.5h-350v-401zM141 1462h688q105 0 191 -18.5t147.5 -60.5t95 -111.5t33.5 -171.5q0 -109 -51 -184t-147 -121q134 -39 201 -136.5t67 -234.5q0 -111 -43.5 -191.5t-115.5 -132
t-165 -76t-192 -24.5h-709v1462zM463 870h325q42 0 78.5 10t62.5 31t41 54t15 79q0 52 -18.5 85t-49 51.5t-70.5 25t-83 6.5h-301v-342z" />
    <glyph glyph-name="C" unicode="C" horiz-adv-x="1518" 
d="M1116 971q-8 54 -36 101t-71 81.5t-97.5 54t-114.5 19.5q-108 0 -184 -42.5t-123.5 -112.5t-69 -160.5t-21.5 -186.5q0 -92 21.5 -179.5t69 -156.5t123.5 -111t184 -42q73 0 131 24t99 67.5t66.5 103.5t34.5 132h312q-12 -137 -64 -247.5t-136 -188.5t-196.5 -120
t-246.5 -42q-170 0 -303.5 59.5t-226 162.5t-141 241.5t-48.5 296.5q0 163 48.5 304t141 245t226 163.5t303.5 59.5q120 0 228.5 -34.5t193 -101.5t139.5 -165t69 -225h-311z" />
    <glyph glyph-name="D" unicode="D" horiz-adv-x="1518" 
d="M141 1462h631q142 0 263.5 -44.5t210.5 -134.5t139.5 -226t50.5 -318q0 -159 -41 -294.5t-123.5 -234t-207 -154.5t-292.5 -56h-631v1462zM463 270h287q70 0 135.5 23t116.5 75t81.5 135.5t30.5 205.5q0 111 -21 200t-70 152t-130 97t-201 34h-229v-922z" />
    <glyph glyph-name="E" unicode="E" horiz-adv-x="1327" 
d="M141 1462h1094v-270h-772v-313h708v-250h-708v-359h788v-270h-1110v1462z" />
    <glyph glyph-name="F" unicode="F" horiz-adv-x="1214" 
d="M141 1462h1028v-270h-706v-338h612v-250h-612v-604h-322v1462z" />
    <glyph glyph-name="G" unicode="G" horiz-adv-x="1554" 
d="M1198 166q-42 -55 -90.5 -93t-99.5 -62t-104.5 -35t-106.5 -11q-170 0 -303.5 59.5t-226 162.5t-141 241.5t-48.5 296.5q0 163 48.5 304t141 245t226 163.5t303.5 59.5q112 0 217.5 -34t189.5 -99.5t140 -162t69 -220.5h-307q-14 61 -42.5 107t-69 77t-90.5 46.5
t-107 15.5q-108 0 -184 -42.5t-123.5 -112.5t-69 -160.5t-21.5 -186.5q0 -92 21.5 -179.5t69 -156.5t123.5 -111t184 -42q158 0 246 81t102 234h-324v240h615v-791h-205z" />
    <glyph glyph-name="H" unicode="H" horiz-adv-x="1518" 
d="M141 1462h322v-561h592v561h321v-1462h-321v631h-592v-631h-322v1462z" />
    <glyph glyph-name="I" unicode="I" horiz-adv-x="604" 
d="M141 1462h322v-1462h-322v1462z" />
    <glyph glyph-name="J" unicode="J" horiz-adv-x="1139" 
d="M997 461q0 -47 -6 -102t-23.5 -110.5t-50.5 -106.5t-87 -90.5t-132.5 -63t-187.5 -23.5q-92 0 -178.5 26t-153.5 80.5t-108 140.5t-41 206v127h290v-66q0 -53 8 -97.5t28.5 -77t57 -50.5t93.5 -18q64 0 98.5 23t50.5 58t18.5 77.5t2.5 80.5v987h321v-1001z" />
    <glyph glyph-name="K" unicode="K" horiz-adv-x="1479" 
d="M141 1462h322v-606l571 606h402l-572 -577l627 -885h-404l-440 657l-184 -186v-471h-322v1462z" />
    <glyph glyph-name="L" unicode="L" horiz-adv-x="1214" 
d="M141 1462h322v-1192h713v-270h-1035v1462z" />
    <glyph glyph-name="M" unicode="M" horiz-adv-x="1858" 
d="M141 1462h453l342 -1005h4l324 1005h452v-1462h-301v1036h-4l-358 -1036h-248l-359 1026h-4v-1026h-301v1462z" />
    <glyph glyph-name="N" unicode="N" horiz-adv-x="1518" 
d="M141 1462h320l610 -981h4v981h301v-1462h-321l-609 979h-4v-979h-301v1462z" />
    <glyph glyph-name="O" unicode="O" horiz-adv-x="1593" 
d="M78 725q0 163 48.5 304t141 245t226 163.5t303.5 59.5q169 0 303 -59.5t226 -163.5t141 -245t49 -304q0 -158 -49 -296.5t-141 -241.5t-226 -162.5t-303 -59.5q-170 0 -303.5 59.5t-226 162.5t-141 241.5t-48.5 296.5zM399 725q0 -92 21.5 -179.5t69 -156.5t123.5 -111
t184 -42t183.5 42t123 111t69 156.5t21.5 179.5q0 96 -21.5 186.5t-69 160.5t-123 112.5t-183.5 42.5t-184 -42.5t-123.5 -112.5t-69 -160.5t-21.5 -186.5z" />
    <glyph glyph-name="P" unicode="P" horiz-adv-x="1366" 
d="M141 1462h660q136 0 232.5 -40t157 -105.5t88.5 -150t28 -173.5t-28 -173.5t-88.5 -150t-157 -105.5t-232.5 -40h-338v-524h-322v1462zM463 774h250q56 0 107 8t90 31.5t62 66.5t23 113t-23 113t-62 66.5t-90 31.5t-107 8h-250v-438z" />
    <glyph glyph-name="Q" unicode="Q" horiz-adv-x="1593" 
d="M1358 -137l-207 188q-72 -42 -161.5 -64t-192.5 -22q-170 0 -303.5 59.5t-226 162.5t-141 241.5t-48.5 296.5q0 163 48.5 304t141 245t226 163.5t303.5 59.5q169 0 303 -59.5t226 -163.5t141 -245t49 -304q0 -159 -49 -296t-142 -243l182 -166zM938 541l166 -152
q40 56 65 138.5t25 197.5q0 96 -21.5 186.5t-69 160.5t-123 112.5t-183.5 42.5t-184 -42.5t-123.5 -112.5t-69 -160.5t-21.5 -186.5q0 -92 21.5 -179.5t69 -156.5t123.5 -111t184 -42q18 0 37 0.5t36.5 2t32 5.5t23.5 12l-138 125z" />
    <glyph glyph-name="R" unicode="R" horiz-adv-x="1479" 
d="M141 1462h789q98 0 177.5 -32t135 -86.5t85.5 -128t30 -156.5q0 -130 -55 -223.5t-177 -143.5v-4q59 -15 98.5 -49.5t63.5 -81t35.5 -101.5t15.5 -110q3 -35 4.5 -81.5t7 -95t17 -93.5t33.5 -76h-322q-15 34 -22.5 77t-12 89t-7.5 93t-9 91q-8 58 -24.5 99.5t-45 68.5
t-71 40t-103.5 13h-321v-571h-322v1462zM463 801h352q107 0 164 49t57 160q0 106 -56.5 154t-164.5 48h-352v-411z" />
    <glyph glyph-name="S" unicode="S" horiz-adv-x="1329" 
d="M360 485q0 -73 26.5 -124t71 -83.5t103 -47.5t123.5 -15q42 0 92 7.5t93 27.5t71.5 55.5t28.5 91.5q0 59 -37.5 96.5t-99 62.5t-139 43.5t-158.5 39.5q-54 14 -108 31.5t-102.5 40.5t-90 54t-72 72.5t-47.5 95t-17 122.5q0 75 22 136.5t61 111t91.5 86t113.5 60.5t127 36
t132 12q114 0 220 -26t187.5 -82.5t130 -146t48.5 -216.5h-311q-4 66 -28 109t-63 67.5t-90 34.5t-108 10q-39 0 -78 -8.5t-71 -28t-52 -51.5t-20 -78q0 -42 16.5 -68.5t64 -48.5t132.5 -45.5t223 -58.5q27 -7 69 -18t90.5 -30.5t97.5 -50t88 -75.5t64 -107t25 -145
q0 -101 -39 -186.5t-116 -148.5t-190.5 -98.5t-262.5 -35.5q-81 0 -159 13.5t-147.5 41.5t-128 70t-100.5 100t-65.5 131.5t-22.5 163.5h311z" />
    <glyph glyph-name="T" unicode="T" horiz-adv-x="1251" 
d="M465 1192h-438v270h1198v-270h-439v-1192h-321v1192z" />
    <glyph glyph-name="U" unicode="U" horiz-adv-x="1518" 
d="M1382 553q0 -148 -42.5 -258.5t-123 -183.5t-196 -109.5t-262.5 -36.5t-263 36t-196 109t-122 183.5t-42 259.5v909h322v-909q0 -60 10.5 -117t42.5 -101.5t91 -71.5t157 -27q86 0 144 19t93.5 58t50.5 99t15 141v909h321v-909z" />
    <glyph glyph-name="V" unicode="V" horiz-adv-x="1290" 
d="M821 0h-362l-475 1462h331l326 -1028h4l330 1028h332z" />
    <glyph glyph-name="W" unicode="W" horiz-adv-x="1933" 
d="M1534 0h-320l-247 995h-4l-244 -995h-326l-387 1462h322l231 -995h4l254 995h301l250 -1007h4l240 1007h315z" />
    <glyph glyph-name="X" unicode="X" horiz-adv-x="1366" 
d="M500 766l-471 696h372l287 -467l297 467h352l-469 -698l510 -764h-383l-319 506l-326 -506h-362z" />
    <glyph glyph-name="Y" unicode="Y" horiz-adv-x="1366" 
d="M520 569l-538 893h362l342 -577l340 577h358l-542 -901v-561h-322v569z" />
    <glyph glyph-name="Z" unicode="Z" horiz-adv-x="1327" 
d="M47 254l784 938h-722v270h1151v-254l-785 -938h805v-270h-1233v254z" />
    <glyph glyph-name="bracketleft" unicode="[" horiz-adv-x="682" 
d="M139 1497h541v-229h-250v-1411h250v-230h-541v1870z" />
    <glyph glyph-name="backslash" unicode="\" horiz-adv-x="760" 
d="M782 -35h-233l-572 1532h234z" />
    <glyph glyph-name="bracketright" unicode="]" horiz-adv-x="682" 
d="M543 -373h-541v230h250v1411h-250v229h541v-1870z" />
    <glyph glyph-name="asciicircum" unicode="^" horiz-adv-x="1229" 
d="M477 1434h275l352 -789h-240l-250 563l-249 -563h-240z" />
    <glyph glyph-name="underscore" unicode="_" horiz-adv-x="1024" 
d="M0 -154h1024v-102h-1024v102z" />
    <glyph glyph-name="grave" unicode="`" horiz-adv-x="530" 
d="M-98 1481h321l197 -291h-203z" />
    <glyph glyph-name="a" unicode="a" 
d="M770 518q-18 -16 -45.5 -25.5t-60 -15.5t-67.5 -10t-69 -10q-34 -7 -65 -17.5t-55 -27.5t-38 -44t-14 -67q0 -41 14.5 -67t39.5 -41t57 -21t68 -6q57 0 96.5 13.5t65.5 35.5t40.5 49t22 54t9 51.5t1.5 40.5v108zM98 733q6 102 51.5 170.5t115 109t156 57.5t175.5 17
q53 0 108 -4.5t106.5 -17t97 -34t79.5 -55t54 -80.5t20 -110v-550q0 -36 2 -71.5t6.5 -66.5t11.5 -56.5t17 -41.5h-295q-8 25 -13.5 50.5t-7.5 51.5q-35 -36 -76.5 -61t-87.5 -40.5t-95 -22.5t-97 -7q-75 0 -141 19t-114.5 58.5t-76.5 99.5t-28 141q0 90 31 148t81.5 93.5
t115 53t132.5 26.5q67 10 129 16.5t110 19t76.5 36t28.5 68.5q0 46 -15 74.5t-40.5 43.5t-60 20t-72.5 5q-83 0 -134.5 -37t-58.5 -123h-291z" />
    <glyph glyph-name="b" unicode="b" horiz-adv-x="1251" 
d="M111 1462h290v-532h5q27 40 63.5 70t80 49t92 28.5t97.5 9.5q79 0 157.5 -32.5t141 -100.5t101.5 -173.5t39 -250.5q0 -146 -39 -251.5t-101.5 -174t-141 -101t-157.5 -32.5q-58 0 -110.5 9t-97.5 29t-80.5 51t-59.5 75h-4v-135h-276v1462zM887 528q0 67 -14.5 128.5
t-45 108.5t-77.5 75t-111 28q-65 0 -111.5 -28t-77 -75t-45 -108.5t-14.5 -128.5q0 -66 14.5 -127t45 -108t77 -75t111.5 -28q64 0 111 28t77.5 75t45 108t14.5 127z" />
    <glyph glyph-name="c" unicode="c" 
d="M831 686q-14 90 -69 136t-146 46q-70 0 -117 -32t-76 -81.5t-41.5 -111t-12.5 -119.5q0 -57 12 -116t40 -107.5t74.5 -79.5t114.5 -31q51 0 90.5 15.5t69 44t47.5 68t25 88.5h280q-14 -105 -56 -186.5t-108 -136.5t-153.5 -83.5t-192.5 -28.5q-120 0 -218 40.5
t-168.5 112.5t-109 171.5t-38.5 218.5q0 124 36 229t105 181.5t169.5 119.5t229.5 43q94 0 181 -24.5t155 -74.5t111.5 -125.5t50.5 -176.5h-285z" />
    <glyph glyph-name="d" unicode="d" horiz-adv-x="1251" 
d="M866 135h-4q-51 -87 -135 -125.5t-186 -38.5q-120 0 -209 47.5t-148.5 126.5t-88.5 181.5t-29 212.5q0 71 13 139t39 129t65.5 112.5t91.5 88.5t117 58t143 21q46 0 91.5 -10t86.5 -29.5t75.5 -49t59.5 -68.5h4v532h291v-1462h-277v135zM862 532q0 65 -12.5 125.5
t-41.5 107.5t-77 75t-119 28t-120 -28t-79 -75t-43.5 -108t-13.5 -127q0 -62 14.5 -123t46 -109t79.5 -78t116 -30q72 0 120.5 29t77 77t40.5 109.5t12 126.5z" />
    <glyph glyph-name="e" unicode="e" 
d="M350 459q6 -139 72.5 -204t187.5 -65q44 0 82.5 12.5t69 32t51 44t27.5 49.5h256q-31 -94 -78.5 -161.5t-110.5 -111t-140 -64t-167 -20.5q-125 0 -225.5 41t-170.5 115t-107.5 176t-37.5 225q0 119 39.5 221.5t110.5 177.5t171 117.5t220 42.5q90 0 165 -24t133.5 -66.5
t101.5 -101.5t70 -129t38 -148t6 -159h-764zM823 643q-10 55 -27.5 97.5t-45 70.5t-66.5 42.5t-92 14.5q-69 0 -115 -23.5t-73.5 -58t-40 -73.5t-13.5 -70h473z" />
    <glyph glyph-name="f" unicode="f" horiz-adv-x="682" 
d="M174 864h-174v195h174v82q0 70 22 128.5t66 101.5t110.5 67t155.5 24q39 0 78 -3t76 -5v-217q-53 6 -107 6q-58 0 -84 -27.5t-26 -93.5v-63h201v-195h-201v-864h-291v864z" />
    <glyph glyph-name="g" unicode="g" horiz-adv-x="1251" 
d="M1128 68q0 -43 -7 -95t-27 -104t-57.5 -100.5t-98 -86.5t-148.5 -60.5t-210 -22.5q-78 0 -159 19t-147.5 60t-111 105.5t-49.5 155.5h288q10 -41 31 -69t49.5 -45t63.5 -24.5t73 -7.5q61 0 105.5 19.5t73 54.5t42.5 83t13 105v140h-4q-24 -42 -59 -72.5t-76.5 -51
t-88 -30.5t-94.5 -10q-119 0 -204.5 42t-140.5 114.5t-81 169.5t-26 206q0 103 29.5 198t86.5 167.5t142 115.5t196 43q106 0 184.5 -38.5t131.5 -130.5h4v141h276v-991zM604 250q62 0 108.5 24.5t77.5 65t46.5 93.5t15.5 110q0 64 -12 123t-41 104t-76.5 71.5t-118.5 26.5
q-62 0 -106 -25t-73 -66.5t-42.5 -96t-13.5 -113.5q0 -57 11.5 -113.5t39 -101.5t72.5 -73.5t112 -28.5z" />
    <glyph glyph-name="h" unicode="h" horiz-adv-x="1214" 
d="M111 1462h290v-551h7q27 45 63.5 78t77.5 54.5t84 32.5t84 11q116 0 191 -31.5t118.5 -88.5t60.5 -137.5t17 -178.5v-651h-291v598q0 130 -42.5 195t-143.5 65q-59 0 -102 -17t-70.5 -54t-40.5 -94t-13 -138v-555h-290v1462z" />
    <glyph glyph-name="i" unicode="i" horiz-adv-x="528" 
d="M119 1059h291v-1059h-291v1059zM410 1223h-291v239h291v-239z" />
    <glyph glyph-name="j" unicode="j" horiz-adv-x="569" 
d="M-39 -125q14 -5 29.5 -6.5t34.5 -1.5q22 0 42.5 3.5t36 13.5t24.5 28.5t9 48.5v1098h291v-1112q0 -81 -17 -141.5t-59.5 -100t-114.5 -59t-182 -19.5q-23 0 -47 2.5t-47 5.5v240zM428 1223h-291v239h291v-239z" />
    <glyph glyph-name="k" unicode="k" 
d="M137 1462h291v-784l367 381h344l-400 -389l445 -670h-353l-290 473l-113 -108v-365h-291v1462z" />
    <glyph glyph-name="l" unicode="l" horiz-adv-x="528" 
d="M119 1462h291v-1462h-291v1462z" />
    <glyph glyph-name="m" unicode="m" horiz-adv-x="1855" 
d="M119 1059h274v-144h4q57 82 139 127t185 45q50 0 96.5 -9.5t86.5 -30.5t72.5 -54.5t53.5 -81.5q23 35 55 67t72.5 56t88.5 38.5t104 14.5q84 0 155 -20.5t122.5 -65.5t80.5 -117t29 -175v-709h-291v600q0 53 -4.5 100t-22.5 82t-53.5 55.5t-97.5 20.5t-100 -23t-59 -61
t-28.5 -86t-7.5 -98v-590h-291v594q0 46 -1.5 93t-17 85t-52 62t-105.5 24q-21 0 -54.5 -9t-65 -35.5t-54 -74t-22.5 -125.5v-614h-291v1059z" />
    <glyph glyph-name="n" unicode="n" horiz-adv-x="1214" 
d="M111 1059h276v-148h6q28 45 64.5 78t79 54.5t88.5 32.5t92 11q116 0 191 -31.5t118.5 -88.5t60.5 -137.5t17 -178.5v-651h-291v598q0 130 -42.5 195t-143.5 65q-59 0 -102 -17t-70.5 -54t-40.5 -94t-13 -138v-555h-290v1059z" />
    <glyph glyph-name="o" unicode="o" horiz-adv-x="1251" 
d="M78 528q0 127 39 230t110 176t172 113t226 40t226.5 -40t173 -113t110.5 -176t39 -230q0 -126 -39 -228.5t-110.5 -175.5t-173 -113t-226.5 -40t-226 40t-172 113t-110 175.5t-39 228.5zM369 528q0 -63 12.5 -123.5t42 -108.5t78.5 -77t123 -29t123.5 29t79.5 77
t42.5 108.5t12.5 123.5q0 64 -12.5 125t-42.5 109t-79.5 77t-123.5 29t-123 -29t-78.5 -77t-42 -109t-12.5 -125z" />
    <glyph glyph-name="p" unicode="p" horiz-adv-x="1251" 
d="M111 1059h276v-135h4q53 85 134.5 124t181.5 39q124 0 214.5 -46.5t150 -125t88 -181.5t28.5 -216q0 -106 -29 -204.5t-87.5 -174.5t-145.5 -122t-203 -46q-48 0 -93.5 10.5t-86.5 30.5t-76 50t-61 69h-5v-504h-290v1432zM645 190q72 0 120 28.5t77.5 75t42 107
t12.5 125.5q0 63 -13.5 124.5t-43.5 109.5t-78.5 78t-118.5 30q-71 0 -119.5 -29.5t-78 -77.5t-42 -109.5t-12.5 -125.5q0 -65 13 -125.5t43 -107t78.5 -75t119.5 -28.5z" />
    <glyph glyph-name="q" unicode="q" horiz-adv-x="1251" 
d="M1143 -373h-291v506h-4q-26 -43 -63.5 -74t-81.5 -50.5t-92.5 -28.5t-96.5 -9q-49 0 -101 12.5t-102 39.5t-94.5 70t-78 104.5t-53 142t-19.5 182.5q0 109 29 211t88 180.5t148 126t210 47.5q49 0 96 -9t89 -29t77 -51t59 -74h4v135h277v-1432zM356 528
q0 -64 12.5 -124.5t42 -108t78 -76.5t119.5 -29t119.5 27.5t78.5 74t43 107t13 125.5q0 62 -13 123.5t-42.5 110.5t-76.5 79.5t-116 30.5q-71 0 -120 -29t-79.5 -76.5t-44.5 -109t-14 -125.5z" />
    <glyph glyph-name="r" unicode="r" horiz-adv-x="797" 
d="M111 1059h276v-197h4q20 50 55.5 91.5t80.5 71t97 46t105 16.5q16 0 33 -2.5t31 -7.5v-270q-20 5 -49.5 7.5t-55.5 2.5q-80 0 -135 -27t-88.5 -73t-48.5 -108t-15 -132v-477h-290v1059z" />
    <glyph glyph-name="s" unicode="s" horiz-adv-x="1100" 
d="M336 344q1 -48 19.5 -81.5t49.5 -55t71 -31.5t83 -10q31 0 65 6.5t62 22.5t46 42t18 64q0 33 -22 56.5t-64.5 41.5t-104 33.5t-139.5 32.5q-63 14 -123.5 33.5t-107.5 51.5t-76 80t-29 118q0 101 40 166.5t105 104t147.5 53.5t168.5 15q87 0 167.5 -16t144 -55t105 -104
t50.5 -162h-277q-3 42 -19.5 69.5t-43.5 44t-61.5 23t-73.5 6.5q-25 0 -53.5 -3t-52.5 -13.5t-40 -30t-16 -51.5q0 -39 28 -63.5t74.5 -40.5t106 -27.5t121.5 -26.5q63 -15 123.5 -35.5t107.5 -54t75.5 -83.5t28.5 -124q0 -105 -41.5 -175.5t-109.5 -113.5t-154.5 -61.5
t-177.5 -18.5q-61 0 -121 8t-114.5 26t-101 47t-81.5 70.5t-56 96.5t-24 125h277z" />
    <glyph glyph-name="t" unicode="t" horiz-adv-x="721" 
d="M479 1059h213v-195h-213v-524q0 -37 5.5 -60.5t19.5 -37.5t37.5 -19.5t60.5 -5.5q23 0 45 1.5t45 6.5v-227q-37 -6 -81.5 -8t-88.5 -2q-67 0 -127.5 9.5t-106.5 37t-73 77t-27 128.5v624h-176v195h176v317h291v-317z" />
    <glyph glyph-name="u" unicode="u" horiz-adv-x="1214" 
d="M1104 0h-277v147h-6q-27 -44 -64 -77t-79 -55t-88 -33t-92 -11q-116 0 -191 31.5t-118.5 88.5t-60.5 137.5t-17 179.5v651h290v-598q0 -131 43 -195.5t144 -64.5q59 0 101.5 17t70 54t40.5 94t13 138v555h291v-1059z" />
    <glyph glyph-name="v" unicode="v" horiz-adv-x="1065" 
d="M696 0h-323l-363 1059h305l224 -723h4l223 723h289z" />
    <glyph glyph-name="w" unicode="w" horiz-adv-x="1667" 
d="M1321 0h-299l-188 711h-5l-180 -711h-301l-336 1059h307l195 -719h4l176 719h283l180 -717h4l195 717h299z" />
    <glyph glyph-name="x" unicode="x" horiz-adv-x="1100" 
d="M381 557l-348 502h332l186 -277l184 277h322l-348 -496l391 -563h-332l-221 334l-221 -334h-326z" />
    <glyph glyph-name="y" unicode="y" horiz-adv-x="1063" 
d="M633 -133q-24 -64 -56 -109.5t-75.5 -74.5t-101 -42.5t-132.5 -13.5q-45 0 -89 3t-89 8v239q42 -3 84.5 -7.5t85.5 -2.5q37 4 62 23.5t37.5 48t12.5 62t-12 65.5l-372 993h311l240 -725h4l231 725h301z" />
    <glyph glyph-name="z" unicode="z" horiz-adv-x="1063" 
d="M45 219l551 621h-510v219h893v-219l-551 -621h590v-219h-973v219z" />
    <glyph glyph-name="braceleft" unicode="{" horiz-adv-x="682" 
d="M682 1268h-111q-37 0 -58.5 -14t-33 -36t-15 -48.5t-3.5 -51.5v-311q0 -75 -23 -121.5t-55.5 -72t-67 -35.5t-57.5 -13v-6q23 -2 57.5 -13.5t67 -37t55.5 -68t23 -106.5v-328q0 -25 3.5 -51.5t15 -48t33 -35.5t58.5 -14h111v-230h-260q-35 0 -78.5 17t-82 51.5t-65 86.5
t-26.5 122v399q0 47 -20 79.5t-49.5 52.5t-62 29t-56.5 9v178q24 0 56.5 9.5t62 31t49.5 57t20 87.5v385q0 70 26.5 121.5t65 86t82 51.5t78.5 17h260v-229z" />
    <glyph glyph-name="bar" unicode="|" horiz-adv-x="457" 
d="M119 1610h219v-2048h-219v2048z" />
    <glyph glyph-name="braceright" unicode="}" horiz-adv-x="682" 
d="M0 -143h111q37 0 58.5 14t33 35.5t15 48t3.5 51.5v328q0 64 23 106.5t55 68t67 37t58 13.5v6q-23 3 -58 13t-67 35.5t-55 72t-23 121.5v311q0 25 -3.5 51.5t-15 48.5t-33 36t-58.5 14h-111v229h260q34 0 78 -17t82.5 -51.5t65 -86t26.5 -121.5v-385q0 -52 20 -87.5
t49.5 -57t62 -31t56.5 -9.5v-178q-24 0 -56.5 -9t-62 -29t-49.5 -52.5t-20 -79.5v-399q0 -70 -26.5 -122t-65 -86.5t-82.5 -51.5t-78 -17h-260v230z" />
    <glyph glyph-name="asciitilde" unicode="~" horiz-adv-x="1229" 
d="M1092 514q-23 -32 -48 -63.5t-55.5 -56.5t-67.5 -40.5t-85 -15.5q-57 0 -107.5 20t-101.5 48q-50 27 -107.5 49t-128.5 22q-34 0 -60.5 -13t-47 -34t-36.5 -47t-28 -53l-82 190q17 32 40 63.5t53.5 56.5t71 40.5t91.5 15.5q53 0 111 -19.5t117 -45.5q28 -12 56.5 -25.5
t55 -24t51 -17.5t45.5 -7q31 0 56.5 13t47 34t40.5 47.5t37 53.5z" />
    <glyph glyph-name="Euro" unicode="&#x20ac;" horiz-adv-x="1139" 
d="M1055 1120q-144 92 -269 92q-215 0 -286 -280h499l-63 -148h-459l-2 -86h436l-63 -147h-356q65 -324 303 -324q151 0 315 129l-2 -309q-140 -82 -315 -82q-130 0 -234 41.5t-182 126.5q-143 154 -187 418h-157l63 147h82v53.5t2 32.5h-149l63 148h105q48 246 202 391
q163 156 406 156q175 0 373 -103z" />
    <glyph glyph-name="quotesinglbase" unicode="&#x201a;" horiz-adv-x="569" 
d="M139 315h291v-313q2 -68 -19 -127t-60.5 -104.5t-93.5 -74.5t-118 -38v135q39 13 65 33t41.5 46t22 58t6.5 70h-135v315z" />
    <glyph glyph-name="florin" unicode="&#x192;" horiz-adv-x="1139" 
d="M29 -123q39 -6 82 -6q39 -1 64.5 8.5t42 28t25.5 46t15 62.5l129 674h-188l37 195h186l49 260q18 97 48.5 164t80 109t121 60.5t172.5 18.5q38 0 76.5 -3t77.5 -11l-37 -219q-23 9 -42.5 11.5t-39.5 2.5q-40 0 -67 -7.5t-45 -23t-28 -39.5t-16 -57l-51 -266h201l-33 -195
h-205l-115 -635q-19 -103 -45.5 -178.5t-74 -125.5t-121 -74.5t-187.5 -24.5q-38 0 -73 1.5t-78 4.5z" />
    <glyph glyph-name="quotedblbase" unicode="&#x201e;" horiz-adv-x="948" 
d="M547 315h291v-313q2 -68 -19 -127t-60.5 -104.5t-93.5 -74.5t-118 -38v135q78 26 106.5 79t28.5 128h-135v315zM111 315h290v-313q3 -68 -18.5 -127t-60.5 -104.5t-93 -74.5t-118 -38v135q78 26 106.5 79t28.5 128h-135v315z" />
    <glyph glyph-name="ellipsis" unicode="&#x2026;" horiz-adv-x="2048" 
d="M180 315h322v-315h-322v315zM862 315h322v-315h-322v315zM1544 315h322v-315h-322v315z" />
    <glyph glyph-name="dagger" unicode="&#x2020;" horiz-adv-x="1139" 
d="M430 819h-381v240h381v403h277v-403h383v-240h-383v-1159h-277v1159z" />
    <glyph glyph-name="daggerdbl" unicode="&#x2021;" horiz-adv-x="1139" 
d="M430 55h-381v240h381v524h-381v240h381v403h277v-403h383v-240h-383v-524h383v-240h-383v-395h-277v395z" />
    <glyph glyph-name="circumflex" unicode="&#x2c6;" horiz-adv-x="530" 
d="M133 1481h266l226 -291h-240l-127 166l-131 -166h-221z" />
    <glyph glyph-name="perthousand" unicode="&#x2030;" horiz-adv-x="2349" 
d="M1085 352q0 -44 3 -88t14 -79.5t34 -58t64 -22.5q44 0 67.5 20.5t34 52.5t12 71t1.5 76q0 40 -2 79t-12.5 70t-33 50.5t-63.5 19.5q-43 0 -67 -19t-35.5 -47.5t-14 -62t-2.5 -62.5zM901 317q0 72 17 137.5t53.5 114.5t93.5 78t137 29q84 0 140.5 -28t91.5 -76t50 -113
t15 -140q0 -74 -17 -138t-53.5 -110.5t-93 -73t-135.5 -26.5q-71 0 -127 25.5t-94 71t-58 109t-20 140.5zM1610 317q0 72 17 137.5t53.5 114.5t93.5 78t137 29q84 0 140.5 -28t91.5 -76t50 -113t15 -140q0 -74 -17 -138t-53.5 -110.5t-93 -73t-135.5 -26.5
q-72 0 -127.5 25.5t-93.5 71t-58 109t-20 140.5zM1794 352q0 -44 2.5 -88t14 -79.5t34.5 -58t64 -22.5q43 0 66.5 20.5t34 52.5t12 71t1.5 76q0 40 -2 79t-12.5 70t-33 50.5t-62.5 19.5q-43 0 -67 -19t-35.5 -47.5t-14 -62t-2.5 -62.5zM141 1104q0 72 17 137t53.5 114
t93.5 78t137 29q84 0 141 -27.5t91.5 -75.5t49.5 -113t15 -140t-17 -138.5t-53.5 -110t-93 -73t-135.5 -26.5q-71 0 -127 25t-94 71t-58 109.5t-20 140.5zM326 1139q0 -44 2.5 -88t14 -79.5t34 -58t63.5 -22.5q44 0 67.5 20.5t34 52.5t12 70.5t1.5 75.5q0 40 -2 79.5
t-12.5 70.5t-33 50t-63.5 19q-43 0 -66.5 -18.5t-35 -47t-14 -62t-2.5 -62.5zM1155 1479h174l-844 -1524h-178z" />
    <glyph glyph-name="Scaron" unicode="&#x160;" horiz-adv-x="1329" 
d="M360 485q0 -73 26.5 -124t71 -83.5t103 -47.5t123.5 -15q42 0 92 7.5t93 27.5t71.5 55.5t28.5 91.5q0 59 -37.5 96.5t-99 62.5t-139 43.5t-158.5 39.5q-54 14 -108 31.5t-102.5 40.5t-90 54t-72 72.5t-47.5 95t-17 122.5q0 75 22 136.5t61 111t91.5 86t113.5 60.5t127 36
t132 12q114 0 220 -26t187.5 -82.5t130 -146t48.5 -216.5h-311q-4 66 -28 109t-63 67.5t-90 34.5t-108 10q-39 0 -78 -8.5t-71 -28t-52 -51.5t-20 -78q0 -42 16.5 -68.5t64 -48.5t132.5 -45.5t223 -58.5q27 -7 69 -18t90.5 -30.5t97.5 -50t88 -75.5t64 -107t25 -145
q0 -101 -39 -186.5t-116 -148.5t-190.5 -98.5t-262.5 -35.5q-81 0 -159 13.5t-147.5 41.5t-128 70t-100.5 100t-65.5 131.5t-22.5 163.5h311zM799 1593h-267l-227 291h230l131 -166l133 166h225z" />
    <glyph glyph-name="guilsinglleft" unicode="&#x2039;" horiz-adv-x="494" 
d="M86 420v276l322 252v-246l-185 -145l185 -147v-246z" />
    <glyph glyph-name="OE" unicode="&#x152;" horiz-adv-x="2238" 
d="M1114 111h-4q-32 -36 -73.5 -63t-87.5 -45.5t-94.5 -28t-96.5 -9.5q-108 0 -200.5 28t-168 78.5t-133.5 120.5t-97.5 154t-60 179.5t-20.5 197.5q0 101 21 198t61 183t99 158t135 124.5t169 81.5t201 29q48 0 96.5 -7.5t94 -24t85.5 -43t70 -64.5h4v104h1024v-270h-725
v-313h664v-250h-664v-359h739v-270h-1038v111zM1102 918q0 69 -23.5 126t-65.5 97.5t-100 63t-127 22.5q-107 0 -180.5 -44t-119.5 -114.5t-66.5 -160.5t-20.5 -181q0 -90 21 -178t66.5 -157.5t118 -112.5t175.5 -43q74 0 133.5 24t101.5 68t64.5 105.5t22.5 135.5v349z" />
    <glyph glyph-name="Zcaron" unicode="&#x17d;" horiz-adv-x="1327" 
d="M47 254l784 938h-722v270h1151v-254l-785 -938h805v-270h-1233v254zM799 1593h-267l-227 291h230l131 -166l133 166h225z" />
    <glyph glyph-name="quoteleft" unicode="&#x2018;" horiz-adv-x="569" 
d="M430 805h-291v313q-2 68 19 127.5t60.5 104.5t93.5 74.5t118 37.5v-135q-78 -26 -106.5 -78.5t-28.5 -128.5h135v-315z" />
    <glyph glyph-name="quoteright" unicode="&#x2019;" horiz-adv-x="569" 
d="M139 1462h291v-313q2 -68 -19 -127.5t-60.5 -104.5t-93.5 -74.5t-118 -37.5v135q39 13 65 33t41.5 46t22 58t6.5 70h-135v315z" />
    <glyph glyph-name="quotedblleft" unicode="&#x201c;" horiz-adv-x="948" 
d="M838 805h-291v313q-2 68 19 127.5t60.5 104.5t93.5 74.5t118 37.5v-135q-39 -13 -65.5 -33t-42 -46t-22 -58t-6.5 -70h136v-315zM401 805h-290v313q-3 68 18.5 127.5t60.5 104.5t93 74.5t118 37.5v-135q-78 -26 -106.5 -78.5t-28.5 -128.5h135v-315z" />
    <glyph glyph-name="quotedblright" unicode="&#x201d;" horiz-adv-x="948" 
d="M547 1462h291v-313q2 -68 -19 -127.5t-60.5 -104.5t-93.5 -74.5t-118 -37.5v135q78 26 106.5 79t28.5 128h-135v315zM111 1462h290v-313q3 -68 -18.5 -127.5t-60.5 -104.5t-93 -74.5t-118 -37.5v135q78 26 106.5 79t28.5 128h-135v315z" />
    <glyph glyph-name="bullet" unicode="&#x2022;" horiz-adv-x="1026" 
d="M147 731q0 76 28.5 142.5t78 116t116 78t142.5 28.5t143 -28.5t116.5 -78t78.5 -116t29 -142.5t-29 -143t-78.5 -116.5t-116.5 -78t-143 -28.5t-142.5 28.5t-116 78t-78 116.5t-28.5 143z" />
    <glyph glyph-name="endash" unicode="&#x2013;" horiz-adv-x="1024" 
d="M0 684h1024v-250h-1024v250z" />
    <glyph glyph-name="emdash" unicode="&#x2014;" horiz-adv-x="2048" 
d="M266 684h1516v-250h-1516v250z" />
    <glyph glyph-name="tilde" unicode="&#x2dc;" horiz-adv-x="530" 
d="M641 1462q-11 -35 -25 -75.5t-38 -75.5q-25 -35 -64 -58.5t-102 -23.5q-47 0 -88.5 11t-79.5 24q-38 14 -73.5 24t-70.5 10q-41 0 -58.5 -23.5t-27.5 -62.5h-125q10 45 26.5 89.5t45.5 80t73.5 58t112.5 22.5q36 0 68 -11t64 -24q32 -14 66 -25t69 -11q46 0 67 21t19 50
h141z" />
    <glyph glyph-name="trademark" unicode="&#x2122;" horiz-adv-x="2048" 
d="M1901 618h-197v599h-4l-217 -599h-142l-217 599h-4v-599h-196v844h278l211 -555l211 555h277v-844zM815 1298h-240v-680h-208v680h-240v164h688v-164z" />
    <glyph glyph-name="scaron" unicode="&#x161;" horiz-adv-x="1100" 
d="M336 344q1 -48 19.5 -81.5t49.5 -55t71 -31.5t83 -10q31 0 65 6.5t62 22.5t46 42t18 64q0 33 -22 56.5t-64.5 41.5t-104 33.5t-139.5 32.5q-63 14 -123.5 33.5t-107.5 51.5t-76 80t-29 118q0 101 40 166.5t105 104t147.5 53.5t168.5 15q87 0 167.5 -16t144 -55t105 -104
t50.5 -162h-277q-3 42 -19.5 69.5t-43.5 44t-61.5 23t-73.5 6.5q-25 0 -53.5 -3t-52.5 -13.5t-40 -30t-16 -51.5q0 -39 28 -63.5t74.5 -40.5t106 -27.5t121.5 -26.5q63 -15 123.5 -35.5t107.5 -54t75.5 -83.5t28.5 -124q0 -105 -41.5 -175.5t-109.5 -113.5t-154.5 -61.5
t-177.5 -18.5q-61 0 -121 8t-114.5 26t-101 47t-81.5 70.5t-56 96.5t-24 125h277zM684 1190h-266l-228 291h230l131 -166l133 166h225z" />
    <glyph glyph-name="guilsinglright" unicode="&#x203a;" horiz-adv-x="494" 
d="M408 696v-276l-322 -256v246l184 147l-184 145v246z" />
    <glyph glyph-name="oe" unicode="&#x153;" horiz-adv-x="1896" 
d="M1546 643q-2 51 -17.5 92.5t-45 71t-72.5 45.5t-100 16q-55 0 -97 -17.5t-70.5 -48t-44.5 -71.5t-18 -88h465zM594 190q73 0 118.5 32t71 81.5t34.5 110.5t9 118q0 53 -8 112.5t-32.5 109t-69 82t-117.5 32.5q-67 0 -111.5 -31t-71 -80.5t-37.5 -110.5t-11 -122
q0 -54 10.5 -113t36.5 -108t69.5 -81t108.5 -32zM1081 459q0 -57 15.5 -106t47 -85.5t78.5 -57t111 -20.5q81 0 132.5 37t80.5 109h283q-26 -86 -72.5 -154t-111 -115t-143.5 -71.5t-169 -24.5q-55 0 -110.5 9.5t-105.5 31.5t-93 56t-74 84q-27 -48 -69 -82.5t-92.5 -56.5
t-105.5 -32t-108 -10q-123 0 -216 45.5t-155.5 123t-94 180t-31.5 215.5q0 117 37 217.5t105 175t164 117t214 42.5q51 0 104 -9t101.5 -29t89.5 -51.5t70 -77.5q27 40 68 71.5t88.5 52.5t98.5 32t99 11q141 0 239.5 -50.5t161 -136.5t91 -200t28.5 -241h-756z" />
    <glyph glyph-name="zcaron" unicode="&#x17e;" horiz-adv-x="1063" 
d="M45 219l551 621h-510v219h893v-219l-551 -621h590v-219h-973v219zM666 1190h-267l-227 291h229l131 -166l134 166h225z" />
    <glyph glyph-name="Ydieresis" unicode="&#x178;" horiz-adv-x="1366" 
d="M520 569l-538 893h362l342 -577l340 577h358l-542 -901v-561h-322v569zM756 1866h276v-240h-276v240zM334 1866h276v-240h-276v240z" />
    <glyph glyph-name="uni00A0" unicode="&#xa0;" horiz-adv-x="569" 
 />
    <glyph glyph-name="exclamdown" unicode="&#xa1;" horiz-adv-x="569" 
d="M446 772h-321v315h321v-315zM133 18l80 631h145l78 -631v-393h-303v393z" />
    <glyph glyph-name="cent" unicode="&#xa2;" horiz-adv-x="1139" 
d="M532 866q-54 -15 -92 -47.5t-61.5 -76.5t-34 -96t-10.5 -105q0 -55 9.5 -110t32 -102.5t61 -84t95.5 -54.5v676zM532 -29q-110 7 -200 51.5t-154 117t-99.5 168t-35.5 204.5q0 117 32 217.5t94 177t153 123.5t210 57v175h121v-175q85 -1 166 -29.5t145 -80.5
t104.5 -126.5t43.5 -166.5h-285q-3 37 -17.5 69t-38 56.5t-54 40t-64.5 18.5v-678q38 7 70 28.5t56 52t37.5 68.5t14.5 77h285q-8 -98 -46.5 -176.5t-99.5 -135.5t-142 -91t-175 -42v-207h-121v207z" />
    <glyph glyph-name="sterling" unicode="&#xa3;" horiz-adv-x="1139" 
d="M53 156q43 27 84.5 62.5t74.5 78.5t53 93t20 106q0 34 -11 68.5t-28 68.5h-203v174h131q-15 19 -31.5 48.5t-30 66.5t-22 80t-8.5 88q0 81 33.5 155t99.5 130t164 89t227 33q116 0 208.5 -33.5t157 -98t99 -160.5t33.5 -220h-277q-2 20 -4.5 48t-9.5 58t-21 60
t-38.5 53.5t-61 38t-88.5 14.5q-45 0 -82 -13t-63.5 -37.5t-41 -59.5t-14.5 -78q0 -24 1.5 -47t10 -52.5t25.5 -68.5t47 -94h273v-174h-215q9 -31 12.5 -62t3.5 -65q0 -48 -13.5 -89t-36.5 -76t-53.5 -65t-64.5 -57l4 -4q49 31 80 39t60 8q42 0 81.5 -7t79.5 -15
q41 -10 80.5 -17.5t79.5 -7.5q21 0 41 3t42 12t46 26.5t51 46.5l123 -207q-74 -71 -157.5 -101t-161.5 -30q-77 0 -129 11t-95 26q-44 16 -89.5 28.5t-112.5 12.5q-56 0 -116 -15.5t-120 -62.5z" />
    <glyph glyph-name="currency" unicode="&#xa4;" horiz-adv-x="1139" 
d="M158 424q-48 56 -73.5 131t-25.5 160q0 42 6 84t18 80t30.5 71.5t44.5 59.5l-117 118l117 117l116 -115q25 22 59 39.5t73 30t81.5 19t85.5 6.5q41 0 81.5 -6.5t77 -18.5t68 -29t54.5 -38l119 116l125 -125l-115 -112q22 -25 39 -58t29 -71.5t18 -80t6 -83.5
q0 -85 -24 -163.5t-70 -135.5l113 -115l-113 -112l-117 118q-25 -24 -58 -43t-71 -32t-80 -20t-84 -7q-89 0 -168 25.5t-133 74.5l-114 -119l-115 115zM573 1006q-65 0 -113.5 -24t-81 -64.5t-49 -93t-16.5 -109.5q0 -56 16.5 -108t49.5 -92t81 -63.5t111 -23.5t110 24.5
t78 65.5t46.5 93t15.5 108q0 54 -15.5 105.5t-46.5 92t-77.5 65t-108.5 24.5z" />
    <glyph glyph-name="yen" unicode="&#xa5;" horiz-adv-x="1139" 
d="M424 0v283h-322v194h322v94l-29 60h-293v194h195l-315 637h333l271 -637l264 637h332l-318 -637h195v-194h-293l-31 -60v-94h324v-194h-324v-283h-311z" />
    <glyph glyph-name="brokenbar" unicode="&#xa6;" horiz-adv-x="457" 
d="M119 330h219v-512h-219v512zM338 842h-219v512h219v-512z" />
    <glyph glyph-name="section" unicode="&#xa7;" horiz-adv-x="1139" 
d="M434 778q-12 6 -26 14.5t-29 6.5q-23 -2 -42 -15.5t-33 -33t-22 -43t-8 -45.5q0 -29 16 -55.5t50 -45.5l369 -201q11 -5 26.5 -9.5t34.5 -4.5q20 0 37 11.5t30 28.5t20 36.5t7 36.5q0 46 -27.5 77.5t-64.5 51.5zM758 1102q0 37 -12 69.5t-34.5 56t-55 37t-72.5 13.5
q-28 0 -55.5 -9t-50 -26t-36.5 -41t-14 -55q0 -43 30.5 -77t80 -64t111.5 -58t126 -59t125.5 -66t109.5 -80t77.5 -101.5t29.5 -129.5q0 -51 -15.5 -97.5t-43.5 -85.5t-67 -69t-87 -47q59 -45 86 -106t27 -136q0 -87 -39 -151.5t-101.5 -107t-140.5 -64t-155 -21.5
q-98 0 -182.5 23t-146.5 71.5t-97.5 123.5t-34.5 180h254q5 -90 56.5 -134.5t143.5 -44.5q31 0 59 8.5t48.5 25.5t32.5 42.5t12 59.5q0 45 -29 80.5t-77.5 66t-111.5 59t-130 60.5q-67 31 -131.5 67.5t-115 83t-81.5 105t-31 133.5q0 111 58 186.5t162 112.5q-44 46 -66 94
t-22 113q0 87 37.5 153t98 110.5t137.5 67.5t155 23q90 0 169 -26t137.5 -76.5t92 -124t33.5 -168.5h-254z" />
    <glyph glyph-name="dieresis" unicode="&#xa8;" horiz-adv-x="530" 
d="M338 1462h276v-239h-276v239zM-84 1462h277v-239h-277v239z" />
    <glyph glyph-name="copyright" unicode="&#xa9;" horiz-adv-x="1638" 
d="M33 731q0 117 29.5 219t82 187t125.5 152t160.5 113t186 70.5t202.5 24.5t202.5 -24.5t186 -70.5t161 -113t126 -152t82 -187t29.5 -219q0 -116 -29.5 -218t-82 -187t-126 -152t-161 -113.5t-186 -71t-202.5 -24.5t-202.5 24.5t-186 71t-160.5 113.5t-125.5 152t-82 187
t-29.5 218zM242 731q0 -131 45 -241t123 -190.5t183.5 -125.5t225.5 -45q119 0 224.5 45t184 125.5t124 190.5t45.5 241t-45.5 241.5t-124 190.5t-184 125t-224.5 45q-120 0 -225.5 -45t-183.5 -125t-123 -190.5t-45 -241.5zM1221 604q-12 -77 -46.5 -137t-84 -101.5
t-112 -63t-130.5 -21.5q-100 0 -181 35t-138.5 96t-89 144t-31.5 179q0 99 29.5 183t86 145.5t137.5 96t183 34.5q70 0 133 -20.5t112 -60.5t81.5 -99.5t43.5 -136.5h-159q-16 72 -73.5 112.5t-137.5 40.5q-59 0 -103.5 -22t-75 -60.5t-46 -92t-15.5 -116.5q0 -60 17 -113.5
t48.5 -94t77 -64t101.5 -23.5q85 0 141 43t66 117h166z" />
    <glyph glyph-name="ordfeminine" unicode="&#xaa;" horiz-adv-x="705" 
d="M471 1096q-11 -10 -28 -16t-36 -9.5t-38.5 -6t-34.5 -5.5q-44 -9 -74.5 -26.5t-30.5 -55.5q0 -22 9 -36.5t23 -23.5t30 -12.5t31 -3.5q51 0 80.5 15t44.5 38t19.5 50t4.5 51v41zM41 1239q9 68 39 110.5t74 67.5q43 25 96 35t110 10q54 0 109 -7t99 -26.5t72 -55t28 -93.5
v-340q0 -51 6 -91.5t18 -62.5h-207q-6 17 -9 32.5t-5 31.5q-45 -47 -105 -64.5t-116 -17.5q-48 0 -89.5 11.5t-73 36t-49.5 63.5t-18 94q0 56 20 92t53 57.5t75 32.5t86 16q46 6 86 9.5t69.5 10.5t46.5 20.5t17 37.5q0 26 -9.5 42t-26.5 24.5t-39.5 11t-47.5 2.5
q-18 0 -35 -5t-30.5 -16t-23 -28t-11.5 -41h-209z" />
    <glyph glyph-name="guillemotleft" unicode="&#xab;" horiz-adv-x="909" 
d="M502 420v276l321 252v-246l-184 -145l184 -147v-246zM86 420v276l322 252v-246l-185 -145l185 -147v-246z" />
    <glyph glyph-name="logicalnot" unicode="&#xac;" horiz-adv-x="1229" 
d="M1130 203h-219v409h-813v219h1032v-628z" />
    <glyph glyph-name="uni00AD" unicode="&#xad;" horiz-adv-x="834" 
d="M109 684h616v-250h-616v250z" />
    <glyph glyph-name="registered" unicode="&#xae;" horiz-adv-x="1638" 
d="M33 733q0 116 29.5 218t82 187t125.5 151.5t160.5 112.5t186 70.5t202.5 24.5t202.5 -24.5t186 -70.5t161 -112.5t126 -151.5t82 -187t29.5 -218q0 -117 -29.5 -219t-82 -187.5t-126 -152.5t-161 -113.5t-186 -71t-202.5 -24.5t-202.5 24.5t-186 71t-160.5 113.5
t-125.5 152.5t-82 187.5t-29.5 219zM242 733q0 -131 45 -242t123 -191.5t183.5 -125.5t225.5 -45q119 0 224.5 45t184 125.5t124 191.5t45.5 242q0 130 -45.5 240.5t-124 190t-184 124.5t-224.5 45q-120 0 -225.5 -45t-183.5 -124.5t-123 -190t-45 -240.5zM514 1163h324
q81 0 143.5 -13.5t105 -43.5t65 -78.5t22.5 -118.5q0 -59 -17.5 -100.5t-48 -69t-71.5 -41.5t-89 -18l230 -375h-179l-208 367h-107v-367h-170v858zM684 805h152q36 0 66.5 4t53 16.5t35.5 36t13 62.5q0 34 -16.5 55t-42.5 32.5t-57.5 15t-60.5 3.5h-143v-225z" />
    <glyph glyph-name="macron" unicode="&#xaf;" horiz-adv-x="530" 
d="M-117 1415h764v-153h-764v153z" />
    <glyph glyph-name="degree" unicode="&#xb0;" horiz-adv-x="819" 
d="M106 1159q0 63 24 118t65 96.5t96.5 65t118.5 23.5t118 -23.5t96.5 -65t65 -96.5t23.5 -118t-23.5 -118t-65 -96.5t-96.5 -65t-118 -23.5t-118.5 23.5t-96.5 65t-65 96.5t-24 118zM240 1159q0 -37 14 -69.5t38 -57t54.5 -39t63.5 -14.5t63.5 14.5t54.5 39t38 57t14 69.5
t-14 69.5t-38 57t-54.5 39t-63.5 14.5t-63.5 -14.5t-54.5 -39t-38 -57t-14 -69.5z" />
    <glyph glyph-name="plusminus" unicode="&#xb1;" horiz-adv-x="1229" 
d="M725 768h408v-219h-408v-268h-219v268h-408v219h408v268h219v-268zM98 219h1035v-219h-1035v219z" />
    <glyph glyph-name="twosuperior" unicode="&#xb2;" horiz-adv-x="803" 
d="M57 1106q-1 79 21.5 144.5t68.5 112.5t116 73t165 26q64 0 122 -17.5t102 -52t70 -86.5t26 -120q0 -48 -13 -86.5t-35.5 -70t-53 -57t-64.5 -48.5q-35 -23 -72 -44t-72.5 -44t-68 -50.5t-58.5 -62.5h428v-164h-684q1 81 23.5 140t61 104.5t90.5 82.5t112 75
q31 20 65 40.5t63.5 45t48.5 54.5t20 70q0 27 -9 50t-25.5 40.5t-39.5 27t-51 9.5q-43 0 -72 -18.5t-46.5 -47t-24.5 -62t-5 -64.5h-209z" />
    <glyph glyph-name="threesuperior" unicode="&#xb3;" horiz-adv-x="803" 
d="M336 1094q29 0 63 1.5t63 10.5t48.5 28.5t19.5 55.5q0 25 -10.5 45t-28 34t-40.5 21.5t-48 7.5q-33 0 -59 -11.5t-43.5 -31.5t-26.5 -46.5t-8 -57.5h-196q2 71 25.5 128.5t66.5 98t103 62.5t136 22q61 0 119.5 -16t104.5 -47.5t74 -78.5t28 -110q0 -31 -8.5 -59
t-25.5 -51t-42 -40t-59 -26v-4q38 -7 69 -24.5t52.5 -43t33 -57.5t11.5 -67q0 -74 -28.5 -129.5t-77.5 -93t-113 -56t-136 -18.5q-83 0 -150 21t-113.5 62.5t-71.5 102.5t-23 141h197q1 -33 11.5 -62.5t30 -52t48.5 -35.5t67 -13q31 0 58 9.5t47.5 26.5t32.5 40.5t12 52.5
q0 43 -21 67t-52.5 34.5t-69 12.5t-70.5 2v144z" />
    <glyph glyph-name="acute" unicode="&#xb4;" horiz-adv-x="530" 
d="M313 1190h-202l196 291h322z" />
    <glyph glyph-name="mu" unicode="&#xb5;" horiz-adv-x="1214" 
d="M1104 0h-277v147h-6q-27 -44 -63 -77t-72.5 -55t-71 -33t-59.5 -11q-62 0 -98.5 14.5t-55.5 34.5v-393h-290v1432h290v-598q0 -131 43 -195.5t144 -64.5q59 0 101.5 17t70 54t40.5 94t13 138v555h291v-1059z" />
    <glyph glyph-name="paragraph" unicode="&#xb6;" horiz-adv-x="1270" 
d="M453 731q-107 0 -190.5 25.5t-141 72.5t-87.5 113t-30 148q0 107 37 178.5t102.5 114.5t155.5 61t197 18h600v-1802h-209v1638h-225v-1638h-209v1071z" />
    <glyph glyph-name="periodcentered" unicode="&#xb7;" horiz-adv-x="569" 
d="M113 588q0 36 14 67.5t38 55.5t55.5 37.5t66.5 13.5q34 0 65.5 -14t55 -38t37.5 -55.5t14 -66.5q0 -32 -14 -63t-37.5 -55t-54 -39t-64.5 -15q-36 0 -68 13.5t-56 37t-38 55t-14 66.5z" />
    <glyph glyph-name="cedilla" unicode="&#xb8;" horiz-adv-x="530" 
d="M68 -303q32 -14 75.5 -25.5t96.5 -11.5q37 0 59.5 16.5t22.5 53.5q0 38 -24 51.5t-58 13.5q-22 0 -43.5 -4t-38.5 -10l-43 49l121 174h100l-80 -113h4q19 11 70 11q34 0 68 -8.5t60.5 -26t43 -44.5t16.5 -65q0 -60 -20.5 -99t-54 -62.5t-76.5 -33t-88 -9.5q-48 0 -83 3
t-63.5 9t-53.5 14.5t-54 18.5z" />
    <glyph glyph-name="onesuperior" unicode="&#xb9;" horiz-adv-x="803" 
d="M592 559h-209v561h-225v154q49 -2 93.5 6t79.5 28t58.5 53.5t30.5 82.5h172v-885z" />
    <glyph glyph-name="ordmasculine" unicode="&#xba;" horiz-adv-x="752" 
d="M25 1114q0 81 25 145.5t71 109.5t110.5 69t143.5 24q80 0 145 -24t111 -69t71 -109.5t25 -145.5t-25 -145t-71 -108.5t-111 -68.5t-145 -24q-79 0 -143.5 24t-110.5 68.5t-71 108.5t-25 145zM244 1114q0 -34 7.5 -68t23.5 -61.5t40.5 -45t59.5 -17.5t60.5 17.5t41.5 45
t23.5 61.5t7.5 68q0 35 -7.5 70t-23.5 62.5t-41.5 45t-60.5 17.5t-59.5 -17.5t-40.5 -45t-23.5 -62.5t-7.5 -70z" />
    <glyph glyph-name="guillemotright" unicode="&#xbb;" horiz-adv-x="909" 
d="M823 696v-276l-321 -256v246l184 147l-184 145v246zM408 696v-276l-322 -256v246l184 147l-184 145v246z" />
    <glyph glyph-name="onequarter" unicode="&#xbc;" horiz-adv-x="1827" 
d="M1411 182h-393v191l385 487h205v-514h116v-164h-116v-182h-197v182zM1411 641h-4l-233 -295h237v295zM1159 1479h174l-844 -1524h-178zM483 559h-209v561h-225v154q49 -2 93.5 6t80 28t58.5 53.5t30 82.5h172v-885z" />
    <glyph glyph-name="onehalf" unicode="&#xbd;" horiz-adv-x="1821" 
d="M1159 1479h174l-844 -1524h-178zM483 559h-209v561h-225v154q49 -2 93.5 6t80 28t58.5 53.5t30 82.5h172v-885zM1042 547q-1 79 21.5 144.5t68.5 112.5t116 73t165 26q64 0 122 -17.5t102 -52t70 -86.5t26 -120q0 -48 -13 -86.5t-35.5 -70t-53 -57t-64.5 -48.5
q-35 -23 -71.5 -44t-72 -44t-68.5 -50.5t-59 -62.5h428v-164h-684q1 81 23.5 140t61 104.5t90.5 82t112 74.5q31 20 65 40.5t63.5 45.5t48.5 55t20 70q0 54 -34 90.5t-91 36.5q-43 0 -72 -18.5t-46.5 -47t-24.5 -62t-5 -64.5h-209z" />
    <glyph glyph-name="threequarters" unicode="&#xbe;" horiz-adv-x="1821" 
d="M1452 182h-393v191l385 487h205v-514h116v-164h-116v-182h-197v182zM1452 641h-4l-234 -295h238v295zM1337 1479h174l-843 -1524h-179zM371 1094q29 0 63 1.5t63 10.5t48.5 28.5t19.5 55.5q0 25 -10.5 45t-28 34t-40.5 21.5t-48 7.5q-33 0 -59 -11.5t-43.5 -31.5
t-26.5 -46.5t-8 -57.5h-197q3 71 26.5 128.5t66 98t103 62.5t136.5 22q61 0 119.5 -16t104.5 -47.5t74 -78.5t28 -110q0 -31 -8.5 -59t-25.5 -51t-42 -40t-59 -26v-4q38 -7 69 -24.5t52.5 -43t33 -57.5t11.5 -67q0 -74 -28.5 -129.5t-77.5 -93t-113 -56t-136 -18.5
q-83 0 -150 21t-113.5 62.5t-71.5 102.5t-23 141h196q2 -33 12.5 -62.5t30 -52t48.5 -35.5t67 -13q31 0 58 9.5t47.5 26.5t32.5 40.5t12 52.5q0 43 -21 67t-52.5 34.5t-69 12.5t-70.5 2v144z" />
    <glyph glyph-name="questiondown" unicode="&#xbf;" horiz-adv-x="1139" 
d="M1069 104q-2 -110 -38 -202.5t-100.5 -159.5t-154.5 -105t-201 -38q-97 0 -172 18.5t-132 49t-96 70.5t-63 84t-35 88.5t-11 84.5q0 75 14.5 128.5t38.5 93.5t55 69t64 55q33 25 66 48.5t60.5 51t47 61.5t26.5 79v77h277v-92q-5 -67 -22 -116.5t-41.5 -87t-54.5 -65.5
t-60 -52t-57 -46t-48 -47t-33 -56t-12 -72q0 -94 46.5 -139.5t127.5 -45.5q54 0 93 21t64 57.5t37 85t13 102.5h301zM743 772h-321v315h321v-315z" />
    <glyph glyph-name=".notdef.106" unicode="&#xc0;" horiz-adv-x="1403" 
d="M541 1462h329l547 -1462h-334l-110 326h-547l-115 -326h-325zM510 565h379l-184 537h-5zM338 1884h321l197 -291h-203z" />
    <glyph glyph-name=".notdef.107" unicode="&#xc1;" horiz-adv-x="1403" 
d="M541 1462h329l547 -1462h-334l-110 326h-547l-115 -326h-325zM510 565h379l-184 537h-5zM750 1593h-203l196 291h322z" />
    <glyph glyph-name=".notdef.111" unicode="&#xc2;" horiz-adv-x="1403" 
d="M541 1462h329l547 -1462h-334l-110 326h-547l-115 -326h-325zM510 565h379l-184 537h-5zM569 1884h267l225 -291h-240l-127 166l-131 -166h-221z" />
    <glyph glyph-name=".notdef.109" unicode="&#xc3;" horiz-adv-x="1403" 
d="M541 1462h329l547 -1462h-334l-110 326h-547l-115 -326h-325zM510 565h379l-184 537h-5zM1077 1866q-11 -35 -24.5 -76t-38.5 -76t-64 -58.5t-102 -23.5q-47 0 -88.5 11.5t-79.5 23.5q-38 14 -73 24.5t-70 10.5q-42 0 -59.5 -24t-26.5 -62h-125q10 45 26 89.5t45 80
t74 58t113 22.5q35 0 67 -11.5t64 -23.5q32 -14 66 -25.5t69 -11.5q46 0 67 21.5t19 50.5h141z" />
    <glyph glyph-name="Adieresis" unicode="&#xc4;" horiz-adv-x="1403" 
d="M541 1462h329l547 -1462h-334l-110 326h-547l-115 -326h-325zM510 565h379l-184 537h-5zM774 1866h277v-240h-277v240zM352 1866h277v-240h-277v240z" />
    <glyph glyph-name="Aring" unicode="&#xc5;" horiz-adv-x="1403" 
d="M541 1462h329l547 -1462h-334l-110 326h-547l-115 -326h-325zM510 565h379l-184 537h-5zM571 1747q0 -30 9.5 -56t26.5 -45.5t40.5 -30.5t52.5 -11t53 11t41.5 30.5t27 45.5t9.5 56t-9.5 56t-27 45.5t-41.5 30.5t-53 11t-52.5 -11t-40.5 -30.5t-26.5 -45.5t-9.5 -56z
M451 1747q0 51 19.5 96.5t53.5 79.5t79.5 54t96.5 20q52 0 98 -20t80.5 -54t54 -79.5t19.5 -96.5t-19.5 -96.5t-54 -79.5t-80.5 -54t-98 -20q-51 0 -96.5 20t-79.5 54t-53.5 79.5t-19.5 96.5z" />
    <glyph glyph-name="AE" unicode="&#xc6;" horiz-adv-x="2009" 
d="M573 565h353v627h-70zM676 1462h1241v-270h-680v-313h639v-250h-639v-359h696v-270h-1007v326h-459l-148 -326h-342z" />
    <glyph glyph-name="Ccedilla" unicode="&#xc7;" horiz-adv-x="1518" 
d="M1116 971q-8 54 -36 101t-71 81.5t-97.5 54t-114.5 19.5q-108 0 -184 -42.5t-123.5 -112.5t-69 -160.5t-21.5 -186.5q0 -92 21.5 -179.5t69 -156.5t123.5 -111t184 -42q73 0 131 24t99 67.5t66.5 103.5t34.5 132h312q-12 -136 -63 -245.5t-134 -187.5t-195 -121t-245 -44
l-53 -74h4q19 11 69 11q34 0 68 -8.5t61 -26t43.5 -44.5t16.5 -65q0 -60 -20.5 -99t-54 -62.5t-77 -33t-88.5 -9.5q-48 0 -83 3t-63 9t-53.5 14.5t-54.5 18.5l43 98q32 -14 76 -25.5t96 -11.5q37 0 59.5 16.5t22.5 53.5q0 38 -24 51.5t-58 13.5q-21 0 -43 -4t-39 -10l-43 49
l99 141q-149 15 -266 79.5t-197.5 165.5t-123 231.5t-42.5 277.5q0 163 48.5 304t141 245t226 163.5t303.5 59.5q120 0 228.5 -34.5t193 -101.5t139.5 -165t69 -225h-311z" />
    <glyph glyph-name=".notdef.123" unicode="&#xc8;" horiz-adv-x="1327" 
d="M141 1462h1094v-270h-772v-313h708v-250h-708v-359h788v-270h-1110v1462zM301 1884h322l196 -291h-203z" />
    <glyph glyph-name=".notdef.124" unicode="&#xc9;" horiz-adv-x="1327" 
d="M141 1462h1094v-270h-772v-313h708v-250h-708v-359h788v-270h-1110v1462zM713 1593h-203l197 291h321z" />
    <glyph glyph-name=".notdef.128" unicode="&#xca;" horiz-adv-x="1327" 
d="M141 1462h1094v-270h-772v-313h708v-250h-708v-359h788v-270h-1110v1462zM532 1884h267l225 -291h-240l-127 166l-131 -166h-221z" />
    <glyph glyph-name="Edieresis" unicode="&#xcb;" horiz-adv-x="1327" 
d="M141 1462h1094v-270h-772v-313h708v-250h-708v-359h788v-270h-1110v1462zM737 1866h277v-240h-277v240zM315 1866h277v-240h-277v240z" />
    <glyph glyph-name=".notdef.104" unicode="&#xcc;" horiz-adv-x="604" 
d="M141 1462h322v-1462h-322v1462zM-61 1884h321l197 -291h-203z" />
    <glyph glyph-name=".notdef.103" unicode="&#xcd;" horiz-adv-x="604" 
d="M141 1462h322v-1462h-322v1462zM350 1593h-203l197 291h322z" />
    <glyph glyph-name="Icircumflex" unicode="&#xce;" horiz-adv-x="604" 
d="M141 1462h322v-1462h-322v1462zM170 1884h266l226 -291h-240l-127 166l-131 -166h-221z" />
    <glyph glyph-name="Idieresis" unicode="&#xcf;" horiz-adv-x="604" 
d="M141 1462h322v-1462h-322v1462zM375 1866h276v-240h-276v240zM-47 1866h276v-240h-276v240z" />
    <glyph glyph-name="Eth" unicode="&#xd0;" horiz-adv-x="1518" 
d="M141 637h-135v237h135v588h631q142 0 263.5 -44.5t210.5 -134.5t139.5 -226t50.5 -318q0 -159 -41 -294.5t-123.5 -234t-207 -154.5t-292.5 -56h-631v637zM463 874h328v-239h-328v-365h287q70 0 135.5 23t116.5 75t81.5 135.5t30.5 205.5q0 111 -21 200t-70 152t-130 97
t-201 34h-229v-318z" />
    <glyph glyph-name="Ntilde" unicode="&#xd1;" horiz-adv-x="1518" 
d="M141 1462h320l610 -981h4v981h301v-1462h-321l-609 979h-4v-979h-301v1462zM1135 1866q-11 -35 -25 -76t-39 -76t-64 -58.5t-102 -23.5q-46 0 -88 11.5t-80 23.5q-38 14 -73 24.5t-70 10.5q-41 0 -59 -24t-27 -62h-125q10 45 26.5 89.5t45.5 80t73.5 58t112.5 22.5
q35 0 67 -11.5t64 -23.5q32 -14 66 -25.5t69 -11.5q47 0 67.5 21.5t18.5 50.5h142z" />
    <glyph glyph-name=".notdef.099" unicode="&#xd2;" horiz-adv-x="1593" 
d="M78 725q0 163 48.5 304t141 245t226 163.5t303.5 59.5q169 0 303 -59.5t226 -163.5t141 -245t49 -304q0 -158 -49 -296.5t-141 -241.5t-226 -162.5t-303 -59.5q-170 0 -303.5 59.5t-226 162.5t-141 241.5t-48.5 296.5zM399 725q0 -92 21.5 -179.5t69 -156.5t123.5 -111
t184 -42t183.5 42t123 111t69 156.5t21.5 179.5q0 96 -21.5 186.5t-69 160.5t-123 112.5t-183.5 42.5t-184 -42.5t-123.5 -112.5t-69 -160.5t-21.5 -186.5zM434 1884h322l196 -291h-202z" />
    <glyph glyph-name=".notdef.098" unicode="&#xd3;" horiz-adv-x="1593" 
d="M78 725q0 163 48.5 304t141 245t226 163.5t303.5 59.5q169 0 303 -59.5t226 -163.5t141 -245t49 -304q0 -158 -49 -296.5t-141 -241.5t-226 -162.5t-303 -59.5q-170 0 -303.5 59.5t-226 162.5t-141 241.5t-48.5 296.5zM399 725q0 -92 21.5 -179.5t69 -156.5t123.5 -111
t184 -42t183.5 42t123 111t69 156.5t21.5 179.5q0 96 -21.5 186.5t-69 160.5t-123 112.5t-183.5 42.5t-184 -42.5t-123.5 -112.5t-69 -160.5t-21.5 -186.5zM846 1593h-203l197 291h321z" />
    <glyph glyph-name=".notdef.094" unicode="&#xd4;" horiz-adv-x="1593" 
d="M78 725q0 163 48.5 304t141 245t226 163.5t303.5 59.5q169 0 303 -59.5t226 -163.5t141 -245t49 -304q0 -158 -49 -296.5t-141 -241.5t-226 -162.5t-303 -59.5q-170 0 -303.5 59.5t-226 162.5t-141 241.5t-48.5 296.5zM399 725q0 -92 21.5 -179.5t69 -156.5t123.5 -111
t184 -42t183.5 42t123 111t69 156.5t21.5 179.5q0 96 -21.5 186.5t-69 160.5t-123 112.5t-183.5 42.5t-184 -42.5t-123.5 -112.5t-69 -160.5t-21.5 -186.5zM666 1884h266l225 -291h-239l-127 166l-132 -166h-221z" />
    <glyph glyph-name=".notdef.096" unicode="&#xd5;" horiz-adv-x="1593" 
d="M78 725q0 163 48.5 304t141 245t226 163.5t303.5 59.5q169 0 303 -59.5t226 -163.5t141 -245t49 -304q0 -158 -49 -296.5t-141 -241.5t-226 -162.5t-303 -59.5q-170 0 -303.5 59.5t-226 162.5t-141 241.5t-48.5 296.5zM399 725q0 -92 21.5 -179.5t69 -156.5t123.5 -111
t184 -42t183.5 42t123 111t69 156.5t21.5 179.5q0 96 -21.5 186.5t-69 160.5t-123 112.5t-183.5 42.5t-184 -42.5t-123.5 -112.5t-69 -160.5t-21.5 -186.5zM1174 1866q-11 -35 -25 -76t-39 -76t-64 -58.5t-102 -23.5q-46 0 -88 11.5t-80 23.5q-38 14 -73 24.5t-70 10.5
q-41 0 -59 -24t-27 -62h-125q10 45 26.5 89.5t45.5 80t73.5 58t112.5 22.5q35 0 67 -11.5t64 -23.5q32 -14 66 -25.5t69 -11.5q47 0 67.5 21.5t18.5 50.5h142z" />
    <glyph glyph-name="Odieresis" unicode="&#xd6;" horiz-adv-x="1593" 
d="M78 725q0 163 48.5 304t141 245t226 163.5t303.5 59.5q169 0 303 -59.5t226 -163.5t141 -245t49 -304q0 -158 -49 -296.5t-141 -241.5t-226 -162.5t-303 -59.5q-170 0 -303.5 59.5t-226 162.5t-141 241.5t-48.5 296.5zM399 725q0 -92 21.5 -179.5t69 -156.5t123.5 -111
t184 -42t183.5 42t123 111t69 156.5t21.5 179.5q0 96 -21.5 186.5t-69 160.5t-123 112.5t-183.5 42.5t-184 -42.5t-123.5 -112.5t-69 -160.5t-21.5 -186.5zM870 1866h277v-240h-277v240zM449 1866h276v-240h-276v240z" />
    <glyph glyph-name="multiply" unicode="&#xd7;" horiz-adv-x="1229" 
d="M131 190l330 328l-326 328l156 155l325 -327l328 327l156 -155l-330 -328l330 -328l-156 -155l-328 330l-329 -330z" />
    <glyph glyph-name="Oslash" unicode="&#xd8;" horiz-adv-x="1593" 
d="M246 215q-84 102 -126 231.5t-42 278.5q0 163 48.5 304t141 245t226 163.5t303.5 59.5q142 0 257 -41t203 -117l164 183l103 -90l-172 -191q80 -102 122 -233t42 -283q0 -158 -49 -296.5t-141 -241.5t-226 -162.5t-303 -59.5q-143 0 -257.5 42t-199.5 114l-170 -189
l-100 88zM1063 1122q-47 48 -112.5 76.5t-153.5 28.5q-108 0 -184 -42.5t-123.5 -112.5t-69 -160.5t-21.5 -186.5q0 -72 13.5 -142.5t44.5 -133.5zM535 336q46 -47 110.5 -73.5t151.5 -26.5q108 0 183.5 42t123 111t69 156.5t21.5 179.5q0 74 -13 145t-42 134z" />
    <glyph glyph-name=".notdef.088" unicode="&#xd9;" horiz-adv-x="1518" 
d="M1382 553q0 -148 -42.5 -258.5t-123 -183.5t-196 -109.5t-262.5 -36.5t-263 36t-196 109t-122 183.5t-42 259.5v909h322v-909q0 -60 10.5 -117t42.5 -101.5t91 -71.5t157 -27q86 0 144 19t93.5 58t50.5 99t15 141v909h321v-909zM395 1884h322l196 -291h-202z" />
    <glyph glyph-name=".notdef.087" unicode="&#xda;" horiz-adv-x="1518" 
d="M1382 553q0 -148 -42.5 -258.5t-123 -183.5t-196 -109.5t-262.5 -36.5t-263 36t-196 109t-122 183.5t-42 259.5v909h322v-909q0 -60 10.5 -117t42.5 -101.5t91 -71.5t157 -27q86 0 144 19t93.5 58t50.5 99t15 141v909h321v-909zM807 1593h-203l197 291h321z" />
    <glyph glyph-name="Ucircumflex" unicode="&#xdb;" horiz-adv-x="1518" 
d="M1382 553q0 -148 -42.5 -258.5t-123 -183.5t-196 -109.5t-262.5 -36.5t-263 36t-196 109t-122 183.5t-42 259.5v909h322v-909q0 -60 10.5 -117t42.5 -101.5t91 -71.5t157 -27q86 0 144 19t93.5 58t50.5 99t15 141v909h321v-909zM627 1884h266l225 -291h-239l-127 166
l-131 -166h-222z" />
    <glyph glyph-name="Udieresis" unicode="&#xdc;" horiz-adv-x="1518" 
d="M1382 553q0 -148 -42.5 -258.5t-123 -183.5t-196 -109.5t-262.5 -36.5t-263 36t-196 109t-122 183.5t-42 259.5v909h322v-909q0 -60 10.5 -117t42.5 -101.5t91 -71.5t157 -27q86 0 144 19t93.5 58t50.5 99t15 141v909h321v-909zM831 1866h277v-240h-277v240zM410 1866
h276v-240h-276v240z" />
    <glyph glyph-name=".notdef.070" unicode="&#xdd;" horiz-adv-x="1366" 
d="M520 569l-538 893h362l342 -577l340 577h358l-542 -901v-561h-322v569zM731 1593h-203l197 291h322z" />
    <glyph glyph-name="Thorn" unicode="&#xde;" horiz-adv-x="1366" 
d="M141 1462h322v-198h338q136 0 232.5 -40t157 -105.5t88.5 -150t28 -173.5t-28 -173.5t-88.5 -150t-157 -105.5t-232.5 -40h-338v-326h-322v1462zM463 575h250q56 0 107 8t90 32t62 67t23 113t-23 113t-62 66.5t-90 31.5t-107 8h-250v-439z" />
    <glyph glyph-name="germandbls" unicode="&#xdf;" horiz-adv-x="1251" 
d="M115 1006q-1 57 6.5 116t27 113.5t53.5 102t87.5 83t129 56t177.5 20.5q91 0 175.5 -23.5t148.5 -72t102.5 -122.5t38.5 -175q0 -48 -13.5 -93.5t-38.5 -83.5t-60.5 -66.5t-78.5 -41.5v-4q67 -15 117 -49t83.5 -82.5t50 -108.5t16.5 -126q0 -95 -33 -181.5t-92 -152.5
t-141 -105t-179 -39q-42 0 -84 3t-84 10v237q20 -6 41.5 -8t42.5 -2q52 0 96 19.5t75.5 53t49 79t17.5 96.5q0 54 -15 100t-45.5 79.5t-78 52t-111.5 18.5q-17 0 -35 -1t-37 -3v192q13 -2 23.5 -3t21.5 -1q42 0 80.5 10.5t68.5 33t48 56.5t18 82q0 64 -22 100.5t-53 54.5
t-64.5 22.5t-56.5 4.5q-88 0 -135 -54.5t-47 -145.5v-1057h-291v1006z" />
    <glyph glyph-name=".notdef.066" unicode="&#xe0;" 
d="M770 518q-18 -16 -45.5 -25.5t-60 -15.5t-67.5 -10t-69 -10q-34 -7 -65 -17.5t-55 -27.5t-38 -44t-14 -67q0 -41 14.5 -67t39.5 -41t57 -21t68 -6q57 0 96.5 13.5t65.5 35.5t40.5 49t22 54t9 51.5t1.5 40.5v108zM98 733q6 102 51.5 170.5t115 109t156 57.5t175.5 17
q53 0 108 -4.5t106.5 -17t97 -34t79.5 -55t54 -80.5t20 -110v-550q0 -36 2 -71.5t6.5 -66.5t11.5 -56.5t17 -41.5h-295q-8 25 -13.5 50.5t-7.5 51.5q-35 -36 -76.5 -61t-87.5 -40.5t-95 -22.5t-97 -7q-75 0 -141 19t-114.5 58.5t-76.5 99.5t-28 141q0 90 31 148t81.5 93.5
t115 53t132.5 26.5q67 10 129 16.5t110 19t76.5 36t28.5 68.5q0 46 -15 74.5t-40.5 43.5t-60 20t-72.5 5q-83 0 -134.5 -37t-58.5 -123h-291zM225 1481h322l196 -291h-202z" />
    <glyph glyph-name=".notdef.065" unicode="&#xe1;" 
d="M770 518q-18 -16 -45.5 -25.5t-60 -15.5t-67.5 -10t-69 -10q-34 -7 -65 -17.5t-55 -27.5t-38 -44t-14 -67q0 -41 14.5 -67t39.5 -41t57 -21t68 -6q57 0 96.5 13.5t65.5 35.5t40.5 49t22 54t9 51.5t1.5 40.5v108zM98 733q6 102 51.5 170.5t115 109t156 57.5t175.5 17
q53 0 108 -4.5t106.5 -17t97 -34t79.5 -55t54 -80.5t20 -110v-550q0 -36 2 -71.5t6.5 -66.5t11.5 -56.5t17 -41.5h-295q-8 25 -13.5 50.5t-7.5 51.5q-35 -36 -76.5 -61t-87.5 -40.5t-95 -22.5t-97 -7q-75 0 -141 19t-114.5 58.5t-76.5 99.5t-28 141q0 90 31 148t81.5 93.5
t115 53t132.5 26.5q67 10 129 16.5t110 19t76.5 36t28.5 68.5q0 46 -15 74.5t-40.5 43.5t-60 20t-72.5 5q-83 0 -134.5 -37t-58.5 -123h-291zM637 1190h-203l197 291h321z" />
    <glyph glyph-name=".notdef.061" unicode="&#xe2;" 
d="M770 518q-18 -16 -45.5 -25.5t-60 -15.5t-67.5 -10t-69 -10q-34 -7 -65 -17.5t-55 -27.5t-38 -44t-14 -67q0 -41 14.5 -67t39.5 -41t57 -21t68 -6q57 0 96.5 13.5t65.5 35.5t40.5 49t22 54t9 51.5t1.5 40.5v108zM98 733q6 102 51.5 170.5t115 109t156 57.5t175.5 17
q53 0 108 -4.5t106.5 -17t97 -34t79.5 -55t54 -80.5t20 -110v-550q0 -36 2 -71.5t6.5 -66.5t11.5 -56.5t17 -41.5h-295q-8 25 -13.5 50.5t-7.5 51.5q-35 -36 -76.5 -61t-87.5 -40.5t-95 -22.5t-97 -7q-75 0 -141 19t-114.5 58.5t-76.5 99.5t-28 141q0 90 31 148t81.5 93.5
t115 53t132.5 26.5q67 10 129 16.5t110 19t76.5 36t28.5 68.5q0 46 -15 74.5t-40.5 43.5t-60 20t-72.5 5q-83 0 -134.5 -37t-58.5 -123h-291zM457 1481h266l225 -291h-239l-127 166l-131 -166h-222z" />
    <glyph glyph-name=".notdef.063" unicode="&#xe3;" 
d="M770 518q-18 -16 -45.5 -25.5t-60 -15.5t-67.5 -10t-69 -10q-34 -7 -65 -17.5t-55 -27.5t-38 -44t-14 -67q0 -41 14.5 -67t39.5 -41t57 -21t68 -6q57 0 96.5 13.5t65.5 35.5t40.5 49t22 54t9 51.5t1.5 40.5v108zM98 733q6 102 51.5 170.5t115 109t156 57.5t175.5 17
q53 0 108 -4.5t106.5 -17t97 -34t79.5 -55t54 -80.5t20 -110v-550q0 -36 2 -71.5t6.5 -66.5t11.5 -56.5t17 -41.5h-295q-8 25 -13.5 50.5t-7.5 51.5q-35 -36 -76.5 -61t-87.5 -40.5t-95 -22.5t-97 -7q-75 0 -141 19t-114.5 58.5t-76.5 99.5t-28 141q0 90 31 148t81.5 93.5
t115 53t132.5 26.5q67 10 129 16.5t110 19t76.5 36t28.5 68.5q0 46 -15 74.5t-40.5 43.5t-60 20t-72.5 5q-83 0 -134.5 -37t-58.5 -123h-291zM965 1462q-11 -35 -25 -75.5t-39 -75.5t-64 -58.5t-102 -23.5q-46 0 -88 11t-80 24q-38 14 -73 24t-70 10q-41 0 -59 -23.5
t-27 -62.5h-125q10 45 26.5 89.5t45.5 80t73.5 58t112.5 22.5q35 0 67 -11t64 -24q32 -14 66 -25t69 -11q47 0 67.5 21t18.5 50h142z" />
    <glyph glyph-name="adieresis" unicode="&#xe4;" 
d="M770 518q-18 -16 -45.5 -25.5t-60 -15.5t-67.5 -10t-69 -10q-34 -7 -65 -17.5t-55 -27.5t-38 -44t-14 -67q0 -41 14.5 -67t39.5 -41t57 -21t68 -6q57 0 96.5 13.5t65.5 35.5t40.5 49t22 54t9 51.5t1.5 40.5v108zM98 733q6 102 51.5 170.5t115 109t156 57.5t175.5 17
q53 0 108 -4.5t106.5 -17t97 -34t79.5 -55t54 -80.5t20 -110v-550q0 -36 2 -71.5t6.5 -66.5t11.5 -56.5t17 -41.5h-295q-8 25 -13.5 50.5t-7.5 51.5q-35 -36 -76.5 -61t-87.5 -40.5t-95 -22.5t-97 -7q-75 0 -141 19t-114.5 58.5t-76.5 99.5t-28 141q0 90 31 148t81.5 93.5
t115 53t132.5 26.5q67 10 129 16.5t110 19t76.5 36t28.5 68.5q0 46 -15 74.5t-40.5 43.5t-60 20t-72.5 5q-83 0 -134.5 -37t-58.5 -123h-291zM662 1462h276v-239h-276v239zM240 1462h276v-239h-276v239z" />
    <glyph glyph-name="aring" unicode="&#xe5;" 
d="M770 518q-18 -16 -45.5 -25.5t-60 -15.5t-67.5 -10t-69 -10q-34 -7 -65 -17.5t-55 -27.5t-38 -44t-14 -67q0 -41 14.5 -67t39.5 -41t57 -21t68 -6q57 0 96.5 13.5t65.5 35.5t40.5 49t22 54t9 51.5t1.5 40.5v108zM98 733q6 102 51.5 170.5t115 109t156 57.5t175.5 17
q53 0 108 -4.5t106.5 -17t97 -34t79.5 -55t54 -80.5t20 -110v-550q0 -36 2 -71.5t6.5 -66.5t11.5 -56.5t17 -41.5h-295q-8 25 -13.5 50.5t-7.5 51.5q-35 -36 -76.5 -61t-87.5 -40.5t-95 -22.5t-97 -7q-75 0 -141 19t-114.5 58.5t-76.5 99.5t-28 141q0 90 31 148t81.5 93.5
t115 53t132.5 26.5q67 10 129 16.5t110 19t76.5 36t28.5 68.5q0 46 -15 74.5t-40.5 43.5t-60 20t-72.5 5q-83 0 -134.5 -37t-58.5 -123h-291zM459 1343q0 -30 9 -56t26 -45.5t41 -30.5t53 -11t53 11t41.5 30.5t27 45.5t9.5 56t-9.5 56t-27 45.5t-41.5 31t-53 11.5t-53 -11.5
t-41 -31t-26 -45.5t-9 -56zM338 1343q0 52 20 97.5t54 79.5t79.5 53.5t96.5 19.5q52 0 98 -19.5t80 -53.5t54 -79.5t20 -97.5q0 -51 -20 -96.5t-54 -79.5t-80 -53.5t-98 -19.5q-51 0 -96.5 19.5t-79.5 53.5t-54 79.5t-20 96.5z" />
    <glyph glyph-name="ae" unicode="&#xe6;" horiz-adv-x="1858" 
d="M788 516q-21 -17 -49.5 -27t-61.5 -16.5t-68.5 -11t-69.5 -10.5q-32 -6 -62.5 -15.5t-54.5 -26t-38.5 -42t-14.5 -64.5q0 -40 15.5 -66.5t41 -42t58 -22t65.5 -6.5q40 0 82 12.5t77 38.5t57.5 67.5t22.5 100.5v131zM1042 459q-2 -53 15 -105t49.5 -94t80 -68t107.5 -26
q96 0 146.5 43.5t64.5 122.5h283q-21 -85 -68 -152t-111.5 -113.5t-143.5 -71t-165 -24.5q-57 0 -113 10t-107.5 32t-96 56.5t-78.5 82.5q-37 -48 -87 -82.5t-107 -56.5t-118 -32t-120 -10q-75 0 -146.5 16.5t-126.5 54t-88.5 97.5t-33.5 148q0 90 30.5 148.5t80.5 94
t113.5 53t129.5 27.5q93 14 160 23.5t110.5 23.5t64.5 37t21 64t-16 67.5t-42.5 41.5t-60.5 20.5t-69 5.5q-42 0 -78 -8.5t-63.5 -27.5t-44 -50.5t-17.5 -77.5h-291q4 100 48 168.5t113.5 110.5t157.5 60.5t181 18.5q46 0 96 -6.5t97.5 -23t88.5 -44t68 -69.5
q61 72 145 107.5t210 35.5q88 0 158.5 -23.5t125 -66t93 -101t63 -128.5t36 -148.5t11.5 -160.5h-756zM1507 643q1 48 -14 93.5t-44.5 80t-72 55.5t-96.5 21q-56 0 -100 -21t-74.5 -55.5t-46.5 -80t-17 -93.5h465z" />
    <glyph glyph-name="ccedilla" unicode="&#xe7;" 
d="M831 686q-14 90 -69 136t-146 46q-70 0 -117 -32t-76 -81.5t-41.5 -111t-12.5 -119.5q0 -57 12 -116t40 -107.5t74.5 -79.5t114.5 -31q51 0 90.5 15.5t69 44t47.5 68t25 88.5h280q-13 -102 -53 -181.5t-103 -134t-146 -84.5t-183 -33l-57 -82h4q19 11 69 11q34 0 68 -8.5
t61 -26t43.5 -44.5t16.5 -65q0 -60 -20.5 -99t-54 -62.5t-77 -33t-88.5 -9.5q-48 0 -83 3t-63 9t-53.5 14.5t-54.5 18.5l43 98q32 -14 76 -25.5t96 -11.5q37 0 59.5 16.5t22.5 53.5q0 38 -24 51.5t-58 13.5q-21 0 -43 -4t-39 -10l-43 49l103 147q-105 11 -190 55t-146 114.5
t-94 164t-33 203.5q0 124 36 229t105 181.5t169.5 119.5t229.5 43q94 0 181 -24.5t155 -74.5t111.5 -125.5t50.5 -176.5h-285z" />
    <glyph glyph-name=".notdef.049" unicode="&#xe8;" 
d="M350 459q6 -139 72.5 -204t187.5 -65q44 0 82.5 12.5t69 32t51 44t27.5 49.5h256q-31 -94 -78.5 -161.5t-110.5 -111t-140 -64t-167 -20.5q-125 0 -225.5 41t-170.5 115t-107.5 176t-37.5 225q0 119 39.5 221.5t110.5 177.5t171 117.5t220 42.5q90 0 165 -24t133.5 -66.5
t101.5 -101.5t70 -129t38 -148t6 -159h-764zM823 643q-10 55 -27.5 97.5t-45 70.5t-66.5 42.5t-92 14.5q-69 0 -115 -23.5t-73.5 -58t-40 -73.5t-13.5 -70h473zM225 1481h322l196 -291h-202z" />
    <glyph glyph-name=".notdef.048" unicode="&#xe9;" 
d="M350 459q6 -139 72.5 -204t187.5 -65q44 0 82.5 12.5t69 32t51 44t27.5 49.5h256q-31 -94 -78.5 -161.5t-110.5 -111t-140 -64t-167 -20.5q-125 0 -225.5 41t-170.5 115t-107.5 176t-37.5 225q0 119 39.5 221.5t110.5 177.5t171 117.5t220 42.5q90 0 165 -24t133.5 -66.5
t101.5 -101.5t70 -129t38 -148t6 -159h-764zM823 643q-10 55 -27.5 97.5t-45 70.5t-66.5 42.5t-92 14.5q-69 0 -115 -23.5t-73.5 -58t-40 -73.5t-13.5 -70h473zM637 1190h-203l197 291h321z" />
    <glyph glyph-name=".notdef.044" unicode="&#xea;" 
d="M350 459q6 -139 72.5 -204t187.5 -65q44 0 82.5 12.5t69 32t51 44t27.5 49.5h256q-31 -94 -78.5 -161.5t-110.5 -111t-140 -64t-167 -20.5q-125 0 -225.5 41t-170.5 115t-107.5 176t-37.5 225q0 119 39.5 221.5t110.5 177.5t171 117.5t220 42.5q90 0 165 -24t133.5 -66.5
t101.5 -101.5t70 -129t38 -148t6 -159h-764zM823 643q-10 55 -27.5 97.5t-45 70.5t-66.5 42.5t-92 14.5q-69 0 -115 -23.5t-73.5 -58t-40 -73.5t-13.5 -70h473zM457 1481h266l225 -291h-239l-127 166l-131 -166h-222z" />
    <glyph glyph-name="edieresis" unicode="&#xeb;" 
d="M350 459q6 -139 72.5 -204t187.5 -65q44 0 82.5 12.5t69 32t51 44t27.5 49.5h256q-31 -94 -78.5 -161.5t-110.5 -111t-140 -64t-167 -20.5q-125 0 -225.5 41t-170.5 115t-107.5 176t-37.5 225q0 119 39.5 221.5t110.5 177.5t171 117.5t220 42.5q90 0 165 -24t133.5 -66.5
t101.5 -101.5t70 -129t38 -148t6 -159h-764zM823 643q-10 55 -27.5 97.5t-45 70.5t-66.5 42.5t-92 14.5q-69 0 -115 -23.5t-73.5 -58t-40 -73.5t-13.5 -70h473zM662 1462h276v-239h-276v239zM240 1462h276v-239h-276v239z" />
    <glyph glyph-name=".notdef.038" unicode="&#xec;" horiz-adv-x="528" 
d="M119 1059h291v-1059h-291v1059zM-98 1481h321l197 -291h-203z" />
    <glyph glyph-name=".notdef.037" unicode="&#xed;" horiz-adv-x="528" 
d="M119 1059h291v-1059h-291v1059zM313 1190h-202l196 291h322z" />
    <glyph glyph-name="icircumflex" unicode="&#xee;" horiz-adv-x="528" 
d="M119 1059h291v-1059h-291v1059zM133 1481h266l226 -291h-240l-127 166l-131 -166h-221z" />
    <glyph glyph-name="idieresis" unicode="&#xef;" horiz-adv-x="528" 
d="M119 1059h291v-1059h-291v1059zM338 1462h276v-239h-276v239zM-84 1462h277v-239h-277v239z" />
    <glyph glyph-name="eth" unicode="&#xf0;" horiz-adv-x="1251" 
d="M625 190q74 0 123.5 29t79.5 77t42.5 108.5t12.5 123.5q0 57 -14 113t-45.5 101t-81 72.5t-119.5 27.5q-72 0 -120.5 -28t-78 -73t-42.5 -101t-13 -112q0 -63 12.5 -123.5t42 -108.5t78.5 -77t123 -29zM492 1325q-44 31 -86.5 56.5t-86.5 45.5l189 142q56 -31 106 -64.5
t97 -70.5l252 127l106 -121l-233 -117q81 -78 145 -163t107.5 -179t65.5 -199t20 -223q0 -126 -39 -233.5t-110.5 -186.5t-173 -123.5t-226.5 -44.5t-226 39.5t-172 110.5t-110 169.5t-39 215.5q0 63 12 127t37 122.5t63.5 110t90.5 89t119 59.5t149 22q29 0 62.5 -3.5
t69.5 -12.5t72.5 -25t71.5 -41h4q-18 43 -43.5 81t-53.5 70t-57 59.5t-54 49.5l-230 -114l-119 114z" />
    <glyph glyph-name="ntilde" unicode="&#xf1;" horiz-adv-x="1214" 
d="M111 1059h276v-148h6q28 45 64.5 78t79 54.5t88.5 32.5t92 11q116 0 191 -31.5t118.5 -88.5t60.5 -137.5t17 -178.5v-651h-291v598q0 130 -42.5 195t-143.5 65q-59 0 -102 -17t-70.5 -54t-40.5 -94t-13 -138v-555h-290v1059zM983 1462q-11 -35 -25 -75.5t-38 -75.5
q-25 -35 -64 -58.5t-102 -23.5q-47 0 -88.5 11t-79.5 24q-38 14 -73.5 24t-70.5 10q-41 0 -58.5 -23.5t-27.5 -62.5h-125q10 45 26.5 89.5t45.5 80t73.5 58t112.5 22.5q36 0 68 -11t64 -24q32 -14 66 -25t69 -11q46 0 67 21t19 50h141z" />
    <glyph glyph-name=".notdef.033" unicode="&#xf2;" horiz-adv-x="1251" 
d="M78 528q0 127 39 230t110 176t172 113t226 40t226.5 -40t173 -113t110.5 -176t39 -230q0 -126 -39 -228.5t-110.5 -175.5t-173 -113t-226.5 -40t-226 40t-172 113t-110 175.5t-39 228.5zM369 528q0 -63 12.5 -123.5t42 -108.5t78.5 -77t123 -29t123.5 29t79.5 77
t42.5 108.5t12.5 123.5q0 64 -12.5 125t-42.5 109t-79.5 77t-123.5 29t-123 -29t-78.5 -77t-42 -109t-12.5 -125zM262 1481h322l196 -291h-202z" />
    <glyph glyph-name=".notdef.032" unicode="&#xf3;" horiz-adv-x="1251" 
d="M78 528q0 127 39 230t110 176t172 113t226 40t226.5 -40t173 -113t110.5 -176t39 -230q0 -126 -39 -228.5t-110.5 -175.5t-173 -113t-226.5 -40t-226 40t-172 113t-110 175.5t-39 228.5zM369 528q0 -63 12.5 -123.5t42 -108.5t78.5 -77t123 -29t123.5 29t79.5 77
t42.5 108.5t12.5 123.5q0 64 -12.5 125t-42.5 109t-79.5 77t-123.5 29t-123 -29t-78.5 -77t-42 -109t-12.5 -125zM674 1190h-203l197 291h321z" />
    <glyph glyph-name=".notdef.028" unicode="&#xf4;" horiz-adv-x="1251" 
d="M78 528q0 127 39 230t110 176t172 113t226 40t226.5 -40t173 -113t110.5 -176t39 -230q0 -126 -39 -228.5t-110.5 -175.5t-173 -113t-226.5 -40t-226 40t-172 113t-110 175.5t-39 228.5zM369 528q0 -63 12.5 -123.5t42 -108.5t78.5 -77t123 -29t123.5 29t79.5 77
t42.5 108.5t12.5 123.5q0 64 -12.5 125t-42.5 109t-79.5 77t-123.5 29t-123 -29t-78.5 -77t-42 -109t-12.5 -125zM494 1481h266l225 -291h-240l-127 166l-131 -166h-221z" />
    <glyph glyph-name=".notdef.030" unicode="&#xf5;" horiz-adv-x="1251" 
d="M78 528q0 127 39 230t110 176t172 113t226 40t226.5 -40t173 -113t110.5 -176t39 -230q0 -126 -39 -228.5t-110.5 -175.5t-173 -113t-226.5 -40t-226 40t-172 113t-110 175.5t-39 228.5zM369 528q0 -63 12.5 -123.5t42 -108.5t78.5 -77t123 -29t123.5 29t79.5 77
t42.5 108.5t12.5 123.5q0 64 -12.5 125t-42.5 109t-79.5 77t-123.5 29t-123 -29t-78.5 -77t-42 -109t-12.5 -125zM1001 1462q-11 -35 -24.5 -75.5t-38.5 -75.5t-64 -58.5t-102 -23.5q-46 0 -88 11t-80 24q-38 14 -73 24t-70 10q-41 0 -59 -23.5t-27 -62.5h-125
q10 45 26 89.5t45 80t74 58t113 22.5q35 0 67 -11t64 -24q32 -14 66 -25t69 -11q47 0 67.5 21t18.5 50h141z" />
    <glyph glyph-name="odieresis" unicode="&#xf6;" horiz-adv-x="1251" 
d="M78 528q0 127 39 230t110 176t172 113t226 40t226.5 -40t173 -113t110.5 -176t39 -230q0 -126 -39 -228.5t-110.5 -175.5t-173 -113t-226.5 -40t-226 40t-172 113t-110 175.5t-39 228.5zM369 528q0 -63 12.5 -123.5t42 -108.5t78.5 -77t123 -29t123.5 29t79.5 77
t42.5 108.5t12.5 123.5q0 64 -12.5 125t-42.5 109t-79.5 77t-123.5 29t-123 -29t-78.5 -77t-42 -109t-12.5 -125zM698 1462h277v-239h-277v239zM276 1462h277v-239h-277v239z" />
    <glyph glyph-name="divide" unicode="&#xf7;" horiz-adv-x="1229" 
d="M98 627h1035v-219h-1035v219zM442 942q0 36 14 67.5t38 55.5t55.5 37.5t66.5 13.5t66 -14t54.5 -38t37.5 -55.5t14 -66.5q0 -32 -14 -63t-37 -55t-54 -39t-65 -15q-36 0 -68 13.5t-56 37t-38 55t-14 66.5zM442 92q0 36 14 67.5t38 54.5t55.5 36.5t66.5 13.5t66 -13.5
t54.5 -37t37.5 -55t14 -66.5q0 -32 -14 -63.5t-37 -56t-54 -39.5t-65 -15q-36 0 -68 14t-56 38t-38 55.5t-14 66.5z" />
    <glyph glyph-name="oslash" unicode="&#xf8;" horiz-adv-x="1251" 
d="M795 803q-29 31 -71 48t-99 17q-74 0 -123 -29t-78.5 -77t-42 -109t-12.5 -125q0 -46 6.5 -92t23.5 -84zM451 260q29 -32 72 -51t102 -19q74 0 123.5 29t79.5 77t42.5 108.5t12.5 123.5q0 50 -8 97.5t-25 89.5zM213 141q-66 73 -100.5 171t-34.5 216q0 127 39 230
t110 176t172 113t226 40q99 0 182 -25t151 -73l109 125l76 -65l-111 -125q68 -73 105 -173.5t37 -222.5q0 -126 -39 -228.5t-110.5 -175.5t-173 -113t-226.5 -40q-199 0 -338 103l-121 -137l-76 65z" />
    <glyph glyph-name=".notdef.022" unicode="&#xf9;" horiz-adv-x="1214" 
d="M1104 0h-277v147h-6q-27 -44 -64 -77t-79 -55t-88 -33t-92 -11q-116 0 -191 31.5t-118.5 88.5t-60.5 137.5t-17 179.5v651h290v-598q0 -131 43 -195.5t144 -64.5q59 0 101.5 17t70 54t40.5 94t13 138v555h291v-1059zM244 1481h321l197 -291h-203z" />
    <glyph glyph-name=".notdef.021" unicode="&#xfa;" horiz-adv-x="1214" 
d="M1104 0h-277v147h-6q-27 -44 -64 -77t-79 -55t-88 -33t-92 -11q-116 0 -191 31.5t-118.5 88.5t-60.5 137.5t-17 179.5v651h290v-598q0 -131 43 -195.5t144 -64.5q59 0 101.5 17t70 54t40.5 94t13 138v555h291v-1059zM655 1190h-202l196 291h322z" />
    <glyph glyph-name="ucircumflex" unicode="&#xfb;" horiz-adv-x="1214" 
d="M1104 0h-277v147h-6q-27 -44 -64 -77t-79 -55t-88 -33t-92 -11q-116 0 -191 31.5t-118.5 88.5t-60.5 137.5t-17 179.5v651h290v-598q0 -131 43 -195.5t144 -64.5q59 0 101.5 17t70 54t40.5 94t13 138v555h291v-1059zM475 1481h266l226 -291h-240l-127 166l-131 -166h-221
z" />
    <glyph glyph-name="udieresis" unicode="&#xfc;" horiz-adv-x="1214" 
d="M1104 0h-277v147h-6q-27 -44 -64 -77t-79 -55t-88 -33t-92 -11q-116 0 -191 31.5t-118.5 88.5t-60.5 137.5t-17 179.5v651h290v-598q0 -131 43 -195.5t144 -64.5q59 0 101.5 17t70 54t40.5 94t13 138v555h291v-1059zM680 1462h276v-239h-276v239zM258 1462h277v-239h-277
v239z" />
    <glyph glyph-name=".notdef.004" unicode="&#xfd;" horiz-adv-x="1063" 
d="M633 -133q-24 -64 -56 -109.5t-75.5 -74.5t-101 -42.5t-132.5 -13.5q-45 0 -89 3t-89 8v239q42 -3 84.5 -7.5t85.5 -2.5q37 4 62 23.5t37.5 48t12.5 62t-12 65.5l-372 993h311l240 -725h4l231 725h301zM580 1190h-203l196 291h322z" />
    <glyph glyph-name="thorn" unicode="&#xfe;" horiz-adv-x="1251" 
d="M111 1462h290v-538h5q52 84 132.5 123.5t168.5 39.5q124 0 214.5 -46.5t150 -125t88 -181.5t28.5 -216q0 -106 -29 -204.5t-87.5 -174.5t-145.5 -122t-203 -46q-48 0 -93.5 10.5t-86.5 30.5t-76 50t-61 69h-5v-504h-290v1835zM897 526q0 63 -13.5 124.5t-43.5 109.5
t-78.5 78t-118.5 30q-71 0 -119.5 -29.5t-78 -77.5t-42 -109.5t-12.5 -125.5q0 -65 13 -125.5t43 -107t78.5 -75t119.5 -28.5q72 0 120 28.5t77.5 75t42 107t12.5 125.5z" />
    <glyph glyph-name="ydieresis" unicode="&#xff;" horiz-adv-x="1063" 
d="M633 -133q-24 -64 -56 -109.5t-75.5 -74.5t-101 -42.5t-132.5 -13.5q-45 0 -89 3t-89 8v239q42 -3 84.5 -7.5t85.5 -2.5q37 4 62 23.5t37.5 48t12.5 62t-12 65.5l-372 993h311l240 -725h4l231 725h301zM604 1462h277v-239h-277v239zM182 1462h277v-239h-277v239z" />
    <glyph glyph-name="Dslash" unicode="&#x110;" horiz-adv-x="1518" 
d="M141 637h-135v237h135v588h631q142 0 263.5 -44.5t210.5 -134.5t139.5 -226t50.5 -318q0 -159 -41 -294.5t-123.5 -234t-207 -154.5t-292.5 -56h-631v637zM463 874h328v-239h-328v-365h287q70 0 135.5 23t116.5 75t81.5 135.5t30.5 205.5q0 111 -21 200t-70 152t-130 97
t-201 34h-229v-318z" />
    <glyph glyph-name="dcroat" unicode="&#x111;" horiz-adv-x="1251" 
d="M866 135h-4q-51 -87 -135 -125.5t-186 -38.5q-120 0 -209 47.5t-148.5 126.5t-88.5 181.5t-29 212.5q0 71 13 139t39 129t65.5 112.5t91.5 88.5t117 58t143 21q46 0 91.5 -10t86.5 -29.5t75.5 -49t59.5 -68.5h4v532h291v-1462h-277v135zM862 532q0 65 -12.5 125.5
t-41.5 107.5t-77 75t-119 28t-120 -28t-79 -75t-43.5 -108t-13.5 -127q0 -62 14.5 -123t46 -109t79.5 -78t116 -30q72 0 120.5 29t77 77t40.5 109.5t12 126.5zM585 1350h665v-186h-665v186z" />
    <glyph glyph-name=".notdef.055" unicode="&#x103;" 
d="M770 518q-18 -16 -45.5 -25.5t-60 -15.5t-67.5 -10t-69 -10q-34 -7 -65 -17.5t-55 -27.5t-38 -44t-14 -67q0 -41 14.5 -67t39.5 -41t57 -21t68 -6q57 0 96.5 13.5t65.5 35.5t40.5 49t22 54t9 51.5t1.5 40.5v108zM98 733q6 102 51.5 170.5t115 109t156 57.5t175.5 17
q53 0 108 -4.5t106.5 -17t97 -34t79.5 -55t54 -80.5t20 -110v-550q0 -36 2 -71.5t6.5 -66.5t11.5 -56.5t17 -41.5h-295q-8 25 -13.5 50.5t-7.5 51.5q-35 -36 -76.5 -61t-87.5 -40.5t-95 -22.5t-97 -7q-75 0 -141 19t-114.5 58.5t-76.5 99.5t-28 141q0 90 31 148t81.5 93.5
t115 53t132.5 26.5q67 10 129 16.5t110 19t76.5 36t28.5 68.5q0 46 -15 74.5t-40.5 43.5t-60 20t-72.5 5q-83 0 -134.5 -37t-58.5 -123h-291zM425 1494q6 -42 27 -70t50 -45t62.5 -24t63.5 -7q91 0 149 33.5t76 112.5h129q-10 -78 -40 -134.5t-77 -93t-109.5 -54
t-137.5 -17.5q-149 0 -231 75t-95 224h133z" />
    <glyph glyph-name=".notdef.117" unicode="&#x102;" horiz-adv-x="1403" 
d="M541 1462h329l547 -1462h-334l-110 326h-547l-115 -326h-325zM510 565h379l-184 537h-5zM500 1891q6 -42 27 -70t50 -45t62.5 -24t63.5 -7q91 0 149 33.5t76 112.5h129q-10 -78 -40 -134.5t-77 -93t-109.5 -54t-137.5 -17.5q-149 0 -231 75t-95 224h133z" />
    <glyph glyph-name=".notdef.077" unicode="&#x1a0;" horiz-adv-x="1701" 
d="M78 725q0 163 48.5 304t141 245t226 163.5t303.5 59.5q169 0 303 -59.5t226 -163.5t141 -245t49 -304q0 -158 -49 -296.5t-141 -241.5t-226 -162.5t-303 -59.5q-170 0 -303.5 59.5t-226 162.5t-141 241.5t-48.5 296.5zM399 725q0 -92 21.5 -179.5t69 -156.5t123.5 -111
t184 -42t183.5 42t123 111t69 156.5t21.5 179.5q0 96 -21.5 186.5t-69 160.5t-123 112.5t-183.5 42.5t-184 -42.5t-123.5 -112.5t-69 -160.5t-21.5 -186.5zM1399 1462h227v-210q-4 -63 -20 -102.5t-49 -62.5t-87 -32.5t-134 -11.5v81q57 4 92.5 11t55.5 21t28.5 36.5
t10.5 58.5h-124v211z" />
    <glyph glyph-name=".notdef.011" unicode="&#x1a1;" horiz-adv-x="1416" 
d="M78 528q0 127 39 230t110 176t172 113t226 40t226.5 -40t173 -113t110.5 -176t39 -230q0 -126 -39 -228.5t-110.5 -175.5t-173 -113t-226.5 -40t-226 40t-172 113t-110 175.5t-39 228.5zM369 528q0 -63 12.5 -123.5t42 -108.5t78.5 -77t123 -29t123.5 29t79.5 77
t42.5 108.5t12.5 123.5q0 64 -12.5 125t-42.5 109t-79.5 77t-123.5 29t-123 -29t-78.5 -77t-42 -109t-12.5 -125zM1131 1058h227v-210q-4 -63 -20 -102.5t-49 -62.5t-87 -32.5t-134 -11.5v81q57 4 92.5 11t55.5 21t28.5 36.5t10.5 58.5h-124v211z" />
    <glyph glyph-name=".notdef.083" unicode="&#x1af;" horiz-adv-x="1741" 
d="M1382 553q0 -148 -42.5 -258.5t-123 -183.5t-196 -109.5t-262.5 -36.5t-263 36t-196 109t-122 183.5t-42 259.5v909h322v-909q0 -60 10.5 -117t42.5 -101.5t91 -71.5t157 -27q86 0 144 19t93.5 58t50.5 99t15 141v909h321v-909zM1440 1462h227v-210q-4 -63 -20 -102.5
t-49 -62.5t-87 -32.5t-134 -11.5v81q57 4 92.5 11t55.5 21t28.5 36.5t10.5 58.5h-124v211z" />
    <glyph glyph-name=".notdef.017" unicode="&#x1b0;" horiz-adv-x="1444" 
d="M1104 0h-277v147h-6q-27 -44 -64 -77t-79 -55t-88 -33t-92 -11q-116 0 -191 31.5t-118.5 88.5t-60.5 137.5t-17 179.5v651h290v-598q0 -131 43 -195.5t144 -64.5q59 0 101.5 17t70 54t40.5 94t13 138v555h291v-1059zM1160 1058h227v-210q-4 -63 -20 -102.5t-49 -62.5
t-87 -32.5t-134 -11.5v81q57 4 92.5 11t55.5 21t28.5 36.5t10.5 58.5h-124v211z" />
    <glyph glyph-name=".notdef.101" unicode="&#x128;" horiz-adv-x="604" 
d="M141 1462h322v-1462h-322v1462zM691 1866q-11 -35 -24.5 -76t-38.5 -76t-64 -58.5t-102 -23.5q-47 0 -88.5 11.5t-79.5 23.5q-38 14 -73 24.5t-70 10.5q-42 0 -59.5 -24t-26.5 -62h-125q10 45 26 89.5t45 80t74 58t113 22.5q35 0 67 -11.5t64 -23.5q32 -14 66 -25.5
t69 -11.5q46 0 67 21.5t19 50.5h141z" />
    <glyph glyph-name=".notdef.035" unicode="&#x129;" horiz-adv-x="528" 
d="M119 1059h291v-1059h-291v1059zM645 1462q-11 -35 -25 -75.5t-39 -75.5t-64 -58.5t-102 -23.5q-46 0 -88 11t-80 24q-38 14 -73 24t-70 10q-41 0 -59 -23.5t-27 -62.5h-125q10 45 26.5 89.5t45.5 80t73.5 58t112.5 22.5q35 0 67 -11t64 -24q32 -14 66 -25t69 -11
q47 0 67.5 21t18.5 50h142z" />
    <glyph glyph-name=".notdef.085" unicode="&#x168;" horiz-adv-x="1518" 
d="M1382 553q0 -148 -42.5 -258.5t-123 -183.5t-196 -109.5t-262.5 -36.5t-263 36t-196 109t-122 183.5t-42 259.5v909h322v-909q0 -60 10.5 -117t42.5 -101.5t91 -71.5t157 -27q86 0 144 19t93.5 58t50.5 99t15 141v909h321v-909zM1135 1866q-11 -35 -24.5 -76t-38.5 -76
t-64 -58.5t-102 -23.5q-47 0 -88.5 11.5t-79.5 23.5q-38 14 -73 24.5t-70 10.5q-42 0 -59.5 -24t-26.5 -62h-125q10 45 26 89.5t45 80t74 58t113 22.5q35 0 67 -11.5t64 -23.5q32 -14 66 -25.5t69 -11.5q46 0 67 21.5t19 50.5h141z" />
    <glyph glyph-name=".notdef.019" unicode="&#x169;" horiz-adv-x="1214" 
d="M1104 0h-277v147h-6q-27 -44 -64 -77t-79 -55t-88 -33t-92 -11q-116 0 -191 31.5t-118.5 88.5t-60.5 137.5t-17 179.5v651h290v-598q0 -131 43 -195.5t144 -64.5q59 0 101.5 17t70 54t40.5 94t13 138v555h291v-1059zM985 1462q-11 -35 -25 -75.5t-39 -75.5t-64 -58.5
t-102 -23.5q-46 0 -88 11t-80 24q-38 14 -73 24t-70 10q-41 0 -59 -23.5t-27 -62.5h-125q10 45 26.5 89.5t45.5 80t73.5 58t112.5 22.5q35 0 67 -11t64 -24q32 -14 66 -25t69 -11q47 0 67.5 21t18.5 50h142z" />
    <glyph glyph-name=".notdef.119" unicode="&#x1eae;" horiz-adv-x="1403" 
d="M541 1462h329l547 -1462h-334l-110 326h-547l-115 -326h-325zM510 565h379l-184 537h-5zM500 1891q6 -42 27 -70t50 -45t62.5 -24t63.5 -7q91 0 149 33.5t76 112.5h129q-10 -78 -40 -134.5t-77 -93t-109.5 -54t-137.5 -17.5q-149 0 -231 75t-95 224h133zM777 1890h-203
l196 291h322z" />
    <glyph glyph-name=".notdef.053" unicode="&#x1eaf;" 
d="M770 518q-18 -16 -45.5 -25.5t-60 -15.5t-67.5 -10t-69 -10q-34 -7 -65 -17.5t-55 -27.5t-38 -44t-14 -67q0 -41 14.5 -67t39.5 -41t57 -21t68 -6q57 0 96.5 13.5t65.5 35.5t40.5 49t22 54t9 51.5t1.5 40.5v108zM98 733q6 102 51.5 170.5t115 109t156 57.5t175.5 17
q53 0 108 -4.5t106.5 -17t97 -34t79.5 -55t54 -80.5t20 -110v-550q0 -36 2 -71.5t6.5 -66.5t11.5 -56.5t17 -41.5h-295q-8 25 -13.5 50.5t-7.5 51.5q-35 -36 -76.5 -61t-87.5 -40.5t-95 -22.5t-97 -7q-75 0 -141 19t-114.5 58.5t-76.5 99.5t-28 141q0 90 31 148t81.5 93.5
t115 53t132.5 26.5q67 10 129 16.5t110 19t76.5 36t28.5 68.5q0 46 -15 74.5t-40.5 43.5t-60 20t-72.5 5q-83 0 -134.5 -37t-58.5 -123h-291zM425 1494q6 -42 27 -70t50 -45t62.5 -24t63.5 -7q91 0 149 33.5t76 112.5h129q-10 -78 -40 -134.5t-77 -93t-109.5 -54
t-137.5 -17.5q-149 0 -231 75t-95 224h133zM701 1496h-203l196 291h322z" />
    <glyph glyph-name=".notdef.118" unicode="&#x1eb0;" horiz-adv-x="1403" 
d="M541 1462h329l547 -1462h-334l-110 326h-547l-115 -326h-325zM510 565h379l-184 537h-5zM500 1891q6 -42 27 -70t50 -45t62.5 -24t63.5 -7q91 0 149 33.5t76 112.5h129q-10 -78 -40 -134.5t-77 -93t-109.5 -54t-137.5 -17.5q-149 0 -231 75t-95 224h133zM331 2181h321
l197 -291h-203z" />
    <glyph glyph-name=".notdef.054" unicode="&#x1eb1;" 
d="M770 518q-18 -16 -45.5 -25.5t-60 -15.5t-67.5 -10t-69 -10q-34 -7 -65 -17.5t-55 -27.5t-38 -44t-14 -67q0 -41 14.5 -67t39.5 -41t57 -21t68 -6q57 0 96.5 13.5t65.5 35.5t40.5 49t22 54t9 51.5t1.5 40.5v108zM98 733q6 102 51.5 170.5t115 109t156 57.5t175.5 17
q53 0 108 -4.5t106.5 -17t97 -34t79.5 -55t54 -80.5t20 -110v-550q0 -36 2 -71.5t6.5 -66.5t11.5 -56.5t17 -41.5h-295q-8 25 -13.5 50.5t-7.5 51.5q-35 -36 -76.5 -61t-87.5 -40.5t-95 -22.5t-97 -7q-75 0 -141 19t-114.5 58.5t-76.5 99.5t-28 141q0 90 31 148t81.5 93.5
t115 53t132.5 26.5q67 10 129 16.5t110 19t76.5 36t28.5 68.5q0 46 -15 74.5t-40.5 43.5t-60 20t-72.5 5q-83 0 -134.5 -37t-58.5 -123h-291zM425 1494q6 -42 27 -70t50 -45t62.5 -24t63.5 -7q91 0 149 33.5t76 112.5h129q-10 -78 -40 -134.5t-77 -93t-109.5 -54
t-137.5 -17.5q-149 0 -231 75t-95 224h133zM255 1786h321l197 -291h-203z" />
    <glyph glyph-name=".notdef.120" unicode="&#x1eb2;" horiz-adv-x="1403" 
d="M-14 0h325l115 326h547l110 -326h334l-547 1462h-329zM700 1102h5l184 -537h-379zM367 1891q13 -149 95 -224t231 -75q75 0 137.5 17.5t109.5 54t77 93t40 134.5h-129q-18 -79 -76 -112.5t-149 -33.5q-30 0 -63.5 7t-62.5 24t-50 45t-27 70h-133zM627 1867
q-1 39 2.5 70.5t11.5 55.5q17 47 77 89q48 33 48 72q0 35 -20 51t-46 16q-40 0 -55.5 -29t-15.5 -71l-160 -2q0 131 74 190h-1q61 49 152 49q74 0 137 -29q101 -56 101 -171q0 -56 -28 -97q-23 -34 -83 -76q-25 -18 -37.5 -47t-11.5 -71h-145z" />
    <glyph glyph-name=".notdef.052" unicode="&#x1eb3;" 
d="M770 410q0 -16 -1.5 -40.5t-9 -51.5t-22 -54t-40.5 -49t-65.5 -35.5t-96.5 -13.5q-36 0 -68 6t-57 21t-39.5 41t-14.5 67q0 40 14 67t38 44t55 27.5t65 17.5q34 6 69 10t67.5 10t60 15.5t45.5 25.5v-108zM389 733q7 86 58.5 123t134.5 37q38 0 72.5 -5t60 -20t40.5 -43.5
t15 -74.5q0 -45 -28.5 -68.5t-76.5 -36t-110 -19t-129 -16.5q-68 -9 -132.5 -26.5t-115 -53t-81.5 -93.5t-31 -148q0 -81 28 -141t76.5 -99.5t114.5 -58.5t141 -19q48 0 97 7t95 22.5t87.5 40.5t76.5 61q2 -26 7.5 -51.5t13.5 -50.5h295q-10 16 -17 41.5t-11.5 56.5
t-6.5 66.5t-2 71.5v550q0 63 -20 110t-54 80.5t-79.5 55t-97 34t-106.5 17t-108 4.5q-89 0 -175.5 -17t-156 -57.5t-115 -109t-51.5 -170.5h291zM292 1494q13 -149 95 -224t231 -75q75 0 137.5 17.5t109.5 54t77 93t40 134.5h-129q-18 -79 -76 -112.5t-149 -33.5
q-30 0 -63.5 7t-62.5 24t-50 45t-27 70h-133zM556 1476q-1 39 2.5 70.5t11.5 55.5q17 47 77 89q48 33 48 72q0 35 -20 51t-46 16q-40 0 -55.5 -29t-15.5 -71l-160 -2q0 131 74 190h-1q61 49 152 49q74 0 137 -29q101 -56 101 -171q0 -56 -28 -97q-23 -34 -83 -76
q-25 -18 -37.5 -47t-11.5 -71h-145z" />
    <glyph glyph-name=".notdef.121" unicode="&#x1eb4;" horiz-adv-x="1403" 
d="M541 1462h329l547 -1462h-334l-110 326h-547l-115 -326h-325zM510 565h379l-184 537h-5zM500 1891q6 -42 27 -70t50 -45t62.5 -24t63.5 -7q91 0 149 33.5t76 112.5h129q-10 -78 -40 -134.5t-77 -93t-109.5 -54t-137.5 -17.5q-149 0 -231 75t-95 224h133zM1101 2226
q-11 -35 -24.5 -76t-38.5 -76t-64 -58.5t-102 -23.5q-47 0 -88.5 11.5t-79.5 23.5q-38 14 -73 24.5t-70 10.5q-42 0 -59.5 -24t-26.5 -62h-125q10 45 26 89.5t45 80t74 58t113 22.5q35 0 67 -11.5t64 -23.5q32 -14 66 -25.5t69 -11.5q46 0 67 21.5t19 50.5h141z" />
    <glyph glyph-name=".notdef.051" unicode="&#x1eb5;" 
d="M770 518q-18 -16 -45.5 -25.5t-60 -15.5t-67.5 -10t-69 -10q-34 -7 -65 -17.5t-55 -27.5t-38 -44t-14 -67q0 -41 14.5 -67t39.5 -41t57 -21t68 -6q57 0 96.5 13.5t65.5 35.5t40.5 49t22 54t9 51.5t1.5 40.5v108zM98 733q6 102 51.5 170.5t115 109t156 57.5t175.5 17
q53 0 108 -4.5t106.5 -17t97 -34t79.5 -55t54 -80.5t20 -110v-550q0 -36 2 -71.5t6.5 -66.5t11.5 -56.5t17 -41.5h-295q-8 25 -13.5 50.5t-7.5 51.5q-35 -36 -76.5 -61t-87.5 -40.5t-95 -22.5t-97 -7q-75 0 -141 19t-114.5 58.5t-76.5 99.5t-28 141q0 90 31 148t81.5 93.5
t115 53t132.5 26.5q67 10 129 16.5t110 19t76.5 36t28.5 68.5q0 46 -15 74.5t-40.5 43.5t-60 20t-72.5 5q-83 0 -134.5 -37t-58.5 -123h-291zM425 1494q6 -42 27 -70t50 -45t62.5 -24t63.5 -7q91 0 149 33.5t76 112.5h129q-10 -78 -40 -134.5t-77 -93t-109.5 -54
t-137.5 -17.5q-149 0 -231 75t-95 224h133zM1033 1837q-11 -35 -24.5 -76t-38.5 -76t-64 -58.5t-102 -23.5q-47 0 -88.5 11.5t-79.5 23.5q-38 14 -73 24.5t-70 10.5q-42 0 -59.5 -24t-26.5 -62h-125q10 45 26 89.5t45 80t74 58t113 22.5q35 0 67 -11.5t64 -23.5
q32 -14 66 -25.5t69 -11.5q46 0 67 21.5t19 50.5h141z" />
    <glyph glyph-name=".notdef.122" unicode="&#x1eb6;" horiz-adv-x="1403" 
d="M541 1462h329l547 -1462h-334l-110 326h-547l-115 -326h-325zM510 565h379l-184 537h-5zM500 1891q6 -42 27 -70t50 -45t62.5 -24t63.5 -7q91 0 149 33.5t76 112.5h129q-10 -78 -40 -134.5t-77 -93t-109.5 -54t-137.5 -17.5q-149 0 -231 75t-95 224h133zM554 -137h291
v-286h-291v286z" />
    <glyph glyph-name=".notdef.050" unicode="&#x1eb7;" 
d="M770 518q-18 -16 -45.5 -25.5t-60 -15.5t-67.5 -10t-69 -10q-34 -7 -65 -17.5t-55 -27.5t-38 -44t-14 -67q0 -41 14.5 -67t39.5 -41t57 -21t68 -6q57 0 96.5 13.5t65.5 35.5t40.5 49t22 54t9 51.5t1.5 40.5v108zM98 733q6 102 51.5 170.5t115 109t156 57.5t175.5 17
q53 0 108 -4.5t106.5 -17t97 -34t79.5 -55t54 -80.5t20 -110v-550q0 -36 2 -71.5t6.5 -66.5t11.5 -56.5t17 -41.5h-295q-8 25 -13.5 50.5t-7.5 51.5q-35 -36 -76.5 -61t-87.5 -40.5t-95 -22.5t-97 -7q-75 0 -141 19t-114.5 58.5t-76.5 99.5t-28 141q0 90 31 148t81.5 93.5
t115 53t132.5 26.5q67 10 129 16.5t110 19t76.5 36t28.5 68.5q0 46 -15 74.5t-40.5 43.5t-60 20t-72.5 5q-83 0 -134.5 -37t-58.5 -123h-291zM425 1494q6 -42 27 -70t50 -45t62.5 -24t63.5 -7q91 0 149 33.5t76 112.5h129q-10 -78 -40 -134.5t-77 -93t-109.5 -54
t-137.5 -17.5q-149 0 -231 75t-95 224h133zM441 -134h291v-286h-291v286z" />
    <glyph glyph-name=".notdef.127" unicode="&#x1eb8;" horiz-adv-x="1327" 
d="M141 1462h1094v-270h-772v-313h708v-250h-708v-359h788v-270h-1110v1462zM514 -137h291v-286h-291v286z" />
    <glyph glyph-name=".notdef.045" unicode="&#x1eb9;" 
d="M350 459q6 -139 72.5 -204t187.5 -65q44 0 82.5 12.5t69 32t51 44t27.5 49.5h256q-31 -94 -78.5 -161.5t-110.5 -111t-140 -64t-167 -20.5q-125 0 -225.5 41t-170.5 115t-107.5 176t-37.5 225q0 119 39.5 221.5t110.5 177.5t171 117.5t220 42.5q90 0 165 -24t133.5 -66.5
t101.5 -101.5t70 -129t38 -148t6 -159h-764zM823 643q-10 55 -27.5 97.5t-45 70.5t-66.5 42.5t-92 14.5q-69 0 -115 -23.5t-73.5 -58t-40 -73.5t-13.5 -70h473zM441 -134h291v-286h-291v286z" />
    <glyph glyph-name=".notdef.125" unicode="&#x1eba;" horiz-adv-x="1327" 
d="M141 0h1110v270h-788v359h708v250h-708v313h772v270h-1094v-1462zM615 1593q-1 39 2.5 70.5t11.5 55.5q17 47 77 89q48 33 48 72q0 35 -20 51t-46 16q-40 0 -55.5 -29t-15.5 -71l-160 -2q0 131 74 190h-1q61 49 152 49q74 0 137 -29q101 -56 101 -171q0 -56 -28 -97
q-23 -34 -83 -76q-25 -18 -37.5 -47t-11.5 -71h-145z" />
    <glyph glyph-name=".notdef.047" unicode="&#x1ebb;" 
d="M1114 459q5 81 -6 159t-38 148t-70 129t-101.5 101.5t-133.5 66.5t-165 24q-120 0 -220 -42.5t-171 -117.5t-110.5 -177.5t-39.5 -221.5q0 -123 37.5 -225t107.5 -176t170.5 -115t225.5 -41q90 0 167 20.5t140 64t110.5 111t78.5 161.5h-256q-7 -25 -27.5 -49.5t-51 -44
t-69 -32t-82.5 -12.5q-121 0 -187.5 65t-72.5 204h764zM350 643q1 31 13.5 70t40 73.5t73.5 58t115 23.5q53 0 92 -14.5t66.5 -42.5t45 -70.5t27.5 -97.5h-473zM533 1190q-1 39 2.5 70.5t11.5 55.5q17 47 77 89q48 33 48 72q0 35 -20 51t-46 16q-40 0 -55.5 -29t-15.5 -71
l-160 -2q0 131 74 190h-1q61 49 152 49q74 0 137 -29q101 -56 101 -171q0 -56 -28 -97q-23 -34 -83 -76q-25 -18 -37.5 -47t-11.5 -71h-145z" />
    <glyph glyph-name=".notdef.126" unicode="&#x1ebc;" horiz-adv-x="1327" 
d="M141 1462h1094v-270h-772v-313h708v-250h-708v-359h788v-270h-1110v1462zM1077 1866q-11 -35 -24.5 -76t-38.5 -76t-64 -58.5t-102 -23.5q-47 0 -88.5 11.5t-79.5 23.5q-38 14 -73 24.5t-70 10.5q-42 0 -59.5 -24t-26.5 -62h-125q10 45 26 89.5t45 80t74 58t113 22.5
q35 0 67 -11.5t64 -23.5q32 -14 66 -25.5t69 -11.5q46 0 67 21.5t19 50.5h141z" />
    <glyph glyph-name=".notdef.046" unicode="&#x1ebd;" 
d="M350 459q6 -139 72.5 -204t187.5 -65q44 0 82.5 12.5t69 32t51 44t27.5 49.5h256q-31 -94 -78.5 -161.5t-110.5 -111t-140 -64t-167 -20.5q-125 0 -225.5 41t-170.5 115t-107.5 176t-37.5 225q0 119 39.5 221.5t110.5 177.5t171 117.5t220 42.5q90 0 165 -24t133.5 -66.5
t101.5 -101.5t70 -129t38 -148t6 -159h-764zM823 643q-10 55 -27.5 97.5t-45 70.5t-66.5 42.5t-92 14.5q-69 0 -115 -23.5t-73.5 -58t-40 -73.5t-13.5 -70h473zM974 1462q-11 -35 -25 -75.5t-39 -75.5t-64 -58.5t-102 -23.5q-46 0 -88 11t-80 24q-38 14 -73 24t-70 10
q-41 0 -59 -23.5t-27 -62.5h-125q10 45 26.5 89.5t45.5 80t73.5 58t112.5 22.5q35 0 67 -11t64 -24q32 -14 66 -25t69 -11q47 0 67.5 21t18.5 50h142z" />
    <glyph glyph-name=".notdef.113" unicode="&#x1ea4;" horiz-adv-x="1403" 
d="M541 1462h329l547 -1462h-334l-110 326h-547l-115 -326h-325zM510 565h379l-184 537h-5zM569 1884h267l225 -291h-240l-127 166l-131 -166h-221zM1187 1802h-203l196 291h322z" />
    <glyph glyph-name=".notdef.059" unicode="&#x1ea5;" 
d="M770 518q-18 -16 -45.5 -25.5t-60 -15.5t-67.5 -10t-69 -10q-34 -7 -65 -17.5t-55 -27.5t-38 -44t-14 -67q0 -41 14.5 -67t39.5 -41t57 -21t68 -6q57 0 96.5 13.5t65.5 35.5t40.5 49t22 54t9 51.5t1.5 40.5v108zM98 733q6 102 51.5 170.5t115 109t156 57.5t175.5 17
q53 0 108 -4.5t106.5 -17t97 -34t79.5 -55t54 -80.5t20 -110v-550q0 -36 2 -71.5t6.5 -66.5t11.5 -56.5t17 -41.5h-295q-8 25 -13.5 50.5t-7.5 51.5q-35 -36 -76.5 -61t-87.5 -40.5t-95 -22.5t-97 -7q-75 0 -141 19t-114.5 58.5t-76.5 99.5t-28 141q0 90 31 148t81.5 93.5
t115 53t132.5 26.5q67 10 129 16.5t110 19t76.5 36t28.5 68.5q0 46 -15 74.5t-40.5 43.5t-60 20t-72.5 5q-83 0 -134.5 -37t-58.5 -123h-291zM457 1481h266l225 -291h-239l-127 166l-131 -166h-222zM1074 1399h-203l196 291h322z" />
    <glyph glyph-name=".notdef.112" unicode="&#x1ea6;" horiz-adv-x="1403" 
d="M541 1462h329l547 -1462h-334l-110 326h-547l-115 -326h-325zM510 565h379l-184 537h-5zM569 1884h267l225 -291h-240l-127 166l-131 -166h-221zM817 2091h321l197 -291h-203z" />
    <glyph glyph-name=".notdef.060" unicode="&#x1ea7;" 
d="M770 518q-18 -16 -45.5 -25.5t-60 -15.5t-67.5 -10t-69 -10q-34 -7 -65 -17.5t-55 -27.5t-38 -44t-14 -67q0 -41 14.5 -67t39.5 -41t57 -21t68 -6q57 0 96.5 13.5t65.5 35.5t40.5 49t22 54t9 51.5t1.5 40.5v108zM98 733q6 102 51.5 170.5t115 109t156 57.5t175.5 17
q53 0 108 -4.5t106.5 -17t97 -34t79.5 -55t54 -80.5t20 -110v-550q0 -36 2 -71.5t6.5 -66.5t11.5 -56.5t17 -41.5h-295q-8 25 -13.5 50.5t-7.5 51.5q-35 -36 -76.5 -61t-87.5 -40.5t-95 -22.5t-97 -7q-75 0 -141 19t-114.5 58.5t-76.5 99.5t-28 141q0 90 31 148t81.5 93.5
t115 53t132.5 26.5q67 10 129 16.5t110 19t76.5 36t28.5 68.5q0 46 -15 74.5t-40.5 43.5t-60 20t-72.5 5q-83 0 -134.5 -37t-58.5 -123h-291zM457 1481h266l225 -291h-239l-127 166l-131 -166h-222zM704 1688h321l197 -291h-203z" />
    <glyph glyph-name=".notdef.114" unicode="&#x1ea8;" horiz-adv-x="1403" 
d="M-14 0h325l115 326h547l110 -326h334l-547 1462h-329zM700 1102h5l184 -537h-379zM342 1593h221l131 166l127 -166h240l-225 291h-267zM1007 1771q-1 39 2.5 70.5t11.5 55.5q17 47 77 89q48 33 48 72q0 35 -20 51t-46 16q-40 0 -55.5 -29t-15.5 -71l-160 -2q0 131 74 190
h-1q61 49 152 49q74 0 137 -29q101 -56 101 -171q0 -56 -28 -97q-23 -34 -83 -76q-25 -18 -37.5 -47t-11.5 -71h-145z" />
    <glyph glyph-name=".notdef.058" unicode="&#x1ea9;" 
d="M770 410q0 -16 -1.5 -40.5t-9 -51.5t-22 -54t-40.5 -49t-65.5 -35.5t-96.5 -13.5q-36 0 -68 6t-57 21t-39.5 41t-14.5 67q0 40 14 67t38 44t55 27.5t65 17.5q34 6 69 10t67.5 10t60 15.5t45.5 25.5v-108zM389 733q7 86 58.5 123t134.5 37q38 0 72.5 -5t60 -20t40.5 -43.5
t15 -74.5q0 -45 -28.5 -68.5t-76.5 -36t-110 -19t-129 -16.5q-68 -9 -132.5 -26.5t-115 -53t-81.5 -93.5t-31 -148q0 -81 28 -141t76.5 -99.5t114.5 -58.5t141 -19q48 0 97 7t95 22.5t87.5 40.5t76.5 61q2 -26 7.5 -51.5t13.5 -50.5h295q-10 16 -17 41.5t-11.5 56.5
t-6.5 66.5t-2 71.5v550q0 63 -20 110t-54 80.5t-79.5 55t-97 34t-106.5 17t-108 4.5q-89 0 -175.5 -17t-156 -57.5t-115 -109t-51.5 -170.5h291zM229 1190h222l131 166l127 -166h239l-225 291h-266zM894 1369q-1 39 2.5 70.5t11.5 55.5q17 47 77 89q48 33 48 72q0 35 -20 51
t-46 16q-40 0 -55.5 -29t-15.5 -71l-160 -2q0 131 74 190h-1q61 49 152 49q74 0 137 -29q101 -56 101 -171q0 -56 -28 -97q-23 -34 -83 -76q-25 -18 -37.5 -47t-11.5 -71h-145z" />
    <glyph glyph-name=".notdef.115" unicode="&#x1eaa;" horiz-adv-x="1403" 
d="M541 1462h329l547 -1462h-334l-110 326h-547l-115 -326h-325zM510 565h379l-184 537h-5zM569 1884h267l225 -291h-240l-127 166l-131 -166h-221zM1077 2207q-11 -35 -24.5 -76t-38.5 -76t-64 -58.5t-102 -23.5q-47 0 -88.5 11.5t-79.5 23.5q-38 14 -73 24.5t-70 10.5
q-42 0 -59.5 -24t-26.5 -62h-125q10 45 26 89.5t45 80t74 58t113 22.5q35 0 67 -11.5t64 -23.5q32 -14 66 -25.5t69 -11.5q46 0 67 21.5t19 50.5h141z" />
    <glyph glyph-name=".notdef.057" unicode="&#x1eab;" 
d="M770 518q-18 -16 -45.5 -25.5t-60 -15.5t-67.5 -10t-69 -10q-34 -7 -65 -17.5t-55 -27.5t-38 -44t-14 -67q0 -41 14.5 -67t39.5 -41t57 -21t68 -6q57 0 96.5 13.5t65.5 35.5t40.5 49t22 54t9 51.5t1.5 40.5v108zM98 733q6 102 51.5 170.5t115 109t156 57.5t175.5 17
q53 0 108 -4.5t106.5 -17t97 -34t79.5 -55t54 -80.5t20 -110v-550q0 -36 2 -71.5t6.5 -66.5t11.5 -56.5t17 -41.5h-295q-8 25 -13.5 50.5t-7.5 51.5q-35 -36 -76.5 -61t-87.5 -40.5t-95 -22.5t-97 -7q-75 0 -141 19t-114.5 58.5t-76.5 99.5t-28 141q0 90 31 148t81.5 93.5
t115 53t132.5 26.5q67 10 129 16.5t110 19t76.5 36t28.5 68.5q0 46 -15 74.5t-40.5 43.5t-60 20t-72.5 5q-83 0 -134.5 -37t-58.5 -123h-291zM457 1481h266l225 -291h-239l-127 166l-131 -166h-222zM964 1804q-11 -35 -24.5 -76t-38.5 -76t-64 -58.5t-102 -23.5
q-47 0 -88.5 11.5t-79.5 23.5q-38 14 -73 24.5t-70 10.5q-42 0 -59.5 -24t-26.5 -62h-125q10 45 26 89.5t45 80t74 58t113 22.5q35 0 67 -11.5t64 -23.5q32 -14 66 -25.5t69 -11.5q46 0 67 21.5t19 50.5h141z" />
    <glyph glyph-name=".notdef.116" unicode="&#x1eac;" horiz-adv-x="1403" 
d="M541 1462h329l547 -1462h-334l-110 326h-547l-115 -326h-325zM510 565h379l-184 537h-5zM569 1884h267l225 -291h-240l-127 166l-131 -166h-221zM554 -137h291v-286h-291v286z" />
    <glyph glyph-name=".notdef.056" unicode="&#x1ead;" 
d="M770 518q-18 -16 -45.5 -25.5t-60 -15.5t-67.5 -10t-69 -10q-34 -7 -65 -17.5t-55 -27.5t-38 -44t-14 -67q0 -41 14.5 -67t39.5 -41t57 -21t68 -6q57 0 96.5 13.5t65.5 35.5t40.5 49t22 54t9 51.5t1.5 40.5v108zM98 733q6 102 51.5 170.5t115 109t156 57.5t175.5 17
q53 0 108 -4.5t106.5 -17t97 -34t79.5 -55t54 -80.5t20 -110v-550q0 -36 2 -71.5t6.5 -66.5t11.5 -56.5t17 -41.5h-295q-8 25 -13.5 50.5t-7.5 51.5q-35 -36 -76.5 -61t-87.5 -40.5t-95 -22.5t-97 -7q-75 0 -141 19t-114.5 58.5t-76.5 99.5t-28 141q0 90 31 148t81.5 93.5
t115 53t132.5 26.5q67 10 129 16.5t110 19t76.5 36t28.5 68.5q0 46 -15 74.5t-40.5 43.5t-60 20t-72.5 5q-83 0 -134.5 -37t-58.5 -123h-291zM457 1481h266l225 -291h-239l-127 166l-131 -166h-222zM441 -134h291v-286h-291v286z" />
    <glyph glyph-name=".notdef.102" unicode="&#x1ec8;" horiz-adv-x="604" 
d="M141 0h322v1462h-322v-1462zM233 1593q-1 39 2.5 70.5t11.5 55.5q17 47 77 89q48 33 48 72q0 35 -20 51t-46 16q-40 0 -55.5 -29t-15.5 -71l-160 -2q0 131 74 190h-1q61 49 152 49q74 0 137 -29q101 -56 101 -171q0 -56 -28 -97q-23 -34 -83 -76q-25 -18 -37.5 -47
t-11.5 -71h-145z" />
    <glyph glyph-name=".notdef.036" unicode="&#x1ec9;" horiz-adv-x="528" 
d="M119 0h291v1059h-291v-1059zM194 1190q-1 39 2.5 70.5t11.5 55.5q17 47 77 89q48 33 48 72q0 35 -20 51t-46 16q-40 0 -55.5 -29t-15.5 -71l-160 -2q0 131 74 190h-1q61 49 152 49q74 0 137 -29q101 -56 101 -171q0 -56 -28 -97q-23 -34 -83 -76q-25 -18 -37.5 -47
t-11.5 -71h-145z" />
    <glyph glyph-name=".notdef.100" unicode="&#x1eca;" horiz-adv-x="604" 
d="M141 1462h322v-1462h-322v1462zM157 -134h291v-286h-291v286z" />
    <glyph glyph-name=".notdef.034" unicode="&#x1ecb;" horiz-adv-x="528" 
d="M119 1059h291v-1059h-291v1059zM410 1223h-291v239h291v-239zM120 -134h291v-286h-291v286z" />
    <glyph glyph-name=".notdef.095" unicode="&#x1ecc;" horiz-adv-x="1593" 
d="M78 725q0 163 48.5 304t141 245t226 163.5t303.5 59.5q169 0 303 -59.5t226 -163.5t141 -245t49 -304q0 -158 -49 -296.5t-141 -241.5t-226 -162.5t-303 -59.5q-170 0 -303.5 59.5t-226 162.5t-141 241.5t-48.5 296.5zM399 725q0 -92 21.5 -179.5t69 -156.5t123.5 -111
t184 -42t183.5 42t123 111t69 156.5t21.5 179.5q0 96 -21.5 186.5t-69 160.5t-123 112.5t-183.5 42.5t-184 -42.5t-123.5 -112.5t-69 -160.5t-21.5 -186.5zM657 -134h291v-286h-291v286z" />
    <glyph glyph-name=".notdef.029" unicode="&#x1ecd;" horiz-adv-x="1251" 
d="M78 528q0 127 39 230t110 176t172 113t226 40t226.5 -40t173 -113t110.5 -176t39 -230q0 -126 -39 -228.5t-110.5 -175.5t-173 -113t-226.5 -40t-226 40t-172 113t-110 175.5t-39 228.5zM369 528q0 -63 12.5 -123.5t42 -108.5t78.5 -77t123 -29t123.5 29t79.5 77
t42.5 108.5t12.5 123.5q0 64 -12.5 125t-42.5 109t-79.5 77t-123.5 29t-123 -29t-78.5 -77t-42 -109t-12.5 -125zM482 -134h291v-286h-291v286z" />
    <glyph glyph-name=".notdef.097" unicode="&#x1ece;" horiz-adv-x="1593" 
d="M78 725q0 -158 48.5 -296.5t141 -241.5t226 -162.5t303.5 -59.5q169 0 303 59.5t226 162.5t141 241.5t49 296.5q0 163 -49 304t-141 245t-226 163.5t-303 59.5q-170 0 -303.5 -59.5t-226 -163.5t-141 -245t-48.5 -304zM399 725q0 96 21.5 186.5t69 160.5t123.5 112.5
t184 42.5t183.5 -42.5t123 -112.5t69 -160.5t21.5 -186.5q0 -92 -21.5 -179.5t-69 -156.5t-123 -111t-183.5 -42t-184 42t-123.5 111t-69 156.5t-21.5 179.5zM724 1593q-1 39 2.5 70.5t11.5 55.5q17 47 77 89q48 33 48 72q0 35 -20 51t-46 16q-40 0 -55.5 -29t-15.5 -71
l-160 -2q0 131 74 190h-1q61 49 152 49q74 0 137 -29q101 -56 101 -171q0 -56 -28 -97q-23 -34 -83 -76q-25 -18 -37.5 -47t-11.5 -71h-145z" />
    <glyph glyph-name=".notdef.031" unicode="&#x1ecf;" horiz-adv-x="1251" 
d="M78 528q0 -126 39 -228.5t110 -175.5t172 -113t226 -40t226.5 40t173 113t110.5 175.5t39 228.5q0 127 -39 230t-110.5 176t-173 113t-226.5 40t-226 -40t-172 -113t-110 -176t-39 -230zM369 528q0 64 12.5 125t42 109t78.5 77t123 29t123.5 -29t79.5 -77t42.5 -109
t12.5 -125q0 -63 -12.5 -123.5t-42.5 -108.5t-79.5 -77t-123.5 -29t-123 29t-78.5 77t-42 108.5t-12.5 123.5zM552 1190q-1 39 2.5 70.5t11.5 55.5q17 47 77 89q48 33 48 72q0 35 -20 51t-46 16q-40 0 -55.5 -29t-15.5 -71l-160 -2q0 131 74 190h-1q61 49 152 49
q74 0 137 -29q101 -56 101 -171q0 -56 -28 -97q-23 -34 -83 -76q-25 -18 -37.5 -47t-11.5 -71h-145z" />
    <glyph glyph-name=".notdef.105" unicode="&#x1ec6;" horiz-adv-x="1327" 
d="M141 1462h1094v-270h-772v-313h708v-250h-708v-359h788v-270h-1110v1462zM532 1884h267l225 -291h-240l-127 166l-131 -166h-221zM514 -137h291v-286h-291v286z" />
    <glyph glyph-name=".notdef.039" unicode="&#x1ec7;" 
d="M350 459q6 -139 72.5 -204t187.5 -65q44 0 82.5 12.5t69 32t51 44t27.5 49.5h256q-31 -94 -78.5 -161.5t-110.5 -111t-140 -64t-167 -20.5q-125 0 -225.5 41t-170.5 115t-107.5 176t-37.5 225q0 119 39.5 221.5t110.5 177.5t171 117.5t220 42.5q90 0 165 -24t133.5 -66.5
t101.5 -101.5t70 -129t38 -148t6 -159h-764zM823 643q-10 55 -27.5 97.5t-45 70.5t-66.5 42.5t-92 14.5q-69 0 -115 -23.5t-73.5 -58t-40 -73.5t-13.5 -70h473zM457 1481h266l225 -291h-239l-127 166l-131 -166h-222zM441 -134h291v-286h-291v286z" />
    <glyph glyph-name=".notdef.132" unicode="&#x1ec4;" horiz-adv-x="1327" 
d="M141 1462h1094v-270h-772v-313h708v-250h-708v-359h788v-270h-1110v1462zM532 1884h267l225 -291h-240l-127 166l-131 -166h-221zM1041 2207q-11 -35 -24.5 -76t-38.5 -76t-64 -58.5t-102 -23.5q-47 0 -88.5 11.5t-79.5 23.5q-38 14 -73 24.5t-70 10.5q-42 0 -59.5 -24
t-26.5 -62h-125q10 45 26 89.5t45 80t74 58t113 22.5q35 0 67 -11.5t64 -23.5q32 -14 66 -25.5t69 -11.5q46 0 67 21.5t19 50.5h141z" />
    <glyph glyph-name=".notdef.040" unicode="&#x1ec5;" 
d="M350 459q6 -139 72.5 -204t187.5 -65q44 0 82.5 12.5t69 32t51 44t27.5 49.5h256q-31 -94 -78.5 -161.5t-110.5 -111t-140 -64t-167 -20.5q-125 0 -225.5 41t-170.5 115t-107.5 176t-37.5 225q0 119 39.5 221.5t110.5 177.5t171 117.5t220 42.5q90 0 165 -24t133.5 -66.5
t101.5 -101.5t70 -129t38 -148t6 -159h-764zM823 643q-10 55 -27.5 97.5t-45 70.5t-66.5 42.5t-92 14.5q-69 0 -115 -23.5t-73.5 -58t-40 -73.5t-13.5 -70h473zM457 1481h266l225 -291h-239l-127 166l-131 -166h-222zM964 1804q-11 -35 -24.5 -76t-38.5 -76t-64 -58.5
t-102 -23.5q-47 0 -88.5 11.5t-79.5 23.5q-38 14 -73 24.5t-70 10.5q-42 0 -59.5 -24t-26.5 -62h-125q10 45 26 89.5t45 80t74 58t113 22.5q35 0 67 -11.5t64 -23.5q32 -14 66 -25.5t69 -11.5q46 0 67 21.5t19 50.5h141z" />
    <glyph glyph-name=".notdef.130" unicode="&#x1ebe;" horiz-adv-x="1327" 
d="M141 1462h1094v-270h-772v-313h708v-250h-708v-359h788v-270h-1110v1462zM532 1884h267l225 -291h-240l-127 166l-131 -166h-221zM1150 1802h-203l196 291h322z" />
    <glyph glyph-name=".notdef.042" unicode="&#x1ebf;" 
d="M350 459q6 -139 72.5 -204t187.5 -65q44 0 82.5 12.5t69 32t51 44t27.5 49.5h256q-31 -94 -78.5 -161.5t-110.5 -111t-140 -64t-167 -20.5q-125 0 -225.5 41t-170.5 115t-107.5 176t-37.5 225q0 119 39.5 221.5t110.5 177.5t171 117.5t220 42.5q90 0 165 -24t133.5 -66.5
t101.5 -101.5t70 -129t38 -148t6 -159h-764zM823 643q-10 55 -27.5 97.5t-45 70.5t-66.5 42.5t-92 14.5q-69 0 -115 -23.5t-73.5 -58t-40 -73.5t-13.5 -70h473zM457 1481h266l225 -291h-239l-127 166l-131 -166h-222zM1074 1399h-203l196 291h322z" />
    <glyph glyph-name=".notdef.129" unicode="&#x1ec0;" horiz-adv-x="1327" 
d="M141 1462h1094v-270h-772v-313h708v-250h-708v-359h788v-270h-1110v1462zM532 1884h267l225 -291h-240l-127 166l-131 -166h-221zM780 2091h321l197 -291h-203z" />
    <glyph glyph-name=".notdef.043" unicode="&#x1ec1;" 
d="M350 459q6 -139 72.5 -204t187.5 -65q44 0 82.5 12.5t69 32t51 44t27.5 49.5h256q-31 -94 -78.5 -161.5t-110.5 -111t-140 -64t-167 -20.5q-125 0 -225.5 41t-170.5 115t-107.5 176t-37.5 225q0 119 39.5 221.5t110.5 177.5t171 117.5t220 42.5q90 0 165 -24t133.5 -66.5
t101.5 -101.5t70 -129t38 -148t6 -159h-764zM823 643q-10 55 -27.5 97.5t-45 70.5t-66.5 42.5t-92 14.5q-69 0 -115 -23.5t-73.5 -58t-40 -73.5t-13.5 -70h473zM457 1481h266l225 -291h-239l-127 166l-131 -166h-222zM704 1688h321l197 -291h-203z" />
    <glyph glyph-name=".notdef.131" unicode="&#x1ec2;" horiz-adv-x="1327" 
d="M141 0h1110v270h-788v359h708v250h-708v313h772v270h-1094v-1462zM305 1593h221l131 166l127 -166h240l-225 291h-267zM970 1771q-1 39 2.5 70.5t11.5 55.5q17 47 77 89q48 33 48 72q0 35 -20 51t-46 16q-40 0 -55.5 -29t-15.5 -71l-160 -2q0 131 74 190h-1q61 49 152 49
q74 0 137 -29q101 -56 101 -171q0 -56 -28 -97q-23 -34 -83 -76q-25 -18 -37.5 -47t-11.5 -71h-145z" />
    <glyph glyph-name=".notdef.041" unicode="&#x1ec3;" 
d="M1114 459q5 81 -6 159t-38 148t-70 129t-101.5 101.5t-133.5 66.5t-165 24q-120 0 -220 -42.5t-171 -117.5t-110.5 -177.5t-39.5 -221.5q0 -123 37.5 -225t107.5 -176t170.5 -115t225.5 -41q90 0 167 20.5t140 64t110.5 111t78.5 161.5h-256q-7 -25 -27.5 -49.5t-51 -44
t-69 -32t-82.5 -12.5q-121 0 -187.5 65t-72.5 204h764zM350 643q1 31 13.5 70t40 73.5t73.5 58t115 23.5q53 0 92 -14.5t66.5 -42.5t45 -70.5t27.5 -97.5h-473zM229 1190h222l131 166l127 -166h239l-225 291h-266zM894 1369q-1 39 2.5 70.5t11.5 55.5q17 47 77 89
q48 33 48 72q0 35 -20 51t-46 16q-40 0 -55.5 -29t-15.5 -71l-160 -2q0 131 74 190h-1q61 49 152 49q74 0 137 -29q101 -56 101 -171q0 -56 -28 -97q-23 -34 -83 -76q-25 -18 -37.5 -47t-11.5 -71h-145z" />
    <glyph glyph-name=".notdef.092" unicode="&#x1ed0;" horiz-adv-x="1593" 
d="M78 725q0 163 48.5 304t141 245t226 163.5t303.5 59.5q169 0 303 -59.5t226 -163.5t141 -245t49 -304q0 -158 -49 -296.5t-141 -241.5t-226 -162.5t-303 -59.5q-170 0 -303.5 59.5t-226 162.5t-141 241.5t-48.5 296.5zM399 725q0 -92 21.5 -179.5t69 -156.5t123.5 -111
t184 -42t183.5 42t123 111t69 156.5t21.5 179.5q0 96 -21.5 186.5t-69 160.5t-123 112.5t-183.5 42.5t-184 -42.5t-123.5 -112.5t-69 -160.5t-21.5 -186.5zM666 1884h266l225 -291h-239l-127 166l-132 -166h-221zM1283 1802h-203l196 291h322z" />
    <glyph glyph-name=".notdef.026" unicode="&#x1ed1;" horiz-adv-x="1251" 
d="M78 528q0 127 39 230t110 176t172 113t226 40t226.5 -40t173 -113t110.5 -176t39 -230q0 -126 -39 -228.5t-110.5 -175.5t-173 -113t-226.5 -40t-226 40t-172 113t-110 175.5t-39 228.5zM369 528q0 -63 12.5 -123.5t42 -108.5t78.5 -77t123 -29t123.5 29t79.5 77
t42.5 108.5t12.5 123.5q0 64 -12.5 125t-42.5 109t-79.5 77t-123.5 29t-123 -29t-78.5 -77t-42 -109t-12.5 -125zM494 1481h266l225 -291h-240l-127 166l-131 -166h-221zM1111 1399h-203l196 291h322z" />
    <glyph glyph-name=".notdef.093" unicode="&#x1ed2;" horiz-adv-x="1593" 
d="M78 725q0 163 48.5 304t141 245t226 163.5t303.5 59.5q169 0 303 -59.5t226 -163.5t141 -245t49 -304q0 -158 -49 -296.5t-141 -241.5t-226 -162.5t-303 -59.5q-170 0 -303.5 59.5t-226 162.5t-141 241.5t-48.5 296.5zM399 725q0 -92 21.5 -179.5t69 -156.5t123.5 -111
t184 -42t183.5 42t123 111t69 156.5t21.5 179.5q0 96 -21.5 186.5t-69 160.5t-123 112.5t-183.5 42.5t-184 -42.5t-123.5 -112.5t-69 -160.5t-21.5 -186.5zM666 1884h266l225 -291h-239l-127 166l-132 -166h-221zM913 2091h321l197 -291h-203z" />
    <glyph glyph-name=".notdef.027" unicode="&#x1ed3;" horiz-adv-x="1251" 
d="M78 528q0 127 39 230t110 176t172 113t226 40t226.5 -40t173 -113t110.5 -176t39 -230q0 -126 -39 -228.5t-110.5 -175.5t-173 -113t-226.5 -40t-226 40t-172 113t-110 175.5t-39 228.5zM369 528q0 -63 12.5 -123.5t42 -108.5t78.5 -77t123 -29t123.5 29t79.5 77
t42.5 108.5t12.5 123.5q0 64 -12.5 125t-42.5 109t-79.5 77t-123.5 29t-123 -29t-78.5 -77t-42 -109t-12.5 -125zM494 1481h266l225 -291h-240l-127 166l-131 -166h-221zM741 1688h321l197 -291h-203z" />
    <glyph glyph-name=".notdef.091" unicode="&#x1ed4;" horiz-adv-x="1593" 
d="M78 725q0 -158 48.5 -296.5t141 -241.5t226 -162.5t303.5 -59.5q169 0 303 59.5t226 162.5t141 241.5t49 296.5q0 163 -49 304t-141 245t-226 163.5t-303 59.5q-170 0 -303.5 -59.5t-226 -163.5t-141 -245t-48.5 -304zM399 725q0 96 21.5 186.5t69 160.5t123.5 112.5
t184 42.5t183.5 -42.5t123 -112.5t69 -160.5t21.5 -186.5q0 -92 -21.5 -179.5t-69 -156.5t-123 -111t-183.5 -42t-184 42t-123.5 111t-69 156.5t-21.5 179.5zM438 1593h221l132 166l127 -166h239l-225 291h-266zM1103 1771q-1 39 2.5 70.5t11.5 55.5q17 47 77 89
q48 33 48 72q0 35 -20 51t-46 16q-40 0 -55.5 -29t-15.5 -71l-160 -2q0 131 74 190h-1q61 49 152 49q74 0 137 -29q101 -56 101 -171q0 -56 -28 -97q-23 -34 -83 -76q-25 -18 -37.5 -47t-11.5 -71h-145z" />
    <glyph glyph-name=".notdef.025" unicode="&#x1ed5;" horiz-adv-x="1251" 
d="M78 528q0 -126 39 -228.5t110 -175.5t172 -113t226 -40t226.5 40t173 113t110.5 175.5t39 228.5q0 127 -39 230t-110.5 176t-173 113t-226.5 40t-226 -40t-172 -113t-110 -176t-39 -230zM369 528q0 64 12.5 125t42 109t78.5 77t123 29t123.5 -29t79.5 -77t42.5 -109
t12.5 -125q0 -63 -12.5 -123.5t-42.5 -108.5t-79.5 -77t-123.5 -29t-123 29t-78.5 77t-42 108.5t-12.5 123.5zM266 1190h221l131 166l127 -166h240l-225 291h-266zM931 1369q-1 39 2.5 70.5t11.5 55.5q17 47 77 89q48 33 48 72q0 35 -20 51t-46 16q-40 0 -55.5 -29
t-15.5 -71l-160 -2q0 131 74 190h-1q61 49 152 49q74 0 137 -29q101 -56 101 -171q0 -56 -28 -97q-23 -34 -83 -76q-25 -18 -37.5 -47t-11.5 -71h-145z" />
    <glyph glyph-name=".notdef.090" unicode="&#x1ed6;" horiz-adv-x="1593" 
d="M78 725q0 163 48.5 304t141 245t226 163.5t303.5 59.5q169 0 303 -59.5t226 -163.5t141 -245t49 -304q0 -158 -49 -296.5t-141 -241.5t-226 -162.5t-303 -59.5q-170 0 -303.5 59.5t-226 162.5t-141 241.5t-48.5 296.5zM399 725q0 -92 21.5 -179.5t69 -156.5t123.5 -111
t184 -42t183.5 42t123 111t69 156.5t21.5 179.5q0 96 -21.5 186.5t-69 160.5t-123 112.5t-183.5 42.5t-184 -42.5t-123.5 -112.5t-69 -160.5t-21.5 -186.5zM666 1884h266l225 -291h-239l-127 166l-132 -166h-221zM1175 2207q-11 -35 -24.5 -76t-38.5 -76t-64 -58.5
t-102 -23.5q-47 0 -88.5 11.5t-79.5 23.5q-38 14 -73 24.5t-70 10.5q-42 0 -59.5 -24t-26.5 -62h-125q10 45 26 89.5t45 80t74 58t113 22.5q35 0 67 -11.5t64 -23.5q32 -14 66 -25.5t69 -11.5q46 0 67 21.5t19 50.5h141z" />
    <glyph glyph-name=".notdef.024" unicode="&#x1ed7;" horiz-adv-x="1251" 
d="M78 528q0 127 39 230t110 176t172 113t226 40t226.5 -40t173 -113t110.5 -176t39 -230q0 -126 -39 -228.5t-110.5 -175.5t-173 -113t-226.5 -40t-226 40t-172 113t-110 175.5t-39 228.5zM369 528q0 -63 12.5 -123.5t42 -108.5t78.5 -77t123 -29t123.5 29t79.5 77
t42.5 108.5t12.5 123.5q0 64 -12.5 125t-42.5 109t-79.5 77t-123.5 29t-123 -29t-78.5 -77t-42 -109t-12.5 -125zM494 1481h266l225 -291h-240l-127 166l-131 -166h-221zM1001 1804q-11 -35 -24.5 -76t-38.5 -76t-64 -58.5t-102 -23.5q-47 0 -88.5 11.5t-79.5 23.5
q-38 14 -73 24.5t-70 10.5q-42 0 -59.5 -24t-26.5 -62h-125q10 45 26 89.5t45 80t74 58t113 22.5q35 0 67 -11.5t64 -23.5q32 -14 66 -25.5t69 -11.5q46 0 67 21.5t19 50.5h141z" />
    <glyph glyph-name=".notdef.089" unicode="&#x1ed8;" horiz-adv-x="1593" 
d="M78 725q0 163 48.5 304t141 245t226 163.5t303.5 59.5q169 0 303 -59.5t226 -163.5t141 -245t49 -304q0 -158 -49 -296.5t-141 -241.5t-226 -162.5t-303 -59.5q-170 0 -303.5 59.5t-226 162.5t-141 241.5t-48.5 296.5zM399 725q0 -92 21.5 -179.5t69 -156.5t123.5 -111
t184 -42t183.5 42t123 111t69 156.5t21.5 179.5q0 96 -21.5 186.5t-69 160.5t-123 112.5t-183.5 42.5t-184 -42.5t-123.5 -112.5t-69 -160.5t-21.5 -186.5zM666 1884h266l225 -291h-239l-127 166l-132 -166h-221zM657 -134h291v-286h-291v286z" />
    <glyph glyph-name=".notdef.023" unicode="&#x1ed9;" horiz-adv-x="1251" 
d="M78 528q0 127 39 230t110 176t172 113t226 40t226.5 -40t173 -113t110.5 -176t39 -230q0 -126 -39 -228.5t-110.5 -175.5t-173 -113t-226.5 -40t-226 40t-172 113t-110 175.5t-39 228.5zM369 528q0 -63 12.5 -123.5t42 -108.5t78.5 -77t123 -29t123.5 29t79.5 77
t42.5 108.5t12.5 123.5q0 64 -12.5 125t-42.5 109t-79.5 77t-123.5 29t-123 -29t-78.5 -77t-42 -109t-12.5 -125zM494 1481h266l225 -291h-240l-127 166l-131 -166h-221zM482 -134h291v-286h-291v286z" />
    <glyph glyph-name=".notdef.075" unicode="&#x1eda;" horiz-adv-x="1701" 
d="M78 725q0 163 48.5 304t141 245t226 163.5t303.5 59.5q169 0 303 -59.5t226 -163.5t141 -245t49 -304q0 -158 -49 -296.5t-141 -241.5t-226 -162.5t-303 -59.5q-170 0 -303.5 59.5t-226 162.5t-141 241.5t-48.5 296.5zM399 725q0 -92 21.5 -179.5t69 -156.5t123.5 -111
t184 -42t183.5 42t123 111t69 156.5t21.5 179.5q0 96 -21.5 186.5t-69 160.5t-123 112.5t-183.5 42.5t-184 -42.5t-123.5 -112.5t-69 -160.5t-21.5 -186.5zM1399 1462h227v-210q-4 -63 -20 -102.5t-49 -62.5t-87 -32.5t-134 -11.5v81q57 4 92.5 11t55.5 21t28.5 36.5
t10.5 58.5h-124v211zM846 1593h-203l197 291h321z" />
    <glyph glyph-name=".notdef.009" unicode="&#x1edb;" horiz-adv-x="1416" 
d="M78 528q0 127 39 230t110 176t172 113t226 40t226.5 -40t173 -113t110.5 -176t39 -230q0 -126 -39 -228.5t-110.5 -175.5t-173 -113t-226.5 -40t-226 40t-172 113t-110 175.5t-39 228.5zM369 528q0 -63 12.5 -123.5t42 -108.5t78.5 -77t123 -29t123.5 29t79.5 77
t42.5 108.5t12.5 123.5q0 64 -12.5 125t-42.5 109t-79.5 77t-123.5 29t-123 -29t-78.5 -77t-42 -109t-12.5 -125zM1131 1058h227v-210q-4 -63 -20 -102.5t-49 -62.5t-87 -32.5t-134 -11.5v81q57 4 92.5 11t55.5 21t28.5 36.5t10.5 58.5h-124v211zM674 1190h-203l197 291h321
z" />
    <glyph glyph-name=".notdef.076" unicode="&#x1edc;" horiz-adv-x="1701" 
d="M78 725q0 163 48.5 304t141 245t226 163.5t303.5 59.5q169 0 303 -59.5t226 -163.5t141 -245t49 -304q0 -158 -49 -296.5t-141 -241.5t-226 -162.5t-303 -59.5q-170 0 -303.5 59.5t-226 162.5t-141 241.5t-48.5 296.5zM399 725q0 -92 21.5 -179.5t69 -156.5t123.5 -111
t184 -42t183.5 42t123 111t69 156.5t21.5 179.5q0 96 -21.5 186.5t-69 160.5t-123 112.5t-183.5 42.5t-184 -42.5t-123.5 -112.5t-69 -160.5t-21.5 -186.5zM1399 1462h227v-210q-4 -63 -20 -102.5t-49 -62.5t-87 -32.5t-134 -11.5v81q57 4 92.5 11t55.5 21t28.5 36.5
t10.5 58.5h-124v211zM434 1884h322l196 -291h-202z" />
    <glyph glyph-name=".notdef.010" unicode="&#x1edd;" horiz-adv-x="1416" 
d="M78 528q0 127 39 230t110 176t172 113t226 40t226.5 -40t173 -113t110.5 -176t39 -230q0 -126 -39 -228.5t-110.5 -175.5t-173 -113t-226.5 -40t-226 40t-172 113t-110 175.5t-39 228.5zM369 528q0 -63 12.5 -123.5t42 -108.5t78.5 -77t123 -29t123.5 29t79.5 77
t42.5 108.5t12.5 123.5q0 64 -12.5 125t-42.5 109t-79.5 77t-123.5 29t-123 -29t-78.5 -77t-42 -109t-12.5 -125zM1131 1058h227v-210q-4 -63 -20 -102.5t-49 -62.5t-87 -32.5t-134 -11.5v81q57 4 92.5 11t55.5 21t28.5 36.5t10.5 58.5h-124v211zM262 1481h322l196 -291
h-202z" />
    <glyph glyph-name=".notdef.074" unicode="&#x1ede;" horiz-adv-x="1701" 
d="M78 725q0 -158 48.5 -296.5t141 -241.5t226 -162.5t303.5 -59.5q169 0 303 59.5t226 162.5t141 241.5t49 296.5q0 163 -49 304t-141 245t-226 163.5t-303 59.5q-170 0 -303.5 -59.5t-226 -163.5t-141 -245t-48.5 -304zM399 725q0 96 21.5 186.5t69 160.5t123.5 112.5
t184 42.5t183.5 -42.5t123 -112.5t69 -160.5t21.5 -186.5q0 -92 -21.5 -179.5t-69 -156.5t-123 -111t-183.5 -42t-184 42t-123.5 111t-69 156.5t-21.5 179.5zM1399 1251h124q-2 -36 -10.5 -58.5t-28.5 -36.5t-55.5 -21t-92.5 -11v-81q80 2 134 11.5t87 32.5t49 62.5
t20 102.5v210h-227v-211zM724 1593q-1 39 2.5 70.5t11.5 55.5q17 47 77 89q48 33 48 72q0 35 -20 51t-46 16q-40 0 -55.5 -29t-15.5 -71l-160 -2q0 131 74 190h-1q61 49 152 49q74 0 137 -29q101 -56 101 -171q0 -56 -28 -97q-23 -34 -83 -76q-25 -18 -37.5 -47t-11.5 -71
h-145z" />
    <glyph glyph-name=".notdef.008" unicode="&#x1edf;" horiz-adv-x="1416" 
d="M78 528q0 -126 39 -228.5t110 -175.5t172 -113t226 -40t226.5 40t173 113t110.5 175.5t39 228.5q0 127 -39 230t-110.5 176t-173 113t-226.5 40t-226 -40t-172 -113t-110 -176t-39 -230zM369 528q0 64 12.5 125t42 109t78.5 77t123 29t123.5 -29t79.5 -77t42.5 -109
t12.5 -125q0 -63 -12.5 -123.5t-42.5 -108.5t-79.5 -77t-123.5 -29t-123 29t-78.5 77t-42 108.5t-12.5 123.5zM1131 847h124q-2 -36 -10.5 -58.5t-28.5 -36.5t-55.5 -21t-92.5 -11v-81q80 2 134 11.5t87 32.5t49 62.5t20 102.5v210h-227v-211zM552 1190q-1 39 2.5 70.5
t11.5 55.5q17 47 77 89q48 33 48 72q0 35 -20 51t-46 16q-40 0 -55.5 -29t-15.5 -71l-160 -2q0 131 74 190h-1q61 49 152 49q74 0 137 -29q101 -56 101 -171q0 -56 -28 -97q-23 -34 -83 -76q-25 -18 -37.5 -47t-11.5 -71h-145z" />
    <glyph glyph-name=".notdef.073" unicode="&#x1ee0;" horiz-adv-x="1701" 
d="M78 725q0 163 48.5 304t141 245t226 163.5t303.5 59.5q169 0 303 -59.5t226 -163.5t141 -245t49 -304q0 -158 -49 -296.5t-141 -241.5t-226 -162.5t-303 -59.5q-170 0 -303.5 59.5t-226 162.5t-141 241.5t-48.5 296.5zM399 725q0 -92 21.5 -179.5t69 -156.5t123.5 -111
t184 -42t183.5 42t123 111t69 156.5t21.5 179.5q0 96 -21.5 186.5t-69 160.5t-123 112.5t-183.5 42.5t-184 -42.5t-123.5 -112.5t-69 -160.5t-21.5 -186.5zM1399 1462h227v-210q-4 -63 -20 -102.5t-49 -62.5t-87 -32.5t-134 -11.5v81q57 4 92.5 11t55.5 21t28.5 36.5
t10.5 58.5h-124v211zM1174 1866q-11 -35 -25 -76t-39 -76t-64 -58.5t-102 -23.5q-46 0 -88 11.5t-80 23.5q-38 14 -73 24.5t-70 10.5q-41 0 -59 -24t-27 -62h-125q10 45 26.5 89.5t45.5 80t73.5 58t112.5 22.5q35 0 67 -11.5t64 -23.5q32 -14 66 -25.5t69 -11.5
q47 0 67.5 21.5t18.5 50.5h142z" />
    <glyph glyph-name=".notdef.007" unicode="&#x1ee1;" horiz-adv-x="1416" 
d="M78 528q0 127 39 230t110 176t172 113t226 40t226.5 -40t173 -113t110.5 -176t39 -230q0 -126 -39 -228.5t-110.5 -175.5t-173 -113t-226.5 -40t-226 40t-172 113t-110 175.5t-39 228.5zM369 528q0 -63 12.5 -123.5t42 -108.5t78.5 -77t123 -29t123.5 29t79.5 77
t42.5 108.5t12.5 123.5q0 64 -12.5 125t-42.5 109t-79.5 77t-123.5 29t-123 -29t-78.5 -77t-42 -109t-12.5 -125zM1131 1058h227v-210q-4 -63 -20 -102.5t-49 -62.5t-87 -32.5t-134 -11.5v81q57 4 92.5 11t55.5 21t28.5 36.5t10.5 58.5h-124v211zM1001 1462
q-11 -35 -24.5 -75.5t-38.5 -75.5t-64 -58.5t-102 -23.5q-46 0 -88 11t-80 24q-38 14 -73 24t-70 10q-41 0 -59 -23.5t-27 -62.5h-125q10 45 26 89.5t45 80t74 58t113 22.5q35 0 67 -11t64 -24q32 -14 66 -25t69 -11q47 0 67.5 21t18.5 50h141z" />
    <glyph glyph-name=".notdef.072" unicode="&#x1ee2;" horiz-adv-x="1701" 
d="M78 725q0 163 48.5 304t141 245t226 163.5t303.5 59.5q169 0 303 -59.5t226 -163.5t141 -245t49 -304q0 -158 -49 -296.5t-141 -241.5t-226 -162.5t-303 -59.5q-170 0 -303.5 59.5t-226 162.5t-141 241.5t-48.5 296.5zM399 725q0 -92 21.5 -179.5t69 -156.5t123.5 -111
t184 -42t183.5 42t123 111t69 156.5t21.5 179.5q0 96 -21.5 186.5t-69 160.5t-123 112.5t-183.5 42.5t-184 -42.5t-123.5 -112.5t-69 -160.5t-21.5 -186.5zM1399 1462h227v-210q-4 -63 -20 -102.5t-49 -62.5t-87 -32.5t-134 -11.5v81q57 4 92.5 11t55.5 21t28.5 36.5
t10.5 58.5h-124v211zM657 -134h291v-286h-291v286z" />
    <glyph glyph-name=".notdef.006" unicode="&#x1ee3;" horiz-adv-x="1416" 
d="M78 528q0 127 39 230t110 176t172 113t226 40t226.5 -40t173 -113t110.5 -176t39 -230q0 -126 -39 -228.5t-110.5 -175.5t-173 -113t-226.5 -40t-226 40t-172 113t-110 175.5t-39 228.5zM369 528q0 -63 12.5 -123.5t42 -108.5t78.5 -77t123 -29t123.5 29t79.5 77
t42.5 108.5t12.5 123.5q0 64 -12.5 125t-42.5 109t-79.5 77t-123.5 29t-123 -29t-78.5 -77t-42 -109t-12.5 -125zM1131 1058h227v-210q-4 -63 -20 -102.5t-49 -62.5t-87 -32.5t-134 -11.5v81q57 4 92.5 11t55.5 21t28.5 36.5t10.5 58.5h-124v211zM482 -134h291v-286h-291
v286z" />
    <glyph glyph-name=".notdef.084" unicode="&#x1ee4;" horiz-adv-x="1518" 
d="M1382 553q0 -148 -42.5 -258.5t-123 -183.5t-196 -109.5t-262.5 -36.5t-263 36t-196 109t-122 183.5t-42 259.5v909h322v-909q0 -60 10.5 -117t42.5 -101.5t91 -71.5t157 -27q86 0 144 19t93.5 58t50.5 99t15 141v909h321v-909zM614 -134h291v-286h-291v286z" />
    <glyph glyph-name=".notdef.018" unicode="&#x1ee5;" horiz-adv-x="1214" 
d="M1104 0h-277v147h-6q-27 -44 -64 -77t-79 -55t-88 -33t-92 -11q-116 0 -191 31.5t-118.5 88.5t-60.5 137.5t-17 179.5v651h290v-598q0 -131 43 -195.5t144 -64.5q59 0 101.5 17t70 54t40.5 94t13 138v555h291v-1059zM459 -134h291v-286h-291v286z" />
    <glyph glyph-name=".notdef.086" unicode="&#x1ee6;" horiz-adv-x="1518" 
d="M1382 1462h-321v-909q0 -81 -15 -141t-50.5 -99t-93.5 -58t-144 -19q-98 0 -157 27t-91 71.5t-42.5 101.5t-10.5 117v909h-322v-909q0 -149 42 -259.5t122 -183.5t196 -109t263 -36t262.5 36.5t196 109.5t123 183.5t42.5 258.5v909zM693 1593q-1 39 2.5 70.5t11.5 55.5
q17 47 77 89q48 33 48 72q0 35 -20 51t-46 16q-40 0 -55.5 -29t-15.5 -71l-160 -2q0 131 74 190h-1q61 49 152 49q74 0 137 -29q101 -56 101 -171q0 -56 -28 -97q-23 -34 -83 -76q-25 -18 -37.5 -47t-11.5 -71h-145z" />
    <glyph glyph-name=".notdef.020" unicode="&#x1ee7;" horiz-adv-x="1214" 
d="M1104 1059h-291v-555q0 -81 -13 -138t-40.5 -94t-70 -54t-101.5 -17q-101 0 -144 64.5t-43 195.5v598h-290v-651q0 -99 17 -179.5t60.5 -137.5t118.5 -88.5t191 -31.5q46 0 92 11t88 33t79 55t64 77h6v-147h277v1059zM540 1190q-1 39 2.5 70.5t11.5 55.5q17 47 77 89
q48 33 48 72q0 35 -20 51t-46 16q-40 0 -55.5 -29t-15.5 -71l-160 -2q0 131 74 190h-1q61 49 152 49q74 0 137 -29q101 -56 101 -171q0 -56 -28 -97q-23 -34 -83 -76q-25 -18 -37.5 -47t-11.5 -71h-145z" />
    <glyph glyph-name=".notdef.081" unicode="&#x1ee8;" horiz-adv-x="1741" 
d="M1382 553q0 -148 -42.5 -258.5t-123 -183.5t-196 -109.5t-262.5 -36.5t-263 36t-196 109t-122 183.5t-42 259.5v909h322v-909q0 -60 10.5 -117t42.5 -101.5t91 -71.5t157 -27q86 0 144 19t93.5 58t50.5 99t15 141v909h321v-909zM1440 1462h227v-210q-4 -63 -20 -102.5
t-49 -62.5t-87 -32.5t-134 -11.5v81q57 4 92.5 11t55.5 21t28.5 36.5t10.5 58.5h-124v211zM807 1593h-203l197 291h321z" />
    <glyph glyph-name=".notdef.015" unicode="&#x1ee9;" horiz-adv-x="1444" 
d="M1104 0h-277v147h-6q-27 -44 -64 -77t-79 -55t-88 -33t-92 -11q-116 0 -191 31.5t-118.5 88.5t-60.5 137.5t-17 179.5v651h290v-598q0 -131 43 -195.5t144 -64.5q59 0 101.5 17t70 54t40.5 94t13 138v555h291v-1059zM1160 1058h227v-210q-4 -63 -20 -102.5t-49 -62.5
t-87 -32.5t-134 -11.5v81q57 4 92.5 11t55.5 21t28.5 36.5t10.5 58.5h-124v211zM655 1190h-202l196 291h322z" />
    <glyph glyph-name=".notdef.082" unicode="&#x1eea;" horiz-adv-x="1741" 
d="M1382 553q0 -148 -42.5 -258.5t-123 -183.5t-196 -109.5t-262.5 -36.5t-263 36t-196 109t-122 183.5t-42 259.5v909h322v-909q0 -60 10.5 -117t42.5 -101.5t91 -71.5t157 -27q86 0 144 19t93.5 58t50.5 99t15 141v909h321v-909zM1440 1462h227v-210q-4 -63 -20 -102.5
t-49 -62.5t-87 -32.5t-134 -11.5v81q57 4 92.5 11t55.5 21t28.5 36.5t10.5 58.5h-124v211zM395 1884h322l196 -291h-202z" />
    <glyph glyph-name=".notdef.016" unicode="&#x1eeb;" horiz-adv-x="1444" 
d="M1104 0h-277v147h-6q-27 -44 -64 -77t-79 -55t-88 -33t-92 -11q-116 0 -191 31.5t-118.5 88.5t-60.5 137.5t-17 179.5v651h290v-598q0 -131 43 -195.5t144 -64.5q59 0 101.5 17t70 54t40.5 94t13 138v555h291v-1059zM1160 1058h227v-210q-4 -63 -20 -102.5t-49 -62.5
t-87 -32.5t-134 -11.5v81q57 4 92.5 11t55.5 21t28.5 36.5t10.5 58.5h-124v211zM244 1481h321l197 -291h-203z" />
    <glyph glyph-name=".notdef.080" unicode="&#x1eec;" horiz-adv-x="1741" 
d="M1382 1462h-321v-909q0 -81 -15 -141t-50.5 -99t-93.5 -58t-144 -19q-98 0 -157 27t-91 71.5t-42.5 101.5t-10.5 117v909h-322v-909q0 -149 42 -259.5t122 -183.5t196 -109t263 -36t262.5 36.5t196 109.5t123 183.5t42.5 258.5v909zM1440 1251h124q-2 -36 -10.5 -58.5
t-28.5 -36.5t-55.5 -21t-92.5 -11v-81q80 2 134 11.5t87 32.5t49 62.5t20 102.5v210h-227v-211zM693 1593q-1 39 2.5 70.5t11.5 55.5q17 47 77 89q48 33 48 72q0 35 -20 51t-46 16q-40 0 -55.5 -29t-15.5 -71l-160 -2q0 131 74 190h-1q61 49 152 49q74 0 137 -29
q101 -56 101 -171q0 -56 -28 -97q-23 -34 -83 -76q-25 -18 -37.5 -47t-11.5 -71h-145z" />
    <glyph glyph-name=".notdef.014" unicode="&#x1eed;" horiz-adv-x="1444" 
d="M1104 1059h-291v-555q0 -81 -13 -138t-40.5 -94t-70 -54t-101.5 -17q-101 0 -144 64.5t-43 195.5v598h-290v-651q0 -99 17 -179.5t60.5 -137.5t118.5 -88.5t191 -31.5q46 0 92 11t88 33t79 55t64 77h6v-147h277v1059zM1160 847h124q-2 -36 -10.5 -58.5t-28.5 -36.5
t-55.5 -21t-92.5 -11v-81q80 2 134 11.5t87 32.5t49 62.5t20 102.5v210h-227v-211zM540 1190q-1 39 2.5 70.5t11.5 55.5q17 47 77 89q48 33 48 72q0 35 -20 51t-46 16q-40 0 -55.5 -29t-15.5 -71l-160 -2q0 131 74 190h-1q61 49 152 49q74 0 137 -29q101 -56 101 -171
q0 -56 -28 -97q-23 -34 -83 -76q-25 -18 -37.5 -47t-11.5 -71h-145z" />
    <glyph glyph-name=".notdef.079" unicode="&#x1eee;" horiz-adv-x="1741" 
d="M1382 553q0 -148 -42.5 -258.5t-123 -183.5t-196 -109.5t-262.5 -36.5t-263 36t-196 109t-122 183.5t-42 259.5v909h322v-909q0 -60 10.5 -117t42.5 -101.5t91 -71.5t157 -27q86 0 144 19t93.5 58t50.5 99t15 141v909h321v-909zM1440 1462h227v-210q-4 -63 -20 -102.5
t-49 -62.5t-87 -32.5t-134 -11.5v81q57 4 92.5 11t55.5 21t28.5 36.5t10.5 58.5h-124v211zM1135 1866q-11 -35 -24.5 -76t-38.5 -76t-64 -58.5t-102 -23.5q-47 0 -88.5 11.5t-79.5 23.5q-38 14 -73 24.5t-70 10.5q-42 0 -59.5 -24t-26.5 -62h-125q10 45 26 89.5t45 80t74 58
t113 22.5q35 0 67 -11.5t64 -23.5q32 -14 66 -25.5t69 -11.5q46 0 67 21.5t19 50.5h141z" />
    <glyph glyph-name=".notdef.013" unicode="&#x1eef;" horiz-adv-x="1444" 
d="M1104 0h-277v147h-6q-27 -44 -64 -77t-79 -55t-88 -33t-92 -11q-116 0 -191 31.5t-118.5 88.5t-60.5 137.5t-17 179.5v651h290v-598q0 -131 43 -195.5t144 -64.5q59 0 101.5 17t70 54t40.5 94t13 138v555h291v-1059zM1160 1058h227v-210q-4 -63 -20 -102.5t-49 -62.5
t-87 -32.5t-134 -11.5v81q57 4 92.5 11t55.5 21t28.5 36.5t10.5 58.5h-124v211zM985 1462q-11 -35 -25 -75.5t-39 -75.5t-64 -58.5t-102 -23.5q-46 0 -88 11t-80 24q-38 14 -73 24t-70 10q-41 0 -59 -23.5t-27 -62.5h-125q10 45 26.5 89.5t45.5 80t73.5 58t112.5 22.5
q35 0 67 -11t64 -24q32 -14 66 -25t69 -11q47 0 67.5 21t18.5 50h142z" />
    <glyph glyph-name=".notdef.078" unicode="&#x1ef0;" horiz-adv-x="1741" 
d="M1382 553q0 -148 -42.5 -258.5t-123 -183.5t-196 -109.5t-262.5 -36.5t-263 36t-196 109t-122 183.5t-42 259.5v909h322v-909q0 -60 10.5 -117t42.5 -101.5t91 -71.5t157 -27q86 0 144 19t93.5 58t50.5 99t15 141v909h321v-909zM1440 1462h227v-210q-4 -63 -20 -102.5
t-49 -62.5t-87 -32.5t-134 -11.5v81q57 4 92.5 11t55.5 21t28.5 36.5t10.5 58.5h-124v211zM614 -134h291v-286h-291v286z" />
    <glyph glyph-name=".notdef.012" unicode="&#x1ef1;" horiz-adv-x="1444" 
d="M1104 0h-277v147h-6q-27 -44 -64 -77t-79 -55t-88 -33t-92 -11q-116 0 -191 31.5t-118.5 88.5t-60.5 137.5t-17 179.5v651h290v-598q0 -131 43 -195.5t144 -64.5q59 0 101.5 17t70 54t40.5 94t13 138v555h291v-1059zM1160 1058h227v-210q-4 -63 -20 -102.5t-49 -62.5
t-87 -32.5t-134 -11.5v81q57 4 92.5 11t55.5 21t28.5 36.5t10.5 58.5h-124v211zM459 -134h291v-286h-291v286z" />
    <glyph glyph-name=".notdef.071" unicode="&#x1ef2;" horiz-adv-x="1366" 
d="M520 569l-538 893h362l342 -577l340 577h358l-542 -901v-561h-322v569zM338 1884h321l197 -291h-203z" />
    <glyph glyph-name=".notdef.005" unicode="&#x1ef3;" horiz-adv-x="1063" 
d="M633 -133q-24 -64 -56 -109.5t-75.5 -74.5t-101 -42.5t-132.5 -13.5q-45 0 -89 3t-89 8v239q42 -3 84.5 -7.5t85.5 -2.5q37 4 62 23.5t37.5 48t12.5 62t-12 65.5l-372 993h311l240 -725h4l231 725h301zM179 1481h321l197 -291h-203z" />
    <glyph glyph-name=".notdef.067" unicode="&#x1ef4;" horiz-adv-x="1366" 
d="M520 569l-538 893h362l342 -577l340 577h358l-542 -901v-561h-322v569zM537 -134h291v-286h-291v286z" />
    <glyph glyph-name=".notdef.001" unicode="&#x1ef5;" horiz-adv-x="1063" 
d="M633 -133q-24 -64 -56 -109.5t-75.5 -74.5t-101 -42.5t-132.5 -13.5q-45 0 -89 3t-89 8v239q42 -3 84.5 -7.5t85.5 -2.5q37 4 62 23.5t37.5 48t12.5 62t-12 65.5l-372 993h311l240 -725h4l231 725h301zM735 -134h291v-286h-291v286z" />
    <glyph glyph-name=".notdef.069" unicode="&#x1ef6;" horiz-adv-x="1366" 
d="M520 0h322v561l542 901h-358l-340 -577l-342 577h-362l538 -893v-569zM614 1593q-1 39 2.5 70.5t11.5 55.5q17 47 77 89q48 33 48 72q0 35 -20 51t-46 16q-40 0 -55.5 -29t-15.5 -71l-160 -2q0 131 74 190h-1q61 49 152 49q74 0 137 -29q101 -56 101 -171q0 -56 -28 -97
q-23 -34 -83 -76q-25 -18 -37.5 -47t-11.5 -71h-145z" />
    <glyph glyph-name=".notdef.003" unicode="&#x1ef7;" horiz-adv-x="1063" 
d="M1075 1059h-301l-231 -725h-4l-240 725h-311l372 -993q12 -32 12 -65.5t-12.5 -62t-37.5 -48t-62 -23.5q-43 -2 -85.5 2.5t-84.5 7.5v-239q45 -5 89 -8t89 -3q75 0 132.5 13.5t101 42.5t75.5 74.5t56 109.5zM470 1190q-1 39 2.5 70.5t11.5 55.5q17 47 77 89q48 33 48 72
q0 35 -20 51t-46 16q-40 0 -55.5 -29t-15.5 -71l-160 -2q0 131 74 190h-1q61 49 152 49q74 0 137 -29q101 -56 101 -171q0 -56 -28 -97q-23 -34 -83 -76q-25 -18 -37.5 -47t-11.5 -71h-145z" />
    <glyph glyph-name=".notdef.068" unicode="&#x1ef8;" horiz-adv-x="1366" 
d="M520 569l-538 893h362l342 -577l340 577h358l-542 -901v-561h-322v569zM1059 1866q-11 -35 -24.5 -76t-38.5 -76t-64 -58.5t-102 -23.5q-47 0 -88.5 11.5t-79.5 23.5q-38 14 -73 24.5t-70 10.5q-42 0 -59.5 -24t-26.5 -62h-125q10 45 26 89.5t45 80t74 58t113 22.5
q35 0 67 -11.5t64 -23.5q32 -14 66 -25.5t69 -11.5q46 0 67 21.5t19 50.5h141z" />
    <glyph glyph-name=".notdef.002" unicode="&#x1ef9;" horiz-adv-x="1063" 
d="M633 -133q-24 -64 -56 -109.5t-75.5 -74.5t-101 -42.5t-132.5 -13.5q-45 0 -89 3t-89 8v239q42 -3 84.5 -7.5t85.5 -2.5q37 4 62 23.5t37.5 48t12.5 62t-12 65.5l-372 993h311l240 -725h4l231 725h301zM914 1462q-11 -35 -25 -75.5t-39 -75.5t-64 -58.5t-102 -23.5
q-46 0 -88 11t-80 24q-38 14 -73 24t-70 10q-41 0 -59 -23.5t-27 -62.5h-125q10 45 26.5 89.5t45.5 80t73.5 58t112.5 22.5q35 0 67 -11t64 -24q32 -14 66 -25t69 -11q47 0 67.5 21t18.5 50h142z" />
    <glyph glyph-name=".notdef.110" unicode="&#x1ea0;" horiz-adv-x="1403" 
d="M541 1462h329l547 -1462h-334l-110 326h-547l-115 -326h-325zM510 565h379l-184 537h-5zM554 -137h291v-286h-291v286z" />
    <glyph glyph-name=".notdef.062" unicode="&#x1ea1;" 
d="M770 518q-18 -16 -45.5 -25.5t-60 -15.5t-67.5 -10t-69 -10q-34 -7 -65 -17.5t-55 -27.5t-38 -44t-14 -67q0 -41 14.5 -67t39.5 -41t57 -21t68 -6q57 0 96.5 13.5t65.5 35.5t40.5 49t22 54t9 51.5t1.5 40.5v108zM98 733q6 102 51.5 170.5t115 109t156 57.5t175.5 17
q53 0 108 -4.5t106.5 -17t97 -34t79.5 -55t54 -80.5t20 -110v-550q0 -36 2 -71.5t6.5 -66.5t11.5 -56.5t17 -41.5h-295q-8 25 -13.5 50.5t-7.5 51.5q-35 -36 -76.5 -61t-87.5 -40.5t-95 -22.5t-97 -7q-75 0 -141 19t-114.5 58.5t-76.5 99.5t-28 141q0 90 31 148t81.5 93.5
t115 53t132.5 26.5q67 10 129 16.5t110 19t76.5 36t28.5 68.5q0 46 -15 74.5t-40.5 43.5t-60 20t-72.5 5q-83 0 -134.5 -37t-58.5 -123h-291zM441 -134h291v-286h-291v286z" />
    <glyph glyph-name=".notdef.108" unicode="&#x1ea2;" horiz-adv-x="1403" 
d="M-14 0h325l115 326h547l110 -326h334l-547 1462h-329zM700 1102h5l184 -537h-379zM636 1593q-1 39 2.5 70.5t11.5 55.5q17 47 77 89q48 33 48 72q0 35 -20 51t-46 16q-40 0 -55.5 -29t-15.5 -71l-160 -2q0 131 74 190h-1q61 49 152 49q74 0 137 -29q101 -56 101 -171
q0 -56 -28 -97q-23 -34 -83 -76q-25 -18 -37.5 -47t-11.5 -71h-145z" />
    <glyph glyph-name=".notdef.064" unicode="&#x1ea3;" 
d="M770 410q0 -16 -1.5 -40.5t-9 -51.5t-22 -54t-40.5 -49t-65.5 -35.5t-96.5 -13.5q-36 0 -68 6t-57 21t-39.5 41t-14.5 67q0 40 14 67t38 44t55 27.5t65 17.5q34 6 69 10t67.5 10t60 15.5t45.5 25.5v-108zM389 733q7 86 58.5 123t134.5 37q38 0 72.5 -5t60 -20t40.5 -43.5
t15 -74.5q0 -45 -28.5 -68.5t-76.5 -36t-110 -19t-129 -16.5q-68 -9 -132.5 -26.5t-115 -53t-81.5 -93.5t-31 -148q0 -81 28 -141t76.5 -99.5t114.5 -58.5t141 -19q48 0 97 7t95 22.5t87.5 40.5t76.5 61q2 -26 7.5 -51.5t13.5 -50.5h295q-10 16 -17 41.5t-11.5 56.5
t-6.5 66.5t-2 71.5v550q0 63 -20 110t-54 80.5t-79.5 55t-97 34t-106.5 17t-108 4.5q-89 0 -175.5 -17t-156 -57.5t-115 -109t-51.5 -170.5h291zM533 1190q-1 39 2.5 70.5t11.5 55.5q17 47 77 89q48 33 48 72q0 35 -20 51t-46 16q-40 0 -55.5 -29t-15.5 -71l-160 -2
q0 131 74 190h-1q61 49 152 49q74 0 137 -29q101 -56 101 -171q0 -56 -28 -97q-23 -34 -83 -76q-25 -18 -37.5 -47t-11.5 -71h-145z" />
  </font>
</defs>
</svg>
